<svg class="animated" id="freepik_stories-boy-on-graduation" xmlns="http://www.w3.org/2000/svg" viewBox="0 0 500 500" version="1.1" xmlns:xlink="http://www.w3.org/1999/xlink" xmlns:svgjs="http://svgjs.com/svgjs"><style>svg#freepik_stories-boy-on-graduation:not(.animated) .animable {opacity: 0;}svg#freepik_stories-boy-on-graduation.animated #freepik--background-complete--inject-358 {animation: 1.5s Infinite  linear shake;animation-delay: 0s;}svg#freepik_stories-boy-on-graduation.animated #freepik--Confetti--inject-358 {animation: 1.5s Infinite  linear shake;animation-delay: 0s;}            @keyframes shake {                10%, 90% {                    transform: translate3d(-1px, 0, 0);                  }                  20%, 80% {                    transform: translate3d(2px, 0, 0);                  }                  30%, 50%, 70% {                    transform: translate3d(-4px, 0, 0);                  }                  40%, 60% {                    transform: translate3d(4px, 0, 0);                  }            }        .animator-hidden { display: none; }</style><g id="freepik--background-complete--inject-358" style="transform-origin: 250px 226.29px 0px;" class="animable animator-hidden"><g id="elbjbt9kaqkd" style="transform-origin: 250px 235.136px 0px;" class="animable"><g id="elmn39c4fml8" style="transform-origin: 250px 223.358px 0px;" class="animable"><g id="el7x4fu7kegyq" style="transform-origin: 249.333px 192.699px 0px;" class="animable"><path d="M443.92,330.198h-180.746c-3.232,0-5.862-2.63-5.862-5.862V61.062c0-3.232,2.63-5.862,5.862-5.862h180.746c3.232,0,5.862,2.629,5.862,5.862V324.335c0,3.233-2.63,5.862-5.862,5.862ZM263.174,55.45c-3.095,0-5.612,2.518-5.612,5.612V324.335c0,3.095,2.518,5.612,5.612,5.612h180.746c3.095,0,5.612-2.517,5.612-5.612V61.062c0-3.094-2.518-5.612-5.612-5.612h-180.746Z" style="fill: rgb(224, 224, 224); transform-origin: 353.547px 192.699px 0px;" id="el3rjw3bygnx9" class="animable"></path><path d="M235.493,330.198H54.746c-3.232,0-5.862-2.63-5.862-5.862V61.062c0-3.232,2.629-5.862,5.862-5.862H235.493c3.232,0,5.862,2.629,5.862,5.862V324.335c0,3.233-2.63,5.862-5.862,5.862ZM54.746,55.45c-3.094,0-5.612,2.518-5.612,5.612V324.335c0,3.095,2.518,5.612,5.612,5.612H235.493c3.095,0,5.612-2.517,5.612-5.612V61.062c0-3.094-2.518-5.612-5.612-5.612H54.746Z" style="fill: rgb(224, 224, 224); transform-origin: 145.119px 192.699px 0px;" id="el7ygihqnq8o9" class="animable"></path></g><rect x="0" y="391.267" width="500" height=".25" style="fill: rgb(224, 224, 224); transform-origin: 250px 391.392px 0px;" id="eluycwfan7un9" class="animable"></rect></g><rect x="51.672" y="405.531" width="16.06" height=".25" style="fill: rgb(224, 224, 224); transform-origin: 59.702px 405.656px 0px;" id="eljddlif6xqc" class="animable"></rect><rect x="170.352" y="402.821" width="53.53" height=".25" style="fill: rgb(224, 224, 224); transform-origin: 197.117px 402.946px 0px;" id="elvcztoretx9f" class="animable"></rect><rect x="68.732" y="414.821" width="36.25" height=".25" style="fill: rgb(224, 224, 224); transform-origin: 86.857px 414.946px 0px;" id="elwiew6i1xm6" class="animable"></rect><rect x="378.352" y="402.691" width="43.19" height=".25" style="fill: rgb(224, 224, 224); transform-origin: 399.947px 402.816px 0px;" id="el0jink6mnb7sn" class="animable"></rect><rect x="430.452" y="402.691" width="6.33" height=".25" style="fill: rgb(224, 224, 224); transform-origin: 433.617px 402.816px 0px;" id="eldtamdn12s0r" class="animable"></rect><rect x="316.212" y="408.921" width="53.89" height=".25" style="fill: rgb(224, 224, 224); transform-origin: 343.157px 409.046px 0px;" id="elh859zjz15cd" class="animable"></rect></g><g id="elg2vvs2mnj8c" style="transform-origin: 137.163px 236.372px 0px;" class="animable"><path d="M145.537,262.165c11.087-5.348,17.715-14.984,17.696-27.294-.02-12.31-5.842-24.974-16.946-30.287-5.681-2.718-12.342-3.741-18.36-1.886-8.555,2.638-14.661,10.905-16.2,19.725-1.539,8.82-.319,16.86,4.121,24.635,4.398,7.702,12.806,16.05,25.525,16.025,0,0-1.495,7.51,.525,7.881,2.02,.37,2.888-3.944,2.888-3.944,0,0,5.453,3.568,5.103,1.126-.517-3.608-4.352-5.98-4.352-5.98Z" style="fill: rgb(224, 224, 224); transform-origin: 137.163px 236.372px 0px;" id="elktuoqm8g85" class="animable"></path><g id="el84fm9wma4rj"><g style="opacity: 0.3; transform-origin: 117.049px 227.301px 0px;" class="animable"><path d="M121.194,240.907c-1.487,.795-2.974,1.591-4.462,2.386-2.847-4.914-4.173-10.696-3.751-16.36,.422-5.664,2.589-11.185,6.132-15.624,0,0-2.422,9.076-1.675,15.966,.81,7.467,3.755,13.632,3.755,13.632Z" style="fill: rgb(255, 255, 255); transform-origin: 117.049px 227.301px 0px;" id="elyci4738axyo" class="animable"></path></g></g></g><g id="eldrjux3kcaie" style="transform-origin: 349.02px 349.639px 0px;" class="animable"><path d="M329.22,372.094c10.498,6.429,22.188,6.787,32.529,.109,10.341-6.678,17.839-18.428,16.297-30.641-.789-6.248-3.533-12.403-8.35-16.459-6.848-5.767-17.105-6.426-25.354-2.948-8.249,3.479-14.35,8.857-18.485,16.797-4.096,7.866-6.566,19.455,.338,30.137,0,0-7.124,2.807-6.342,4.707,.782,1.899,4.88,.294,4.88,.294,0,0-.049,6.517,1.815,4.901,2.754-2.387,2.673-6.896,2.673-6.896Z" style="fill: rgb(224, 224, 224); transform-origin: 349.02px 349.639px 0px;" id="elcj7wecwoeu" class="animable"></path><g id="el927224qx4y"><g style="opacity: 0.3; transform-origin: 343.593px 331.163px 0px;" class="animable"><path d="M333.922,340.119c-1.474-.82-2.947-1.64-4.421-2.461,2.592-5.053,6.736-9.297,11.727-12.008,4.991-2.711,10.807-3.876,16.457-3.299,0,0-8.943,2.875-14.332,7.232-5.841,4.722-9.43,10.535-9.43,10.535Z" style="fill: rgb(255, 255, 255); transform-origin: 343.593px 331.163px 0px;" id="elpmz2hf11fm" class="animable"></path></g></g></g><g id="elpeh400tdllj" style="transform-origin: 394.76px 258.531px 0px;" class="animable"><path d="M388.842,236.27c-9.654,4.105-15.685,12.04-16.165,22.52-.48,10.48,3.965,21.495,13.202,26.466,4.726,2.543,10.355,3.683,15.553,2.346,7.389-1.9,12.92-8.691,14.587-16.137,1.666-7.446,.952-14.34-2.513-21.137-3.433-6.734-10.253-14.179-21.081-14.672,0,0,1.576-6.333-.129-6.73-1.705-.397-2.618,3.241-2.618,3.241,0,0-4.498-3.258-4.299-1.164,.294,3.092,3.463,5.266,3.463,5.266Z" style="fill: rgb(235, 235, 235); transform-origin: 394.76px 258.531px 0px;" id="elov4sabhmdeg" class="animable"></path><g id="el0yhuw6j05aik"><g style="opacity: 0.3; transform-origin: 412.008px 267.063px 0px;" class="animable"><path d="M408.706,255.349c1.298-.617,2.596-1.234,3.895-1.851,2.225,4.298,3.12,9.273,2.532,14.078-.588,4.804-2.655,9.417-5.851,13.052,0,0,2.428-7.628,2.071-13.523-.388-6.389-2.647-11.756-2.647-11.756Z" style="fill: rgb(255, 255, 255); transform-origin: 412.008px 267.063px 0px;" id="eljn7ik29di7" class="animable"></path></g></g></g><g id="eluxyjs13t6b" style="transform-origin: 233.568px 66.3991px 0px;" class="animable"><path d="M244.076,87.442c8.755-5.78,13.255-14.673,11.836-25.067-1.419-10.394-7.779-20.426-17.762-23.649-5.107-1.648-10.85-1.754-15.721,.499-6.925,3.202-11.14,10.88-11.435,18.504-.295,7.624,1.651,14.276,6.286,20.336,4.592,6.004,12.644,12.096,23.383,10.627,0,0-.407,6.513,1.341,6.596,1.748,.083,1.99-3.66,1.99-3.66,0,0,5.012,2.392,4.438,.37-.847-2.988-4.357-4.555-4.357-4.555Z" style="fill: rgb(235, 235, 235); transform-origin: 233.568px 66.3991px 0px;" id="el8rek05i3t7s" class="animable"></path><g id="elhta10strmwd"><g style="opacity: 0.3; transform-origin: 216.81px 61.1425px 0px;" class="animable"><path d="M221.095,72.261c-1.166,.841-2.331,1.682-3.497,2.523-2.964-3.826-4.742-8.558-5.031-13.389-.289-4.831,.912-9.742,3.4-13.894,0,0-1.012,7.941,.404,13.675,1.535,6.214,4.725,11.085,4.725,11.085Z" style="fill: rgb(255, 255, 255); transform-origin: 216.81px 61.1425px 0px;" id="elch2a8fk460o" class="animable"></path></g></g></g><g id="elmk3mcgj6m8s" style="transform-origin: 103.581px 335.388px 0px;" class="animable"><path d="M123.081,351.832c5.13-9.15,5.052-19.117-.974-27.704-6.026-8.587-16.278-14.587-26.627-12.874-5.295,.877-10.446,3.416-13.743,7.651-4.686,6.021-4.912,14.777-1.679,21.687,3.233,6.911,8.012,11.93,14.91,15.191,6.833,3.23,16.782,4.954,25.652-1.276,0,0,2.624,5.975,4.216,5.247,1.592-.728,.09-4.165,.09-4.165,0,0,5.551-.172,4.114-1.707-2.123-2.267-5.96-2.051-5.96-2.051Z" style="fill: rgb(235, 235, 235); transform-origin: 103.581px 335.388px 0px;" id="elelumjq87ccf" class="animable"></path><g id="el5ile169vy3"><g style="opacity: 0.3; transform-origin: 87.7188px 340.973px 0px;" class="animable"><path d="M95.697,348.877c-.65,1.282-1.3,2.564-1.95,3.845-4.388-2.041-8.138-5.431-10.61-9.593-2.472-4.161-3.655-9.076-3.349-13.906,0,0,2.742,7.522,6.628,11.968,4.213,4.819,9.281,7.685,9.281,7.685Z" style="fill: rgb(255, 255, 255); transform-origin: 87.7188px 340.973px 0px;" id="el9sanuq8myn7" class="animable"></path></g></g></g><g id="elvp7f4s6tk6" style="transform-origin: 94.9326px 116.188px 0px;" class="animable"><path d="M82.829,144.73c13.373,2.342,25.509-2.026,33.411-13.065,7.902-11.039,10.834-26.129,4.305-38.033-3.34-6.09-8.649-11.292-15.233-13.501-9.361-3.141-20.149,.337-27.202,7.247-7.053,6.91-11.133,14.898-12.158,24.718-1.015,9.728,1.146,22.616,12.555,30.776,0,0-6.171,5.766-4.599,7.397,1.572,1.632,5.125-1.675,5.125-1.675,0,0,2.589,6.705,3.847,4.292,1.858-3.565-.051-8.157-.051-8.157Z" style="fill: rgb(245, 245, 245); transform-origin: 94.9326px 116.188px 0px;" id="el5rukqix20mt" class="animable"></path><g id="el9z09mt08yp"><g style="opacity: 0.3; transform-origin: 80.522px 96.0995px 0px;" class="animable"><path d="M74.699,110.025c-1.844-.244-3.688-.489-5.532-.733,.611-6.234,3.143-12.266,7.165-17.068,4.021-4.802,9.515-8.354,15.545-10.05,0,0-8.009,6.572-11.772,13.224-4.079,7.21-5.406,14.627-5.406,14.627Z" style="fill: rgb(255, 255, 255); transform-origin: 80.522px 96.0995px 0px;" id="el3dfclouf0n" class="animable"></path></g></g></g><g id="eldn63zmg0pxu" style="transform-origin: 394.761px 115.006px 0px;" class="animable"><path d="M375.141,138.014c10.788,6.185,22.602,6.206,32.849-.84,10.247-7.046,17.475-19.129,15.562-31.416-.979-6.286-3.93-12.421-8.912-16.376-7.084-5.623-17.459-5.99-25.687-2.236-8.228,3.754-14.232,9.362-18.175,17.501-3.907,8.063-6.062,19.836,1.221,30.42,0,0-7.112,3.043-6.267,4.938,.845,1.895,4.936,.155,4.936,.155,0,0,.141,6.582,1.976,4.896,2.712-2.491,2.498-7.042,2.498-7.042Z" style="fill: rgb(224, 224, 224); transform-origin: 394.761px 115.006px 0px;" id="elzbtv4ppl5fs" class="animable"></path><g id="elglr1h7ar1ls"><g style="opacity: 0.3; transform-origin: 388.425px 96.2345px 0px;" class="animable"><path d="M378.955,105.589c-1.512-.785-3.024-1.57-4.536-2.356,2.469-5.179,6.53-9.585,11.491-12.467s10.799-4.23,16.521-3.811c0,0-8.946,3.164-14.261,7.721-5.76,4.939-9.215,10.913-9.215,10.913Z" style="fill: rgb(255, 255, 255); transform-origin: 388.425px 96.2345px 0px;" id="ela2hpaugzqr" class="animable"></path></g></g></g></g><g id="freepik--Shadow--inject-358" style="transform-origin: 250px 460.541px 0px;" class="animable"><path d="M380.905,460.541c0,4.95-58.608,8.963-130.905,8.963s-130.905-4.013-130.905-8.963,58.608-8.964,130.905-8.964,130.905,4.013,130.905,8.964Z" style="fill: rgb(245, 245, 245); transform-origin: 250px 460.541px 0px;" id="el7aveevx5yu" class="animable"></path></g><g id="freepik--Confetti--inject-358" style="transform-origin: 249.532px 239.395px 0px;" class="animable"><g id="elv20e2wsyfpq" style="transform-origin: 249.532px 239.395px 0px;" class="animable"><path d="M82.473,191.484l3.186-1.199s-.828,3.379,3.717,4.352l-2.89,2.081s-3.894-1.454-4.012-5.235Z" style="fill: rgb(0, 255, 136); transform-origin: 85.9245px 193.502px 0px;" id="eltzna772myfq" class="animable"></path><path d="M221.61,93.624l.983,3.259s-3.316-1.052-4.591,3.417l-1.883-3.023s1.711-3.788,5.491-3.653Z" style="fill: rgb(0, 255, 136); transform-origin: 219.356px 96.9602px 0px;" id="eloxg356b202" class="animable"></path><path d="M42.286,279.604l.277-2.338s1.811,1.583,3.854-.898l.359,2.437s-2.131,1.929-4.49,.799Z" style="fill: rgb(0, 255, 136); transform-origin: 44.531px 278.163px 0px;" id="el3pb3qhh9j0v" class="animable"></path><path d="M197.701,202.045l.277-2.338s1.812,1.583,3.854-.898l.359,2.437s-2.131,1.929-4.49,.799Z" style="fill: rgb(0, 255, 136); transform-origin: 199.946px 200.604px 0px;" id="elip9fjukx43t" class="animable"></path><path d="M154.877,67.554l.277-2.338s1.811,1.583,3.854-.898l.359,2.437s-2.131,1.929-4.49,.799Z" style="fill: rgb(0, 255, 136); transform-origin: 157.122px 66.1135px 0px;" id="el1jfynq3u1r5" class="animable"></path><g id="eledqtvxmgxc9" style="transform-origin: 54.798px 99.0146px 0px;" class="animable"><path d="M51.551,101.097l.401-3.381s2.62,2.289,5.574-1.298l.519,3.524s-3.082,2.79-6.493,1.156Z" style="fill: rgb(0, 255, 136); transform-origin: 54.798px 99.0146px 0px;" id="eli54pby3ogpg" class="animable"></path><g id="elp1loqiocze"><path d="M51.551,101.097l.401-3.381s2.62,2.289,5.574-1.298l.519,3.524s-3.082,2.79-6.493,1.156Z" style="fill: rgb(255, 255, 255); opacity: 0.7; transform-origin: 54.798px 99.0146px 0px;" class="animable"></path></g></g><g id="eln9gkxotudl" style="transform-origin: 131.042px 129.72px 0px;" class="animable"><path d="M127.419,128.172l3.01-1.591s-.396,3.457,4.235,3.85l-2.605,2.429s-4.046-.952-4.64-4.688Z" style="fill: rgb(0, 255, 136); transform-origin: 131.042px 129.72px 0px;" id="elps1lkhz9opd" class="animable"></path><g id="el3bw9h9h2dsj"><path d="M127.419,128.172l3.01-1.591s-.396,3.457,4.235,3.85l-2.605,2.429s-4.046-.952-4.64-4.688Z" style="fill: rgb(255, 255, 255); opacity: 0.7; transform-origin: 131.042px 129.72px 0px;" class="animable"></path></g></g><g id="elgnbw1pdyvyp" style="transform-origin: 267.417px 90.4815px 0px;" class="animable"><path d="M263.795,88.933l3.01-1.591s-.396,3.457,4.235,3.85l-2.605,2.429s-4.046-.952-4.64-4.688Z" style="fill: rgb(0, 255, 136); transform-origin: 267.417px 90.4815px 0px;" id="elga6m81kv3y" class="animable"></path><g id="elxjv8gder5n"><path d="M263.795,88.933l3.01-1.591s-.396,3.457,4.235,3.85l-2.605,2.429s-4.046-.952-4.64-4.688Z" style="fill: rgb(255, 255, 255); opacity: 0.7; transform-origin: 267.417px 90.4815px 0px;" class="animable"></path></g></g><path d="M375.593,191.978l.983,3.259s-3.316-1.052-4.591,3.417l-1.883-3.023s1.711-3.789,5.491-3.653Z" style="fill: rgb(0, 255, 136); transform-origin: 373.339px 195.314px 0px;" id="elg6ll32usj74" class="animable"></path><path d="M412.155,331.141l-.302-3.391s3.034,1.702,5.188-2.416l1.231,3.342s-2.443,3.363-6.117,2.465Z" style="fill: rgb(0, 255, 136); transform-origin: 415.063px 328.314px 0px;" id="elzpqls9tlgp9" class="animable"></path><path d="M435.31,137.322l-.302-3.391s3.034,1.702,5.188-2.416l1.231,3.342s-2.443,3.363-6.117,2.465Z" style="fill: rgb(0, 255, 136); transform-origin: 438.217px 134.495px 0px;" id="elyxqa6uq0z7" class="animable"></path><path d="M114.978,286.624l-.302-3.391s3.034,1.702,5.188-2.416l1.231,3.342s-2.443,3.363-6.118,2.465Z" style="fill: rgb(0, 255, 136); transform-origin: 117.886px 283.797px 0px;" id="elxjwrmboqo5" class="animable"></path><path d="M55.137,366.609l-.302-3.391s3.034,1.702,5.188-2.416l1.231,3.342s-2.443,3.363-6.118,2.465Z" style="fill: rgb(0, 255, 136); transform-origin: 58.0445px 363.782px 0px;" id="el68fc3dsc41f" class="animable"></path><path d="M137.465,417.648l-.302-3.391s3.034,1.702,5.188-2.416l1.231,3.342s-2.443,3.363-6.118,2.465Z" style="fill: rgb(0, 255, 136); transform-origin: 140.373px 414.821px 0px;" id="el6st7xioo1wk" class="animable"></path><path d="M408.361,76.224l.277-2.338s1.812,1.583,3.854-.898l.359,2.437s-2.131,1.929-4.49,.799Z" style="fill: rgb(0, 255, 136); transform-origin: 410.606px 74.7835px 0px;" id="el855ydkdp14l" class="animable"></path><path d="M337.685,104.995l.277-2.338s1.812,1.583,3.854-.898l.359,2.437s-2.131,1.929-4.49,.799Z" style="fill: rgb(0, 255, 136); transform-origin: 339.93px 103.555px 0px;" id="elkr7m3t787ad" class="animable"></path><g id="el36o0py005bm" style="transform-origin: 449.782px 232.292px 0px;" class="animable"><path d="M446.16,230.743l3.01-1.591s-.396,3.457,4.235,3.85l-2.605,2.429s-4.046-.952-4.64-4.688Z" style="fill: rgb(0, 255, 136); transform-origin: 449.782px 232.292px 0px;" id="ela2ndic22s6n" class="animable"></path><g id="elprr61z5404e"><path d="M446.16,230.743l3.01-1.591s-.396,3.457,4.235,3.85l-2.605,2.429s-4.046-.952-4.64-4.688Z" style="fill: rgb(255, 255, 255); opacity: 0.7; transform-origin: 449.782px 232.292px 0px;" class="animable"></path></g></g><g id="eldhe6rjycvnb" style="transform-origin: 334.305px 278.163px 0px;" class="animable"><path d="M330.683,276.615l3.01-1.591s-.396,3.457,4.235,3.85l-2.605,2.429s-4.046-.952-4.64-4.688Z" style="fill: rgb(0, 255, 136); transform-origin: 334.305px 278.163px 0px;" id="el9lft6i8hcva" class="animable"></path><g id="el4s2o1w0d6kj"><path d="M330.683,276.615l3.01-1.591s-.396,3.457,4.235,3.85l-2.605,2.429s-4.046-.952-4.64-4.688Z" style="fill: rgb(255, 255, 255); opacity: 0.7; transform-origin: 334.305px 278.163px 0px;" class="animable"></path></g></g><g id="elg91b6x8cpra" style="transform-origin: 453.155px 383.57px 0px;" class="animable"><path d="M449.533,382.021l3.01-1.591s-.396,3.457,4.235,3.85l-2.605,2.429s-4.046-.952-4.64-4.688Z" style="fill: rgb(0, 255, 136); transform-origin: 453.155px 383.57px 0px;" id="elonvpna41jm" class="animable"></path><g id="ell6cqseij3b8"><path d="M449.533,382.021l3.01-1.591s-.396,3.457,4.235,3.85l-2.605,2.429s-4.046-.952-4.64-4.688Z" style="fill: rgb(255, 255, 255); opacity: 0.7; transform-origin: 453.155px 383.57px 0px;" class="animable"></path></g></g><g id="elxjt865g0oll" style="transform-origin: 182.66px 330.197px 0px;" class="animable"><path d="M179.037,328.649l3.01-1.591s-.396,3.457,4.235,3.85l-2.605,2.429s-4.046-.952-4.64-4.688Z" style="fill: rgb(0, 255, 136); transform-origin: 182.66px 330.197px 0px;" id="eljjl6nkpi3g" class="animable"></path><g id="el4pvhonwewka"><path d="M179.037,328.649l3.01-1.591s-.396,3.457,4.235,3.85l-2.605,2.429s-4.046-.952-4.64-4.688Z" style="fill: rgb(255, 255, 255); opacity: 0.7; transform-origin: 182.66px 330.197px 0px;" class="animable"></path></g></g><g id="ell9ix7o6bfbr" style="transform-origin: 345.678px 391.266px 0px;" class="animable"><path d="M342.335,392.58l.971-3.263s2.191,2.702,5.714-.33l-.089,3.561s-3.512,2.224-6.595,.032Z" style="fill: rgb(0, 255, 136); transform-origin: 345.678px 391.266px 0px;" id="elbzisapjlxdb" class="animable"></path><g id="eld1yej3wr5zq"><path d="M342.335,392.58l.971-3.263s2.191,2.702,5.714-.33l-.089,3.561s-3.512,2.224-6.595,.032Z" style="fill: rgb(255, 255, 255); opacity: 0.7; transform-origin: 345.678px 391.266px 0px;" class="animable"></path></g></g><g id="el46y9hnlddsc" style="transform-origin: 276.224px 63.2695px 0px;" class="animable"><path d="M272.881,64.583l.971-3.263s2.191,2.702,5.714-.33l-.089,3.561s-3.512,2.224-6.595,.032Z" style="fill: rgb(0, 255, 136); transform-origin: 276.224px 63.2695px 0px;" id="ello2fz6lmek" class="animable"></path><g id="elj8va0m9eb1h"><path d="M272.881,64.583l.971-3.263s2.191,2.702,5.714-.33l-.089,3.561s-3.512,2.224-6.595,.032Z" style="fill: rgb(255, 255, 255); opacity: 0.7; transform-origin: 276.224px 63.2695px 0px;" class="animable"></path></g></g></g></g><g id="freepik--Speech_Bubble--inject-358" style="transform-origin: 317.533px 77.4666px 0px;" class="animable"><g id="ell2nytcjzy5q" style="transform-origin: 317.533px 77.4666px 0px;" class="animable"><g id="el38htduythml" style="transform-origin: 317.533px 77.4666px 0px;" class="animable"><path d="M303.413,64.769c7.602-7.798,20.086-7.957,27.884-.355,7.798,7.602,7.957,20.086,.355,27.884-5.869,6.02-14.64,7.467-21.926,4.325l-5.371,2.495-.341-6.248c-.08-.075-.166-.139-.245-.216-7.798-7.602-7.957-20.086-.355-27.884Z" style="fill: rgb(0, 255, 136); transform-origin: 317.533px 78.9664px 0px;" id="elqo9e7npgakl" class="animable"></path><path d="M330.111,60.282c-.054,0-.107-.017-.153-.052-4.983-3.858-12.035-4.979-17.972-2.854-.125,.044-.273-.021-.319-.151-.047-.13,.021-.273,.151-.32,6.09-2.181,13.33-1.03,18.446,2.929,.109,.084,.129,.242,.044,.351-.049,.064-.123,.097-.197,.097Z" style="fill: rgb(0, 255, 136); transform-origin: 321.006px 58.0486px 0px;" id="el60zjkxcw18s" class="animable"></path><path d="M306.58,59.813c-.072,0-.145-.032-.194-.092-.087-.107-.07-.265,.037-.352,.781-.635,1.708-1.113,2.68-1.381,.135-.04,.271,.042,.308,.174,.036,.133-.041,.271-.175,.308-.905,.25-1.769,.696-2.498,1.288-.046,.038-.102,.056-.157,.056Z" style="fill: rgb(0, 255, 136); transform-origin: 307.875px 58.8959px 0px;" id="el9aosyp4j84" class="animable"></path></g><path d="M317.166,88.022c-.741,0-1.36-.239-1.858-.718-.497-.479-.745-1.062-.745-1.749s.244-1.261,.732-1.722c.488-.461,1.112-.691,1.871-.691s1.383,.23,1.871,.691c.488,.461,.732,1.035,.732,1.722s-.248,1.271-.746,1.749c-.497,.479-1.116,.718-1.858,.718Zm1.681-6.806h-3.363l-.841-12.393h5.044l-.841,12.393Z" style="fill: rgb(255, 255, 255); transform-origin: 317.166px 78.4225px 0px;" id="el34a484rkicr" class="animable"></path></g></g><g id="freepik--Character--inject-358" style="transform-origin: 246.51px 269.874px 0px;" class="animable"><g id="elf4mkoegrt7d" style="transform-origin: 246.51px 269.874px 0px;" class="animable"><g id="eltajf4geam0r" style="transform-origin: 252.655px 355.369px 0px;" class="animable"><g id="el8nznxv2muhu" style="transform-origin: 225.104px 444.126px 0px;" class="animable"><polygon points="235.091 424.537 231.444 451.293 222.724 451.734 219.901 425.94 235.091 424.537" style="fill: rgb(38, 50, 56); transform-origin: 227.496px 438.136px 0px;" id="el21lq6vdn1ty" class="animable"></polygon><path d="M215.3,463.715h19.504s.425-.819-.061-3c-.074-.34-.171-.713-.297-1.12-.007-.021-.011-.041-.018-.061-.182-.603-.392-1.346-.614-2.147-.893-3.265-1.944-7.532-1.944-7.532,0,0-3.245-6.947-7.041-5.212-3.331,1.521-2.541,5.876-2.541,5.876,0,0-.326,2.557-2.851,4.811-1.562,1.393-3.114,2.471-3.862,4.204-.14,.324-.25,.668-.328,1.042-.009,.045-.018,.092-.025,.139-.155,.835-.146,1.814,.079,3Z" style="fill: rgb(38, 50, 56); transform-origin: 225.047px 454.04px 0px;" id="elbp3shzubb1c" class="animable"></path><g id="el9wflbnps31r"><path d="M234.743,460.715c.486,2.181,.061,3,.061,3h-19.504c-.225-1.186-.234-2.165-.079-3h19.522Z" style="fill: rgb(255, 255, 255); opacity: 0.3; transform-origin: 225.046px 462.215px 0px;" class="animable"></path></g><path d="M223.073,451.612c1.097-.855,2.536-.744,3.523,.218,.265,.259,.673-.148,.407-.407-1.231-1.201-2.99-1.268-4.337-.219-.292,.227,.118,.632,.407,.407h0Z" style="fill: rgb(0, 255, 136); transform-origin: 224.828px 451.19px 0px;" id="elpr82yu2qd99" class="animable"></path><path d="M222.522,453.434c1.097-.855,2.536-.744,3.523,.219,.265,.259,.673-.148,.407-.407-1.231-1.201-2.99-1.268-4.337-.219-.292,.227,.118,.632,.407,.407h0Z" style="fill: rgb(0, 255, 136); transform-origin: 224.277px 453.013px 0px;" id="elzk3q3tlmr58" class="animable"></path><path d="M221.969,455.109c1.097-.855,2.536-.744,3.523,.218,.265,.259,.673-.148,.407-.407-1.232-1.201-2.99-1.268-4.337-.219-.292,.228,.118,.632,.407,.407h0Z" style="fill: rgb(0, 255, 136); transform-origin: 223.724px 454.687px 0px;" id="el7xo3t6fso3f" class="animable"></path></g><g id="eljcda4fkurg8" style="transform-origin: 281.686px 442.451px 0px;" class="animable"><polygon points="271.699 422.862 275.346 449.618 284.065 450.059 286.889 424.265 271.699 422.862" style="fill: rgb(38, 50, 56); transform-origin: 279.294px 436.461px 0px;" id="eli1o5iqgeiyn" class="animable"></polygon><path d="M291.49,462.04h-19.504s-.425-.819,.061-3c.074-.34,.171-.713,.297-1.121,.007-.02,.011-.041,.018-.061,.182-.603,.392-1.346,.614-2.147,.893-3.265,1.944-7.532,1.944-7.532,0,0,3.245-6.947,7.042-5.212,3.331,1.521,2.541,5.876,2.541,5.876,0,0,.326,2.557,2.851,4.811,1.562,1.393,3.115,2.471,3.862,4.204,.14,.324,.25,.668,.328,1.042,.009,.045,.018,.092,.025,.14,.155,.835,.146,1.814-.079,3Z" style="fill: rgb(38, 50, 56); transform-origin: 281.744px 452.364px 0px;" id="eluur4d4j7s7d" class="animable"></path><g id="elrcaoteaqgmh"><path d="M272.046,459.041c-.486,2.181-.061,3-.061,3h19.504c.225-1.186,.234-2.165,.079-3h-19.522Z" style="fill: rgb(255, 255, 255); opacity: 0.3; transform-origin: 281.743px 460.541px 0px;" class="animable"></path></g><path d="M283.717,449.938c-1.097-.855-2.536-.744-3.523,.218-.265,.259-.673-.148-.407-.407,1.231-1.201,2.99-1.268,4.337-.219,.292,.227-.118,.632-.407,.407h0Z" style="fill: rgb(0, 255, 136); transform-origin: 281.962px 449.516px 0px;" id="elola6m5ouj4" class="animable"></path><path d="M284.267,451.759c-1.097-.855-2.536-.744-3.523,.218-.265,.259-.673-.148-.407-.407,1.231-1.201,2.99-1.268,4.337-.219,.292,.227-.118,.632-.407,.407h0Z" style="fill: rgb(0, 255, 136); transform-origin: 282.512px 451.337px 0px;" id="elvq8c5nuqcm" class="animable"></path><path d="M284.82,453.434c-1.097-.855-2.536-.744-3.523,.219-.265,.259-.673-.148-.407-.407,1.232-1.201,2.99-1.268,4.337-.219,.292,.228-.118,.632-.407,.407h0Z" style="fill: rgb(0, 255, 136); transform-origin: 283.065px 453.013px 0px;" id="elclmv8yndt4c" class="animable"></path></g><path d="M213.975,308.786l-.003,.002s.852,105.395,3.36,134.329l20.332,1.01c.767-21.076,6.182-95.372,6.182-95.372,1.082-9.242,2.264-43.595,3.696-57.828,2.956,17.067,6.674,52.771,7.67,57.526,1.656,7.906,12.49,98.44,12.49,98.44l21.813-2.223s-3.88-87.289-4.343-101.973c-2.12-67.336-3.805-95.674-3.805-95.674l-24.814,4.285-40.562-2.417s-3.423,37.822-2.016,59.895Z" style="fill: rgb(38, 50, 56); transform-origin: 251.575px 346.958px 0px;" id="elln552xrqmzr" class="animable"></path><g id="el5yvmqla0izv"><path d="M213.975,308.786l-.003,.002s.852,105.395,3.36,134.329l20.332,1.01c.767-21.076,6.182-95.372,6.182-95.372,1.082-9.242,2.264-43.595,3.696-57.828,2.956,17.067,6.674,52.771,7.67,57.526,1.656,7.906,12.49,98.44,12.49,98.44l21.813-2.223s-3.88-87.289-4.343-101.973c-2.12-67.336-3.805-95.674-3.805-95.674l-24.814,4.285-40.562-2.417s-3.423,37.822-2.016,59.895Z" style="fill: rgb(255, 255, 255); opacity: 0.3; transform-origin: 251.575px 346.958px 0px;" class="animable"></path></g><g id="elhy78px66mo"><path d="M258.393,371.28s10.067,.956,19.537-1.175c9.471-2.131,8.24-2.291,8.24-2.291l-.199-4.748-28.403,3.132,.825,5.082Z" style="opacity: 0.3; transform-origin: 271.895px 367.28px 0px;" class="animable"></path></g><g id="el3jmutkfcgqv"><path d="M214.759,367.814s17.184,4.941,27.511,3.024l.28-3.97-27.862-3.086,.071,4.032Z" style="opacity: 0.3; transform-origin: 228.619px 367.531px 0px;" class="animable"></path></g></g><g id="elusy2o1qmsln" style="transform-origin: 178.979px 94.7591px 0px;" class="animable"><path d="M184.585,91.783s2.891-7.751,1.934-9.257c-.958-1.506-2.35-2.139-2.35-2.139,0,0-.291-3.732-2.229-4.286-1.644-.471-1.992,1.628-1.992,1.628,0,0-3.119-1.575-3.623,.702,0,0-2.456-1.01-3.332,1.568,0,0-2.305,.635-2.344,2.577-.039,1.942,1.706,9.289,3.891,12.448,.661,.957,1.277,1.28,2.482,1.308,0,0,.199,16.811-.264,17.154l10.551-7.82-2.724-13.882Z" style="fill: rgb(191, 94, 96); transform-origin: 178.979px 94.7591px 0px;" id="el0to9qyac94k" class="animable"></path><g id="elqpaf3ghs56a" style="transform-origin: 180.553px 84.8132px 0px;" class="animable"><path d="M183.882,80.475c-1.275-.33-2.587-.485-3.862-.815-.47-.122-1.535-.547-1.984-.363-.736,.302-.933,.772-.751,1.547,.337,1.436,2.58,2.739,4.055,2.771-.784,.833-1.783,2.433-2.06,3.543-.277,1.11-.087,2.382,.696,3.216" style="fill: rgb(191, 94, 96); transform-origin: 180.552px 84.8127px 0px;" id="elu9e25m8ybs" class="animable"></path><path d="M179.975,90.624c-.066,0-.133-.026-.182-.079-.788-.839-1.078-2.161-.756-3.448,.255-1.021,1.069-2.389,1.798-3.283-1.544-.267-3.471-1.54-3.793-2.913-.214-.912,.072-1.496,.899-1.836,.401-.163,1.041,.012,1.772,.242,.143,.044,.271,.084,.37,.11,.63,.164,1.285,.286,1.917,.405,.639,.12,1.3,.244,1.945,.411,.134,.035,.214,.171,.18,.305s-.169,.215-.305,.18c-.628-.163-1.281-.285-1.912-.403-.641-.121-1.303-.245-1.95-.412-.106-.028-.242-.07-.395-.118-.437-.137-1.167-.365-1.433-.256-.604,.249-.762,.578-.603,1.259,.303,1.292,2.407,2.547,3.817,2.578,.099,.002,.187,.062,.225,.153,.038,.091,.019,.196-.048,.268-.751,.799-1.734,2.368-2,3.432-.281,1.124-.038,2.268,.635,2.985,.095,.101,.09,.259-.011,.353-.048,.045-.109,.068-.171,.068Z" style="fill: rgb(167, 65, 69); transform-origin: 180.553px 84.8132px 0px;" id="el11txlx2u6td" class="animable"></path></g><g id="el93d1sbckdno" style="transform-origin: 174.51px 83.8581px 0px;" class="animable"><path d="M171.406,84.441c.084,.423,.17,.854,.381,1.23,.21,.376,.569,.696,.997,.747,.683,.081,1.265-.532,1.511-1.175,.34-.888,.259-1.926-.213-2.751,.221,.695,.594,1.362,1.173,1.805,.579,.443,1.386,.626,2.059,.346,.673-.28,.046-2.657-.175-3.352" style="fill: rgb(191, 94, 96); transform-origin: 174.511px 83.8581px 0px;" id="elo25w9oopgun" class="animable"></path><path d="M172.907,86.675c-.05,0-.101-.003-.152-.009-.468-.055-.911-.381-1.186-.873-.232-.416-.326-.888-.408-1.304-.027-.135,.061-.267,.197-.293,.132-.028,.267,.061,.293,.197,.079,.398,.16,.81,.354,1.157,.197,.352,.499,.583,.808,.621,.542,.054,1.036-.463,1.249-1.017,.223-.583,.251-1.229,.093-1.829-.121-.233-.225-.486-.311-.757-.039-.122,.021-.253,.138-.305,.119-.05,.254-.005,.317,.105,.14,.244,.248,.503,.323,.772,.213,.398,.478,.724,.785,.958,.549,.42,1.26,.543,1.812,.314,.295-.123,.141-1.603-.317-3.045-.042-.131,.031-.272,.163-.314,.133-.042,.272,.031,.314,.163,.172,.542,.982,3.264,.032,3.658-.712,.298-1.618,.148-2.307-.378-.123-.094-.24-.2-.351-.316-.009,.392-.083,.783-.225,1.152-.255,.667-.862,1.343-1.622,1.343Z" style="fill: rgb(167, 65, 69); transform-origin: 174.51px 83.8581px 0px;" id="elpp8ydb08s2f" class="animable"></path></g></g><g id="elra4xgobo2zd" style="transform-origin: 192.656px 144.96px 0px;" class="animable"><path d="M187.075,96.417c-.593,1.138,6.104,39.094,6.104,39.094l21.119,18.088,9.043,.107c4.725,2.584-8.199,39.796-9.706,39.796s-38.73-36.927-44.452-44.711c-4.539-6.176-8.245-45.955-8.245-45.955l26.137-6.418Z" style="fill: rgb(38, 50, 56); transform-origin: 192.656px 144.96px 0px;" id="eli9r8om608fe" class="animable"></path><g id="eljb14ssrxhr"><polygon points="212.738 192.918 213.128 186.672 211.075 167.431 206.786 187.542 212.738 192.918" style="opacity: 0.3; transform-origin: 209.957px 180.175px 0px;" class="animable"></polygon></g></g><g id="elv3gx13xhywl" style="transform-origin: 258.226px 124.604px 0px;" class="animable"><g id="el34k5xcq5i7t" style="transform-origin: 258.226px 101.412px 0px;" class="animable"><polygon points="227.438 92.56 227.979 91.063 262.094 87.509 289.014 113.138 288.472 114.635 227.438 92.56" style="fill: rgb(0, 255, 136); transform-origin: 258.226px 101.072px 0px;" id="elko15xwrug9" class="animable"></polygon><path d="M227.438,92.56s27.643,22.908,27.886,22.754,33.149-.678,33.149-.678l-26.775-25.741-34.26,3.665Z" style="fill: rgb(0, 255, 136); transform-origin: 257.956px 102.105px 0px;" id="eliqjx6xfmnm" class="animable"></path><g id="el3mc3s8z83b9"><path d="M227.438,92.56s27.643,22.908,27.886,22.754,33.149-.678,33.149-.678l-26.775-25.741-34.26,3.665Z" style="opacity: 0.4; transform-origin: 257.956px 102.105px 0px;" class="animable"></path></g><path d="M232.813,103.668l-.715-.227c.362-1.142,.711-2.53,1.08-4,1.087-4.332,2.319-9.241,4.599-10.405,.34-.174,.736-.176,1.085-.006,.36,.174,.621,.511,.698,.901l-.735,.146c-.032-.161-.141-.301-.29-.373-.081-.039-.241-.09-.417,0-1.977,1.009-3.216,5.949-4.212,9.919-.372,1.481-.723,2.88-1.092,4.044Z" style="fill: rgb(38, 50, 56); transform-origin: 235.829px 96.286px 0px;" id="elie5p34jy2u" class="animable"></path><path d="M233.158,104.517c-.232,.447-.782,.621-1.229,.389-.447-.232-.621-.782-.389-1.229,.232-.447,.782-.621,1.229-.389,.447,.232,.621,.782,.389,1.229Z" style="fill: rgb(38, 50, 56); transform-origin: 232.349px 104.097px 0px;" id="el2hwexl0t68r" class="animable"></path><path d="M232.14,104.162c-1.065,.487-1.635,1.643-2.048,2.738-.413,1.096-.791,2.279-1.688,3.032-.261,.22-.571,.408-.723,.713-.152,.306-.033,.776,.306,.82,.658-.472,1.219-1.078,1.639-1.77-.302,1.053-.718,2.074-1.237,3.039,.428,.304,1.488,.681,1.994,.822,.506,.141,.479,.016,.859-.347,.211-.202,.337-.476,.449-.746,1.096-2.634,1.414-5.587,.904-8.395" style="fill: rgb(38, 50, 56); transform-origin: 230.224px 108.84px 0px;" id="elldt0k8oh37" class="animable"></path><g id="el5ujvcj8thrb"><polygon points="276.708 114.939 273.727 108.868 271.499 115.006 276.708 114.939" style="opacity: 0.3; transform-origin: 274.104px 111.937px 0px;" class="animable"></polygon></g></g><g id="elzrd80xgbt0d" style="transform-origin: 252.36px 131.767px 0px;" class="animable"><path d="M256.63,157.256s-6.616,4.26-8.219,4.439c-2.155,.24-11.349-8.545-11.349-8.545,5.589-1.794,5.736-9.679,5.67-13.59l18.468-8.712s0,.013-.015,.052c-.599,1.318-7.677,10.6-6.878,17.718l2.323,8.639Z" style="fill: rgb(191, 94, 96); transform-origin: 249.131px 146.274px 0px;" id="elyzb2e2mq0lk" class="animable"></path><g id="elts0z9eiw4wh" style="transform-origin: 250.369px 125.507px 0px;" class="animable"><g id="elq7ee0whul5"><g style="opacity: 0.2; transform-origin: 247.471px 143.878px 0px;" class="animable"><path d="M251.117,144.986c-2.282,2.005-6.016,2.81-9.182,2.459,.083-.275,.181-.697,.251-.972,.112-.433,.204-1.145,.29-1.605,.101-.564,.124-1.145,.172-1.736,.004-.237,.037-.197,.041-.434l.007-.487,9.994-1.979c.701,.669,.268,3.123-1.573,4.754Z" id="el59426unb8qv" style="transform-origin: 247.471px 143.878px 0px;" class="animable"></path></g></g><path d="M266.198,123.104c3.652-9.964-4.015-20.601-14.992-19.542-11.141,1.075-17.022,15.729-17.563,25.499-.601,10.855,10.541,19.241,20.591,13.705,6.681-3.68,8.312-9.698,11.964-19.662h0Z" style="fill: rgb(191, 94, 96); transform-origin: 250.369px 124.005px 0px;" id="elkpbxb1fkhmp" class="animable"></path></g><path d="M251.786,122.792c-.236,1.058-.988,1.784-1.679,1.623-.691-.161-1.06-1.15-.823-2.208,.236-1.058,.988-1.785,1.679-1.623,.691,.161,1.06,1.15,.823,2.208Z" style="fill: rgb(38, 50, 56); transform-origin: 250.535px 122.499px 0px;" id="el7nbh3u42jxr" class="animable"></path><path d="M241.248,121.395c-.236,1.058-.988,1.785-1.679,1.623-.691-.162-1.06-1.15-.824-2.208,.236-1.058,.988-1.785,1.679-1.623,.691,.162,1.06,1.15,.823,2.208Z" style="fill: rgb(38, 50, 56); transform-origin: 239.996px 121.102px 0px;" id="elspvyvr8ws1f" class="animable"></path><path d="M244.008,120.454s-4.524,4.508-6.075,6.409c1.175,1.659,3.849,1.613,3.849,1.613l2.226-8.022Z" style="fill: rgb(167, 65, 69); transform-origin: 240.97px 124.465px 0px;" id="elzbacvl36og" class="animable"></path><path d="M254.534,118.42c-.174,.03-.36-.033-.481-.181-1.411-1.714-3.142-1.597-3.324-1.581-.278,.029-.53-.173-.562-.451-.031-.278,.17-.527,.447-.556,.098-.011,2.431-.227,4.221,1.951,.179,.217,.149,.536-.067,.712-.07,.057-.15,.092-.234,.106Z" style="fill: rgb(38, 50, 56); transform-origin: 252.558px 117.034px 0px;" id="el3np4m7ij185" class="animable"></path><path d="M237.978,116.115c-.087-.041-.165-.106-.219-.195-.148-.239-.076-.553,.161-.701,2.374-1.482,4.485-.491,4.586-.458,.253,.12,.363,.424,.245,.678-.117,.254-.415,.363-.667,.246-.086-.045-1.723-.788-3.628,.402-.149,.093-.328,.098-.477,.029Z" style="fill: rgb(38, 50, 56); transform-origin: 240.24px 115.285px 0px;" id="el49143x5sr3l" class="animable"></path><path d="M249.173,131.735c.761-2.731-7.33,.669-7.33,.669,0,0,.41,3.214,3.349,3.342,3.554,.155,3.981-4.011,3.981-4.011Z" style="fill: rgb(255, 255, 255); transform-origin: 245.533px 133.212px 0px;" id="elk6tsn2ex2qa" class="animable"></path><path d="M260.928,127.918s5.117-17.297,.146-19.992c-4.971-2.695-7.69,1.852-11.161,.631-3.471-1.221-2.421-3.731-2.421-3.731-2.553,.636-5.503,4.179-8.135,6.775,0,0,4.343-7.444,9.076-8.81,9.212-2.659,18.722,.803,21.571,6.723,2.798,5.815-.641,14.668-.641,14.668-3.124,6.606-5.129,10.215-9.478,13.526l1.043-9.79Z" style="fill: rgb(38, 50, 56); transform-origin: 255.229px 119.795px 0px;" id="elcwehyh8m5sg" class="animable"></path><g id="el0drzfn45svum" style="transform-origin: 263.555px 129.721px 0px;" class="animable"><path d="M268.075,130.948c-1.473,2.568-3.998,4.203-6.36,4.784-3.553,.874-3.964-2.889-2.907-6.198,.952-2.978,2.666-6.482,6.199-5.885,3.48,.589,4.752,4.363,3.068,7.299Z" style="fill: rgb(191, 94, 96); transform-origin: 263.555px 129.721px 0px;" id="el02j3kbubg9h9" class="animable"></path><g id="eliggrp83780b"><path d="M260.679,129.805c-.027,0-.055-.004-.081-.014-.131-.045-.2-.188-.155-.318,.325-.942,.895-1.786,1.646-2.442,.507-.442,1.315-.974,2.288-.995,.958-.01,1.835,.518,2.145,1.31,.051,.129-.013,.274-.142,.324-.125,.049-.273-.013-.323-.142-.228-.58-.908-.993-1.629-.993h-.04c-.822,.018-1.525,.484-1.971,.872-.687,.598-1.205,1.369-1.502,2.228-.036,.104-.133,.168-.236,.168Z" style="opacity: 0.2; transform-origin: 263.484px 127.92px 0px;" class="animable"></path></g></g><path d="M264.604,112.433c.131-2.241-.441-4.624-2.026-6.214-.749-.752-1.683-1.291-2.634-1.762-2.529-1.253-.449-1.445-3.149-2.267l-2.684-.356c-2.15,.006-6.349,.607-8.413,1.207-3.278,.952-6.87,5.194-7.291,5.47-.483,.317-2.083,.056-2.651,.16-1.816,.332,.353,2.915,2.883,3.163,2.835,.278,4.007-.893,5.87-2.202-1.435,1.686-3.876,2.101-2.53,2.802,3.412,.645,7.587,1.908,11.736-.358-.229,.568-.461,1.156-.442,1.768,.019,.612,.358,1.258,.942,1.439,.473,.146,.984-.036,1.417-.275,1.525-.84,2.553-2.34,3.523-3.785,1.071,2.666,.945,11.023,2.413,13.492,5.534-3.404,2.905-10.042,3.037-12.283Z" style="fill: rgb(38, 50, 56); transform-origin: 250.1px 113.275px 0px;" id="el7o6mhh8g4w" class="animable"></path></g><g id="elulv39xxx2o" style="transform-origin: 256.062px 106.856px 0px;" class="animable"><path d="M238.406,108.512c-.225,.275,2.844-9.701,2.844-9.701,0,0,.782-6.648,16.601-2.914,0,0,17.828,5.287,15.703,14.417l-2.591,8.64s-21.321-24.193-32.557-10.442Z" style="fill: rgb(0, 255, 136); transform-origin: 256.062px 106.856px 0px;" id="el9wugley1zy6" class="animable"></path><g id="elnwreoakz7hd"><path d="M238.406,108.512c-.225,.275,2.844-9.701,2.844-9.701,0,0,.782-6.648,16.601-2.914,0,0,17.828,5.287,15.703,14.417l-2.591,8.64s-21.321-24.193-32.557-10.442Z" style="opacity: 0.2; transform-origin: 256.062px 106.856px 0px;" class="animable"></path></g></g><path d="M271.828,116.072s-9.779-13.32-23.909-14.033c0,0-7.35-.397-8.914,4.212l-.599,2.262s2.806-5.576,11.602-3.804c8.796,1.773,20.955,14.245,20.955,14.245l.864-2.882Z" style="fill: rgb(0, 255, 136); transform-origin: 255.117px 110.492px 0px;" id="ellkv9j6v2vi" class="animable"></path></g><g id="elata3xsugf6o" style="transform-origin: 249.842px 258.032px 0px;" class="animable"><g id="elrigebna4ytg" style="transform-origin: 248.404px 165.896px 0px;" class="animable"><polygon points="233.568 154.89 236.197 154.233 240.674 148.251 247.771 153.377 254.259 149.535 257.178 153.706 263.24 154.218 247.897 183.541 233.568 154.89" style="fill: rgb(0, 255, 136); transform-origin: 248.404px 165.896px 0px;" id="elceq2tqx1ct9" class="animable"></polygon><g id="elcdkuhp44v5i"><polygon points="233.568 154.89 236.197 154.233 240.674 148.251 247.771 153.377 254.259 149.535 257.178 153.706 263.24 154.218 247.897 183.541 233.568 154.89" style="fill: rgb(255, 255, 255); opacity: 0.8; transform-origin: 248.404px 165.896px 0px;" class="animable"></polygon></g><g id="el6uvqeknn5go"><path d="M236.197,154.233l6.96,6.04,4.613-6.486,4.324,5.618,5.083-5.699s-4.981,7.041-5.134,6.983c-.153-.058-4.273-6.135-4.273-6.135l-4.664,7.099-6.909-7.419Z" style="opacity: 0.2; transform-origin: 246.687px 157.679px 0px;" class="animable"></path></g><polygon points="244.276 158.7 246.135 162.04 249.643 162.04 251.35 158.438 248.674 154.96 246.904 155.027 244.276 158.7" style="fill: rgb(0, 255, 136); transform-origin: 247.813px 158.5px 0px;" id="ely9u07jvondf" class="animable"></polygon><polygon points="246.135 162.04 244.276 171.249 249.41 179.139 252.655 171.26 249.643 162.04 246.135 162.04" style="fill: rgb(0, 255, 136); transform-origin: 248.466px 170.59px 0px;" id="el6222b3hx8d6" class="animable"></polygon></g><path d="M222.151,153.706l11.768,.569,15.492,24.864,10.522-25.553,24.14,5.301-3.519,51.541,16.94,148.506s-23.552,10.561-46.886,8.648c-23.334-1.913-48.418-5.436-48.418-5.436l10.937-175.475,9.023-32.966Z" style="fill: rgb(38, 50, 56); transform-origin: 249.842px 260.7px 0px;" id="eljagwq1q6f8q" class="animable"></path><path d="M210.499,162.04c.75,6.133,2.127,18.474,2.796,24.614l-.169-.15c15.209-.078,47.75-.828,62.183-.464,.698-6.389,2.231-19.25,3.006-25.63-.645,6.405-1.962,19.272-2.676,25.667-15.278,.653-46.97,.543-62.509,.764h-.154l-.016-.151c-.638-6.137-1.897-18.505-2.461-24.65h0Z" id="elmzfq6uol3jd" style="transform-origin: 244.407px 173.625px 0px;" class="animable"></path><path d="M231.592,187.014c.34,2.135,.343,4.278,0,6.413-.343-2.135-.34-4.278,0-6.413h0Z" id="el2rp3wdqu485" style="transform-origin: 231.592px 190.221px 0px;" class="animable"></path><path d="M236.616,186.786c1.134,21.879,2.025,45.963,2.503,67.866-1.137-21.883-2.022-45.959-2.503-67.866h0Z" id="el2tfk8yr1bvp" style="transform-origin: 237.868px 220.719px 0px;" class="animable"></path><path d="M254.933,185.925c.327,16.272,.33,34.174,0,50.446-.33-16.272-.327-34.174,0-50.446h0Z" id="eluiijkld56en" style="transform-origin: 254.933px 211.148px 0px;" class="animable"></path><path d="M259.956,185.697c.947,10.241,1.634,21.534,1.925,31.815-.95-10.241-1.631-21.534-1.925-31.815h0Z" id="eljk4mbb04at" style="transform-origin: 260.919px 201.605px 0px;" class="animable"></path><g id="elwp8296dpr7t"><g style="opacity: 0.3; transform-origin: 248.735px 334.063px 0px;" class="animable"><path d="M245.864,359.668c-4.522-11.201-6.738-39.224-6.745-51.724,2.766,12.857,10.724,40.989,19.231,51.173-4.034,1.199-8.363,1.39-12.486,.551" id="elyhb4wua0w1" style="transform-origin: 248.735px 334.063px 0px;" class="animable"></path></g></g></g><g id="elnoroaeskkz" style="transform-origin: 303.778px 193.395px 0px;" class="animable"><g id="elzbey4q6nqa" style="transform-origin: 321.179px 177.59px 0px;" class="animable"><path d="M315.91,186.955s-.321-8.243,1.056-9.37c1.377-1.127,2.893-1.293,2.893-1.293,0,0,1.44-3.443,3.448-3.365,1.704,.067,1.379,2.163,1.379,2.163,0,0,3.445-.518,3.212,1.795,0,0,2.641-.19,2.666,2.524,0,0,1.985,1.32,1.416,3.171-.569,1.851-4.513,8.265-7.568,10.576-.925,.7-1.609,.814-2.759,.465,0,0-4.488,13.657-7.392,13.657l-3.037-14.783,4.685-5.541Z" style="fill: rgb(191, 94, 96); transform-origin: 321.653px 190.102px 0px;" id="elg0pqvxzian5" class="animable"></path><g id="el917ixb48qqg" style="transform-origin: 320.103px 170.306px 0px;" class="animable"><path d="M321.839,169.559c2.188-.581,4.174-1.894,5.566-3.679,.482-.618,.913-1.398,.703-2.154-.165-.593-.688-1.013-1.219-1.326-.808-.477-1.705-.805-2.63-.961-.778-.131-1.656-.115-2.257,.396-.639,.543-.768,1.463-.855,2.297-.124,1.199-.248,2.397-.372,3.596-.029,.284-.057,.578,.037,.847s.348,.505,.632,.48c.472-.04,.609-.656,.64-1.129,.071-1.081,.262-2.194,.869-3.092s1.716-1.526,2.774-1.29c.29,.065,.61,.256,.61,.553,0,.2-.148,.364-.287,.508-1.531,1.581-3.061,3.162-4.592,4.743" style="fill: rgb(0, 255, 136); transform-origin: 324.455px 165.464px 0px;" id="eld3teo55btvc" class="animable"></path><g id="elu2b898g81i8" style="transform-origin: 320.698px 170.306px 0px;" class="animable"><path d="M315.781,147.936l14.149,43.222-4.567,1.553-13.898-43.545s1.169-1.51,4.317-1.23Z" style="fill: rgb(0, 255, 136); transform-origin: 320.698px 170.306px 0px;" id="elgni09kpssf" class="animable"></path><g id="eln14inmk11c"><path d="M315.781,147.936l14.149,43.222-4.567,1.553-13.898-43.545s1.169-1.51,4.317-1.23Z" style="fill: rgb(255, 255, 255); opacity: 0.8; transform-origin: 320.698px 170.306px 0px;" class="animable"></path></g><path d="M322.863,169.568s-1.185,3.126-4.203,2.139l-1.127-3.53s3.784-.19,4.107-2.343l1.222,3.734Z" style="fill: rgb(0, 255, 136); transform-origin: 320.198px 168.867px 0px;" id="elyii9nllzb7" class="animable"></path></g><path d="M319.068,169.46c-1.861-1.288-4.149-1.948-6.41-1.851-.784,.034-1.656,.212-2.095,.862-.344,.511-.325,1.181-.219,1.788,.161,.925,.493,1.819,.975,2.625,.405,.677,.986,1.335,1.765,1.461,.828,.134,1.612-.364,2.303-.84,.993-.683,1.986-1.366,2.979-2.049,.235-.162,.477-.331,.621-.577,.144-.246,.158-.592-.044-.793-.337-.333-.894-.038-1.274,.245-.869,.647-1.84,1.224-2.917,1.344-1.077,.121-2.275-.316-2.78-1.275-.139-.263-.201-.63,.025-.823,.152-.129,.374-.123,.573-.111,2.196,.14,4.392,.279,6.588,.419" style="fill: rgb(0, 255, 136); transform-origin: 314.717px 170.983px 0px;" id="eltdzdbtiz40c" class="animable"></path></g><g id="el3fwlwr73qye" style="transform-origin: 323.307px 181.764px 0px;" class="animable"><path d="M320.103,176.464c1.311,.085,2.601,.348,3.912,.433,.483,.031,1.625-.039,1.992,.275,.603,.516,.643,1.022,.229,1.7-.767,1.255-3.298,1.789-4.704,1.36,.482,1.034,.93,2.86,.846,3.998-.084,1.138-.661,2.283-1.662,2.829" style="fill: rgb(191, 94, 96); transform-origin: 323.306px 181.762px 0px;" id="el1ae2n0y03kb" class="animable"></path><path d="M320.716,187.309c-.088,0-.174-.047-.22-.13-.065-.121-.021-.273,.1-.339,.861-.469,1.449-1.477,1.533-2.628,.08-1.09-.361-2.883-.823-3.874-.042-.09-.027-.195,.038-.27,.064-.075,.166-.104,.262-.075,1.342,.411,3.728-.122,4.418-1.251,.363-.595,.316-.956-.179-1.379-.218-.187-.98-.197-1.436-.204-.159-.002-.301-.004-.411-.011-.663-.043-1.329-.132-1.972-.218-.636-.084-1.292-.172-1.939-.214-.138-.009-.242-.128-.232-.266,.009-.137,.106-.239,.266-.233,.663,.043,1.329,.132,1.972,.218,.636,.084,1.292,.172,1.939,.214,.103,.007,.235,.008,.385,.011,.765,.011,1.425,.042,1.754,.324,.679,.581,.768,1.223,.279,2.02-.732,1.201-2.946,1.806-4.5,1.577,.411,1.073,.755,2.622,.678,3.669-.096,1.319-.782,2.48-1.791,3.031-.038,.021-.079,.03-.12,.03Z" style="fill: rgb(167, 65, 69); transform-origin: 323.307px 181.764px 0px;" id="elwiovczya5b" class="animable"></path></g><g id="elq5nhxx86xzf" style="transform-origin: 327.788px 182.457px 0px;" class="animable"><path d="M330.683,184.112c-.211,.374-.428,.756-.745,1.046-.317,.291-.756,.481-1.177,.396-.672-.136-1.032-.899-1.065-1.584-.045-.947,.355-1.905,1.059-2.539-.426,.589-.988,1.105-1.674,1.344-.687,.239-1.508,.161-2.058-.314-.55-.475,.785-2.531,1.211-3.12" style="fill: rgb(191, 94, 96); transform-origin: 327.788px 182.458px 0px;" id="elpnn01bor2br" class="animable"></path><path d="M328.965,185.824c-.086,0-.171-.008-.254-.025-.817-.167-1.229-1.059-1.265-1.817-.019-.394,.033-.787,.146-1.161-.141,.076-.284,.139-.43,.189-.812,.284-1.72,.144-2.303-.361-.758-.653,.705-2.81,1.171-3.456,.083-.111,.239-.137,.35-.056,.112,.081,.137,.237,.057,.349-.884,1.223-1.492,2.576-1.251,2.784,.451,.39,1.162,.493,1.812,.268,.364-.127,.717-.352,1.043-.663,.155-.23,.338-.443,.547-.631,.094-.085,.238-.085,.334,0,.095,.085,.11,.229,.035,.333-.166,.229-.344,.437-.53,.62-.337,.519-.512,1.139-.481,1.761,.027,.589,.333,1.243,.864,1.351,.302,.064,.663-.063,.959-.335,.292-.269,.497-.633,.695-.985,.068-.121,.22-.164,.341-.095,.12,.068,.162,.22,.095,.34-.207,.368-.442,.786-.793,1.108-.339,.311-.751,.482-1.143,.482Z" style="fill: rgb(167, 65, 69); transform-origin: 327.788px 182.457px 0px;" id="elhdohs87096u" class="animable"></path></g></g><path d="M283.619,158.731s1.807,.039,3.47,1.563c1.663,1.524,18.567,37.966,18.567,37.966l7.975-9.921,15.442,36.802s-11.224,12.609-23.694,13.718c-12.47,1.108-25.21-29.316-25.21-29.316l-4.695-23.485,8.145-27.327Z" style="fill: rgb(38, 50, 56); transform-origin: 302.273px 198.81px 0px;" id="elehrnnvv2npb" class="animable"></path><path d="M305.566,198.366c-2.269,7.186-3.183,14.848-2.386,22.353-1.483-7.417-.53-15.393,2.386-22.353h0Z" id="el46rv0fcb5la" style="transform-origin: 304.027px 209.543px 0px;" class="animable"></path><g id="eltgmfyar7fok"><path d="M277.527,186.672c.17,.829,3.027,23.756,3.027,23.756,0,0-.339-23.097-1.513-30.227l-1.513,6.47Z" style="opacity: 0.3; transform-origin: 279.041px 195.314px 0px;" class="animable"></path></g></g><g id="el254kbmnbl1m" style="transform-origin: 233.127px 226.264px 0px;" class="animable"><path d="M220.906,153.706s-6.769,115.45,3.47,146.444c0,0,.569-6.396,13.537-9.728,5.724-1.471,9.629,.505,9.629,.505,0,0-14.415-41.015-15.949-65.798-1.28-20.688,.655-71.423,.655-71.423,0,0-4.423-2.989-11.342,0Z" style="fill: rgb(0, 255, 136); transform-origin: 233.127px 226.264px 0px;" id="elb8ffan9lca5" class="animable"></path><g id="ely8wrkz4hiek"><path d="M245.845,285.902c.023,.072-4.306-2.019-12.343,.633-8.032,2.65-10.68,7.674-10.684,7.68,.469,2.217,.986,4.208,1.557,5.935,0,0,.569-6.396,13.537-9.728,5.724-1.471,9.629,.505,9.629,.505,0,0-.653-1.86-1.694-5.018l-.002-.006Z" style="fill: rgb(255, 255, 255); opacity: 0.3; transform-origin: 235.18px 292.668px 0px;" class="animable"></path></g><g id="el8lb36rmqxfg"><g style="opacity: 0.3; transform-origin: 227.975px 253.131px 0px;" class="animable"><path d="M222.249,225.37c-.862,19.085,3.155,38.37,11.567,55.522-9.45-20.709-7.447-38.089-11.567-55.522" id="elaxbla5eetuu" style="transform-origin: 227.975px 253.131px 0px;" class="animable"></path></g></g></g><g id="eldz00el6eleu" style="transform-origin: 277.234px 221.568px 0px;" class="animable"><path d="M263.215,153.825s-6.017,115.965,7.51,135.605c0,0-.435-4.322,10.654-3.078,11.484,1.288,9.986-1.761,11.128-4.025,1.351-2.679-15.28-46.732-17.266-69.609-2.032-23.413-1.472-56.334-1.472-56.334,0,0-1.369-3.344-10.554-2.559Z" style="fill: rgb(0, 255, 136); transform-origin: 277.233px 221.568px 0px;" id="eluohd1uco2bl" class="animable"></path><g id="elhs5jrbx8w4"><path d="M292.508,282.327c.215-.426-.026-1.899-.588-4.163-7.238,5.55-5.008,.942-18.074,2.212-2.775,.27-4.828,.786-6.351,1.438,.928,3.231,1.998,5.825,3.231,7.616,0,0-.435-4.322,10.654-3.078,11.484,1.288,9.986-1.761,11.128-4.025Z" style="fill: rgb(255, 255, 255); opacity: 0.3; transform-origin: 280.04px 283.797px 0px;" class="animable"></path></g><g id="elmptq74ezmd"><path d="M270.28,224.151l11.662,22.946s-10.639-25.673-12.721-37.005c-2.082-11.333-3.701-17.325-3.701-17.325l1.728,20.712c.31,3.72,1.34,7.345,3.031,10.673Z" style="opacity: 0.3; transform-origin: 273.731px 219.932px 0px;" class="animable"></path></g></g><path d="M286.567,106.968c-.093,0-.187-.035-.259-.104l-12.299-11.749c-.15-.143-.155-.38-.013-.53,.145-.149,.381-.155,.53-.012l12.299,11.749c.15,.143,.155,.38,.013,.53-.074,.077-.173,.116-.271,.116Z" style="fill: rgb(0, 255, 136); transform-origin: 280.417px 100.719px 0px;" id="el0wiems1dc9lg" class="animable"></path><path d="M272.905,93.91c-.094,0-.187-.035-.26-.104l-1.66-1.593c-.149-.143-.154-.381-.011-.53,.143-.15,.379-.154,.53-.011l1.66,1.593c.149,.143,.154,.381,.011,.53-.073,.077-.172,.115-.271,.115Z" style="fill: rgb(0, 255, 136); transform-origin: 272.075px 92.7388px 0px;" id="el5lkimah9ohl" class="animable"></path></g><g id="elfx03pdrgunl"><path d="M260.634,299.291s22.052,40.757,23.295,42.081c1.242,1.324,8.657,8.266,8.657,8.266,0,0-24.813-43.772-31.952-50.347Z" style="opacity: 0.3; transform-origin: 276.61px 324.464px 0px;" class="animable"></path></g></g><defs>     <filter id="active" height="200%">         <feMorphology in="SourceAlpha" result="DILATED" operator="dilate" radius="2"></feMorphology>                <feFlood flood-color="#32DFEC" flood-opacity="1" result="PINK"></feFlood>        <feComposite in="PINK" in2="DILATED" operator="in" result="OUTLINE"></feComposite>        <feMerge>            <feMergeNode in="OUTLINE"></feMergeNode>            <feMergeNode in="SourceGraphic"></feMergeNode>        </feMerge>    </filter>    <filter id="hover" height="200%">        <feMorphology in="SourceAlpha" result="DILATED" operator="dilate" radius="2"></feMorphology>                <feFlood flood-color="#ff0000" flood-opacity="0.5" result="PINK"></feFlood>        <feComposite in="PINK" in2="DILATED" operator="in" result="OUTLINE"></feComposite>        <feMerge>            <feMergeNode in="OUTLINE"></feMergeNode>            <feMergeNode in="SourceGraphic"></feMergeNode>        </feMerge>            <feColorMatrix type="matrix" values="0   0   0   0   0                0   1   0   0   0                0   0   0   0   0                0   0   0   1   0 "></feColorMatrix>    </filter></defs></svg>