<svg class="animated" id="freepik_stories-graduation-hats" xmlns="http://www.w3.org/2000/svg" viewBox="0 0 500 500" version="1.1" xmlns:xlink="http://www.w3.org/1999/xlink" xmlns:svgjs="http://svgjs.com/svgjs"><style>svg#freepik_stories-graduation-hats:not(.animated) .animable {opacity: 0;}svg#freepik_stories-graduation-hats.animated #freepik--background-simple--inject-354 {animation: 1s 1 forwards cubic-bezier(.36,-0.01,.5,1.38) fadeIn;animation-delay: 0s;}            @keyframes fadeIn {                0% {                    opacity: 0;                }                100% {                    opacity: 1;                }            }        .animator-hidden { display: none; }</style><g id="freepik--background-simple--inject-354" style="transform-origin: 247.064px 242.058px 0px;" class="animable animator-active animator-hidden"><path d="M461.65,371.33c27.81-60.47,29.68-141,10.48-205.64a214.78,214.78,0,0,0-95.79-123.3c-49.3-29.3-108.06-38-160.95-19.53-13.92,4.87-27.47,9.32-40.59,17.32C121,72.94,131.4,153.68,112.53,181.76c-15.88,23.63-46.24,16.67-65.37,34.77C-4.49,265.39-4.62,388.89,55,427.5,118.19,468.46,392.77,521.11,461.65,371.33Z" style="fill: #00FF88; transform-origin: 247.064px 242.058px 0px;" id="elv97bi81z4qp" class="animable"></path><g id="elqjkqatzzta"><path d="M461.65,371.33c27.81-60.47,29.68-141,10.48-205.64a214.78,214.78,0,0,0-95.79-123.3c-49.3-29.3-108.06-38-160.95-19.53-13.92,4.87-27.47,9.32-40.59,17.32C121,72.94,131.4,153.68,112.53,181.76c-15.88,23.63-46.24,16.67-65.37,34.77C-4.49,265.39-4.62,388.89,55,427.5,118.19,468.46,392.77,521.11,461.65,371.33Z" style="fill: rgb(255, 255, 255); opacity: 0.7; transform-origin: 247.064px 242.058px 0px;" class="animable" id="elcgzc1vsbrt"></path></g></g><g id="freepik--Clouds--inject-354" style="transform-origin: 258.47px 242.36px 0px;" class="animable animator-hidden"><path d="M347.43,286.79H480.75s-16-25.27-27.37-26.54c-5.3-.58-8.63,2.1-11.7,4.89A9.9,9.9,0,0,1,426,261.83a150,150,0,0,0-6.8-13.51" style="fill: none; stroke: rgb(38, 50, 56); stroke-linecap: round; stroke-linejoin: round; transform-origin: 414.09px 267.555px 0px;" id="el2hvks13dinm" class="animable"></path><path d="M242,273.09c-5.31-.87-10.64-1.33-13.07-.25-5.7,2.53-16.27,14-16.27,14H341.27" style="fill: none; stroke: rgb(38, 50, 56); stroke-linecap: round; stroke-linejoin: round; transform-origin: 276.965px 279.525px 0px;" id="elnrd6wjeybo" class="animable"></path><path d="M416.25,243.49c-7.64-12-18.32-23.73-31.31-24.93C357.56,216,351.86,248.88,345,252.67s-17.11-21.47-31.94-8.84-13.69,18.95-21.67,16.42-13.19-6.44-22.31,1.14a62,62,0,0,0-8.3,8.32,12.44,12.44,0,0,1-12.26,4.63" style="fill: none; stroke: rgb(38, 50, 56); stroke-linecap: round; stroke-linejoin: round; transform-origin: 332.385px 246.496px 0px;" id="elkn470nc9ttk" class="animable"></path><path d="M147.74,413.13c-3.94-5.08-8.91-9.31-14.68-9.84-15.4-1.42-18.6,17-22.45,19.19s-9.63-12.08-18-5S85,428.16,80.45,426.74s-7.41-3.62-12.54.64a34.62,34.62,0,0,0-4.67,4.68,7,7,0,0,1-6.9,2.6c-3.82-.83-9.06-1.7-11-.84-3.21,1.42-9.15,7.84-9.15,7.84H187s-9-14.21-15.4-14.92-7.7,7.1-13.47,5.68a81.76,81.76,0,0,0-7.71-15.59" style="fill: none; stroke: rgb(38, 50, 56); stroke-linecap: round; stroke-linejoin: round; transform-origin: 111.595px 422.436px 0px;" id="eldaoxp4nwjnf" class="animable"></path><path d="M90.1,81.29H197.87s-9-14.21-15.39-14.92-7.7,7.1-13.48,5.68c0,0-8-22.93-21-28.14" style="fill: none; stroke: rgb(38, 50, 56); stroke-linecap: round; stroke-linejoin: round; transform-origin: 143.985px 62.6px 0px;" id="elmieghskaj8j" class="animable"></path><path d="M139.66,43.06c-11.73,2-14.67,17.13-18.13,19-3.85,2.14-9.62-12.07-18-5s-7.7,10.66-12.19,9.24S84,62.74,78.83,67a34.06,34.06,0,0,0-4.67,4.68,7,7,0,0,1-6.89,2.6c-3.83-.83-9.06-1.71-11-.84-3.2,1.42-9.15,7.84-9.15,7.84H84.29" style="fill: none; stroke: rgb(38, 50, 56); stroke-linecap: round; stroke-linejoin: round; transform-origin: 93.39px 62.17px 0px;" id="elm2t0q61u0am" class="animable"></path></g><g id="freepik--graduation-hat-4--inject-354" style="transform-origin: 345.412px 393.561px 0px;" class="animable"><path d="M342.91,448.05s26.42,13.78,56.28,1.15,28.72-40.78,28.72-40.78Z" style="fill: rgb(38, 50, 56); transform-origin: 385.413px 431.475px 0px;" id="elg73yao88zgn" class="animable"></path><g id="el56ahh1a526i"><path d="M342.91,448.05s26.42,13.78,56.28,1.15,28.72-40.78,28.72-40.78Z" style="fill: rgb(255, 255, 255); opacity: 0.1; transform-origin: 385.413px 431.475px 0px;" class="animable" id="elcaws68daapa"></path></g><polygon points="394.6 310.79 264.23 360.18 331.43 464.13 463.52 395.21 394.6 310.79" style="fill: rgb(38, 50, 56); transform-origin: 363.875px 387.46px 0px;" id="elg7byptt3lsl" class="animable"></polygon><path d="M301,443.91l-1.41-3.84c41.9-15.39,61-60.13,61.24-60.58l3.77,1.58C363.81,383,344.57,427.91,301,443.91Z" style="fill: #00FF88; stroke: rgb(38, 50, 56); stroke-linecap: round; stroke-linejoin: round; stroke-width: 0.5px; transform-origin: 332.095px 411.7px 0px;" id="elbfbkyku0lsp" class="animable"></path><path d="M368.76,380.28c0,2.86-2.7,5.17-6,5.17s-6-2.31-6-5.17,2.7-5.17,6-5.17S368.76,377.43,368.76,380.28Z" style="fill: #00FF88; stroke: rgb(38, 50, 56); stroke-linecap: round; stroke-linejoin: round; transform-origin: 362.76px 380.28px 0px;" id="elitmje9ceqv" class="animable"></path><path d="M299.2,439.49c-22.9,6-34.39,27.93-44.94,26-11.36-2-11.79-4.61-16.18-5.66s-.53.11-1.42.13-.91-.18,0,.19-3.44-.21,1.13.77,4.7,3.69,16.66,5.64c11.16,1.82,22.21-19.85,45-26C300,440.3,299.89,439.92,299.2,439.49Z" style="fill: #00FF88; stroke: rgb(38, 50, 56); stroke-linecap: round; stroke-linejoin: round; stroke-width: 0.5px; transform-origin: 267.73px 453.079px 0px;" id="eltf10e5ngv0b" class="animable"></path><path d="M300,441.2c-38.56,9.94-20.93,35.64-65.76,20.12-.85-.29-.55.13-.77.29s-.13,0-.05.19-.3.37.41.61c44.76,15.31,28.61-9.28,66.44-20.08C300.16,442,300.08,441.58,300,441.2Z" style="fill: #00FF88; stroke: rgb(38, 50, 56); stroke-linecap: round; stroke-linejoin: round; stroke-width: 0.5px; transform-origin: 266.801px 454.248px 0px;" id="elq2cw3qb9ga" class="animable"></path><path d="M300.34,442.73c-34.28,9.18-26.44,33-66.84,19.77-1.05-.34-.51.14-.78.29s-.17-.06-.05.19-.44.31.46.6c46,15,29.29-10.46,67.12-20.69C300.18,442.51,300.45,443.11,300.34,442.73Z" style="fill: #00FF88; stroke: rgb(38, 50, 56); stroke-linecap: round; stroke-linejoin: round; stroke-width: 0.5px; transform-origin: 266.457px 455.464px 0px;" id="eltb7p9o2m4p" class="animable"></path><path d="M300.48,443.29c-33.22,9.94-26.72,33.83-67.63,22.25-1.35-.38-.48.13-.81.27s-.23-.1,0,.17-.67.26.49.59c46.47,13.36,31-12.06,67.87-23.14C300.31,443.06,300.6,443.67,300.48,443.29Z" style="fill: #00FF88; stroke: rgb(38, 50, 56); stroke-linecap: round; stroke-linejoin: round; stroke-width: 0.5px; transform-origin: 266.169px 456.824px 0px;" id="elkkxhxia0mp" class="animable"></path><path d="M300.84,445.32c-.08-.38-.18-.76-.29-1.14-38.28,12-17.67,28.52-69.36,28.58-.88,0-.46.35-.64.51s-.08.07-.06.09c.37.35-.26.58.67.58C283.05,473.88,263.31,456.38,300.84,445.32Z" style="fill: #00FF88; stroke: rgb(38, 50, 56); stroke-linecap: round; stroke-linejoin: round; stroke-width: 0.5px; transform-origin: 265.642px 459.06px 0px;" id="elhjlviy3cvvt" class="animable"></path><path d="M300.46,444.08a2.52,2.52,0,0,0-.23-1.11c-39.11,12.07-17.75,29.28-67.32,25.55-3.78-.28.86.33-1.15.51-.09,0-.72-.16.26.09s-3,.29.95.59C282.44,473.46,262.1,455.75,300.46,444.08Z" style="fill: #00FF88; stroke: rgb(38, 50, 56); stroke-linecap: round; stroke-linejoin: round; stroke-width: 0.5px; transform-origin: 265.822px 456.596px 0px;" id="eld1duvrck5kj" class="animable"></path><path d="M299.26,445c-23.34,13.39-33.43,31.63-60,30.09s1.5.44-6.05.2c-5.52-.18-1.52-.06-1.5-.06,14.43,1.19-21.62-.65,7,1s36.8-16.9,61-30.1C301.45,444.87,301.17,442.92,299.26,445Z" style="fill: #00FF88; stroke: rgb(38, 50, 56); stroke-linecap: round; stroke-linejoin: round; stroke-width: 0.5px; transform-origin: 264.085px 460.21px 0px;" id="elawmzo4k9fxp" class="animable"></path><path d="M299.75,440.26c-35.83,8.58-22.92,35.76-61.15,21.29-.93-.35-.55.1-.79.25s-.15,0-.06.21-.34.32.42.6c39,14.34,26.36-12.08,61.85-21.21C299.94,441,299.85,440.65,299.75,440.26Z" style="fill: #00FF88; stroke: rgb(38, 50, 56); stroke-linecap: round; stroke-linejoin: round; stroke-width: 0.5px; transform-origin: 268.838px 453.525px 0px;" id="eluokk8s0accc" class="animable"></path><polygon points="304.9 436.5 307.25 443.5 301.01 445.93 298.62 438.96 304.9 436.5" style="fill: #00FF88; stroke: rgb(38, 50, 56); stroke-linecap: round; stroke-linejoin: round; stroke-width: 0.5px; transform-origin: 302.935px 441.215px 0px;" id="ellt1nw0f61kr" class="animable"></polygon></g><g id="freepik--graduation-hat-3--inject-354" style="transform-origin: 191.075px 314.912px 0px;" class="animable"><path d="M253.64,257.16c21.56,6,41.43-6.45,49.16.12,8.32,7.08,7.45,9.39,10.54,12.34s.48.16,1.22.57.66.58.11-.14,2.71,1.81-.55-1.17-2.09-5.25-10.94-12.55c-8.26-6.8-27.63,5.65-49.2-.22C253.34,256.11,253.28,256.48,253.64,257.16Z" style="fill: rgb(255, 255, 255); stroke: rgb(38, 50, 56); stroke-miterlimit: 10; transform-origin: 284.505px 262.614px 0px;" id="elwzvyrsseb2" class="animable"></path><path d="M253.82,255.4c36.28,10.24,34.1-19.18,63.38,14.88.55.64.5.16.76.13s.09.09.13-.14.42-.15,0-.69c-29.32-33.85-27.82-6-63.91-15.24C254,254.69,253.92,255,253.82,255.4Z" style="fill: rgb(255, 255, 255); stroke: rgb(38, 50, 56); stroke-miterlimit: 10; transform-origin: 286.053px 261.431px 0px;" id="elm7y9loz8zga" class="animable"></path><path d="M254.25,254c36,9.8,34.14-18,64.08,15.67.7.79.49.14.78.14s.11.13.13-.13.51-.05-.08-.72c-30.46-34.15-28.78-6.37-64.6-16A8.85,8.85,0,0,0,254.25,254Z" style="fill: rgb(255, 255, 255); stroke: rgb(38, 50, 56); stroke-miterlimit: 10; transform-origin: 286.85px 260.701px 0px;" id="eloe97krd28gm" class="animable"></path><path d="M254.4,253.45c35.74,8.63,34.56-18.47,65.92,14,.92.95.45.11.79.16s.14.19.11-.11.67.1-.12-.73c-31.64-33.06-31-5.89-66.38-14.39A6.64,6.64,0,0,0,254.4,253.45Z" style="fill: rgb(255, 255, 255); stroke: rgb(38, 50, 56); stroke-miterlimit: 10; transform-origin: 287.939px 258.887px 0px;" id="elh9jl34feycj" class="animable"></path><path d="M255.24,250.64c-.12.35-.22.7-.31,1.07,37,8.44,27.88-13.93,70.18,10.65.72.42.54-.06.77-.11s.09,0,.09,0c-.13-.47.49-.36-.27-.8C283.23,236.73,291.2,259.47,255.24,250.64Z" style="fill: rgb(255, 255, 255); stroke: rgb(38, 50, 56); stroke-miterlimit: 10; transform-origin: 290.508px 256.012px 0px;" id="elth8ihrw75n" class="animable"></path><path d="M255,251.83a2.51,2.51,0,0,0-.34,1c37.74,8.77,28.31-14.51,67.07,12.16,3,2-.54-.68,1.19.13.08,0,.51.47-.18-.19s2.61,1.19-.48-.94C283.53,237.36,291.89,260.57,255,251.83Z" style="fill: rgb(255, 255, 255); stroke: rgb(38, 50, 56); stroke-miterlimit: 10; transform-origin: 289.132px 258.235px 0px;" id="elop5m0xh5o8" class="animable"></path><path d="M256.35,251.69c25.47.17,42.25-8.95,63.23,4.95s-1-1.07,5.05,2.73l1.2.75C314.6,252.28,343.2,271,320.59,256s-38-4.7-64-5.42C254.75,249.79,254.43,250,256.35,251.69Z" style="fill: rgb(255, 255, 255); stroke: rgb(38, 50, 56); stroke-miterlimit: 10; transform-origin: 292.311px 255.239px 0px;" id="el0dh57wopah59" class="animable"></path><path d="M253.56,256.27C287,266.33,289.34,238,313.71,268c.6.73.5.18.77.17s.11.09.15-.14.42-.1-.06-.69c-25-30.3-27.31-2.68-60.69-12.13C253.76,255.56,253.65,255.91,253.56,256.27Z" style="fill: rgb(255, 255, 255); stroke: rgb(38, 50, 56); stroke-miterlimit: 10; transform-origin: 284.185px 260.527px 0px;" id="elpusom1r1ej" class="animable"></path><path d="M184.06,326.12a34.52,34.52,0,0,0,3.52,11.71c.17.33.31.61.4.83l4.16-1.71c-.12-.29-.29-.66-.51-1.1-7-14.23-1.5-32.56.56-39.46,6.26-21,18.54-31.14,27.74-36,10.33-5.43,22.67-7.23,33-4.82l1-4.38c-11.37-2.65-24.88-.7-36.13,5.21-10,5.24-23.25,16.19-30,38.67C183.62,309.36,183.2,319.29,184.06,326.12Z" style="fill: rgb(255, 255, 255); stroke: rgb(38, 50, 56); stroke-miterlimit: 10; transform-origin: 218.811px 294.345px 0px;" id="el3uycklq03fo" class="animable"></path><g id="ellk0u2bhlvic"><rect x="249.25" y="251.18" width="8.83" height="4.41" rx="1.92" style="fill: rgb(255, 255, 255); stroke: rgb(38, 50, 56); stroke-miterlimit: 10; transform-origin: 253.665px 253.385px 0px; transform: rotate(-74.03deg);" class="animable" id="elt5g9uaehits"></rect></g><path d="M252.28,250.19s-4.56,1.76-6.92,4.1" style="fill: none; stroke: rgb(38, 50, 56); stroke-miterlimit: 10; transform-origin: 248.82px 252.24px 0px;" id="elxyfxdlpy1rr" class="animable"></path><path d="M245.4,250.16a17.18,17.18,0,0,0-6.26,4.56" style="fill: none; stroke: rgb(38, 50, 56); stroke-miterlimit: 10; transform-origin: 242.27px 252.44px 0px;" id="elgdmhh9eakde" class="animable"></path><path d="M238.8,250.43a9.53,9.53,0,0,0-6.24,5.18" style="fill: none; stroke: rgb(38, 50, 56); stroke-miterlimit: 10; transform-origin: 235.68px 253.02px 0px;" id="elzwieg42wi5" class="animable"></path><path d="M230.65,251.49S226,254.2,224.9,258" style="fill: none; stroke: rgb(38, 50, 56); stroke-miterlimit: 10; transform-origin: 227.775px 254.745px 0px;" id="eli74qz28on4" class="animable"></path><path d="M222.1,254.39s-4,2.85-4.5,7.19" style="fill: none; stroke: rgb(38, 50, 56); stroke-miterlimit: 10; transform-origin: 219.85px 257.985px 0px;" id="elqmpsby23pma" class="animable"></path><path d="M214.68,258.33a14.92,14.92,0,0,0-1.65,6.2" style="fill: none; stroke: rgb(38, 50, 56); stroke-miterlimit: 10; transform-origin: 213.855px 261.43px 0px;" id="elz9wg2qyjrt" class="animable"></path><path d="M208.5,262.79s-.91,2-.83,6.33" style="fill: none; stroke: rgb(38, 50, 56); stroke-miterlimit: 10; transform-origin: 208.083px 265.955px 0px;" id="elhd6ga1rkaj9" class="animable"></path><path d="M202.54,268.09a24.85,24.85,0,0,0,.16,7" style="fill: none; stroke: rgb(38, 50, 56); stroke-miterlimit: 10; transform-origin: 202.533px 271.59px 0px;" id="ele6vhfogndd9" class="animable"></path><path d="M197.29,275a17.52,17.52,0,0,0,.84,6.86" style="fill: none; stroke: rgb(38, 50, 56); stroke-miterlimit: 10; transform-origin: 197.684px 278.43px 0px;" id="el7x890mdlkd8" class="animable"></path><path d="M193,282.56a14.92,14.92,0,0,0,2,6" style="fill: none; stroke: rgb(38, 50, 56); stroke-miterlimit: 10; transform-origin: 194px 285.56px 0px;" id="elp1w0352gxt" class="animable"></path><polygon points="142.02 276.49 52.58 359.41 157.86 367.04 259.05 306.93 142.02 276.49" style="fill: #00FF88; stroke: rgb(38, 50, 56); stroke-linecap: round; stroke-linejoin: round; transform-origin: 155.815px 321.765px 0px;" id="elfnqkwt75lnc" class="animable"></polygon><g id="elmnzrl2iynn"><polygon points="180.66 318 239.7 318.11 210.23 335.93 180.66 318" style="opacity: 0.16; transform-origin: 210.18px 326.965px 0px;" class="animable" id="elbfvtvv06l9i"></polygon></g><path d="M99.9,347.73l4.73,30.88L218.37,360l-5.8-32.29a9.52,9.52,0,0,0-7.63-7.67c-10-1.89-30.91-4.41-57.28.11-25,4.27-38.22,12.9-44.27,18.17A10.44,10.44,0,0,0,99.9,347.73Z" style="fill: #00FF88; transform-origin: 159.079px 348.111px 0px;" id="el1jkzlv18qp9" class="animable"></path><g id="elggberr8lkpp"><path d="M204.94,320c-3.32-.63-7.82-1.31-13.3-1.8l7.29,44.95L218.37,360l-5.8-32.29A9.52,9.52,0,0,0,204.94,320Z" style="opacity: 0.16; transform-origin: 205.005px 340.675px 0px;" class="animable" id="elvouu9l3zj2"></path></g><path d="M99.9,347.73l4.73,30.88L218.37,360l-5.8-32.29a9.52,9.52,0,0,0-7.63-7.67c-10-1.89-30.91-4.41-57.28.11-25,4.27-38.22,12.9-44.27,18.17A10.44,10.44,0,0,0,99.9,347.73Z" style="fill: none; stroke: rgb(38, 50, 56); stroke-linecap: round; stroke-linejoin: round; transform-origin: 159.079px 348.111px 0px;" id="elofe12327xzj" class="animable"></path><g id="el0jetyvtgmmyk"><ellipse cx="161.42" cy="369.19" rx="57.57" ry="9.05" style="fill: #00FF88; stroke: rgb(38, 50, 56); stroke-linecap: round; stroke-linejoin: round; transform-origin: 161.42px 369.19px 0px; transform: rotate(-9.22deg);" class="animable" id="elp630puflvwr"></ellipse></g><path d="M216.33,360.73c.71,4.38-23.26,11.91-53.55,16.82s-55.41,5.36-56.12,1,23.26-11.91,53.55-16.82S215.62,356.36,216.33,360.73Z" style="fill: #00FF88; transform-origin: 161.495px 369.638px 0px;" id="el49zffulohme" class="animable"></path><g id="el2zivt0uyev4"><path d="M216.33,360.73c.71,4.38-23.26,11.91-53.55,16.82s-55.41,5.36-56.12,1,23.26-11.91,53.55-16.82S215.62,356.36,216.33,360.73Z" style="opacity: 0.3; transform-origin: 161.495px 369.638px 0px;" class="animable" id="el62i30wjph4i"></path></g><path d="M216.33,360.73c.71,4.38-23.26,11.91-53.55,16.82s-55.41,5.36-56.12,1,23.26-11.91,53.55-16.82S215.62,356.36,216.33,360.73Z" style="fill: none; stroke: rgb(38, 50, 56); stroke-linecap: round; stroke-linejoin: round; transform-origin: 161.495px 369.638px 0px;" id="el55103epkf59" class="animable"></path></g><g id="freepik--graduation-hat-2--inject-354" style="transform-origin: 359.743px 121.51px 0px;" class="animable"><path d="M441.58,55.93a80.76,80.76,0,0,0-9-4.81c-9.32-4.56-20.92-10.24-27.42-21.51l-.76.45c6.62,11.5,18.36,17.24,27.79,21.85a78.77,78.77,0,0,1,8.86,4.76c8.55,5.69,12.44,11.41,12.48,11.47l.74-.5C454.15,67.4,450.29,61.73,441.58,55.93Z" style="fill: rgb(38, 50, 56); transform-origin: 429.335px 48.875px 0px;" id="elhpxchvjmm7" class="animable"></path><path d="M457.52,65.16c.06.43.11.84.13,1.21l.88,0a10.1,10.1,0,0,0-.13-1.28h0s0-.08,0-.12c-.91-5.48-5.88-14.75-17.57-25-13-11.38-11.21-19.05-11.19-19.13l-.85-.22a10.23,10.23,0,0,0,.56,5.45c-1-2.19-1.52-3.63-1.53-3.66l-.84.28c0,.12,4.05,11.52,12.55,19.89,1.31,1.28,2.54,2.45,3.71,3.55l.16.16A52.59,52.59,0,0,1,428,26.36l-.83.32A50.45,50.45,0,0,0,435.62,40,44.34,44.34,0,0,1,425,21.73l-.86.2a41.79,41.79,0,0,0,3.47,8.51c-2.45-3.64-4.16-6.54-4.19-6.6l-.77.45c.08.13,7.66,13,14.07,18.84.48.44.95.9,1.43,1.37q-1.83-1.09-3.63-2.25a58.48,58.48,0,0,1-13-19.17l-.83.3A57.49,57.49,0,0,0,431,39.75c-8.07-6.57-11.68-16.56-11.71-16.67l-.84.3c0,.12,4.36,12.1,14.15,18.67.46.31.93.59,1.39.89.66.65,1.34,1.3,2.06,2-2-1.31-4-2.71-5.83-4.09a82.85,82.85,0,0,1-8.65-10.45l-.74.5a78.21,78.21,0,0,0,4.84,6.31c-.37-.33-.72-.65-1-1-5.91-5.78-5.88-10.12-5.88-10.16h-.44l-.44,0a10.36,10.36,0,0,0,1.45,4.74,51.63,51.63,0,0,1-3.83-6l-.79.39c0,.07,3.33,6.59,11,14.79.21.22.42.4.63.61-7.5-6.56-10.21-12.35-10.24-12.42l-.81.37a39.47,39.47,0,0,0,7.32,9.75c-8-6.5-8.15-10.6-8.15-10.64h-.89c0,.19.11,4.78,9.26,12a78.64,78.64,0,0,0,7,4.88c.55.42,1.13.83,1.72,1.24-1.15-.52-2.2-1-3.08-1.29-10.46-4.08-15.09-15.16-15.13-15.28l-.82.34a33.87,33.87,0,0,0,8.78,11.67c-1-.66-1.95-1.33-2.9-2a20.49,20.49,0,0,1-1.78-1.85C410.32,29.77,409,28,409,28l-.71.53c0,.06,1.15,1.53,6.23,7.64a40.74,40.74,0,0,1-7.2-7.19l-.71.52a29,29,0,0,0,2.16,2.58l-.6.53c.1.11,9.54,10.61,19.71,15.62,7.16,3.53,14.64,7.56,20.15,12.1.61.65,1,1.06,1,1.07l.15-.12A32.66,32.66,0,0,1,451.91,64c1.71,2.3,2.89,4,2.92,4.08l.46-.28.32-.1a21.12,21.12,0,0,0-.84-2.22c.54,1,.83,1.61.85,1.64l.53-.22.14,0,.15.63.86-.19c-.14-.66-.29-1.29-.45-1.91l.3-.1a23.16,23.16,0,0,0-1-2.25,34.1,34.1,0,0,0-1.63-4.29A23.64,23.64,0,0,1,457.52,65.16ZM440.05,52.5c-.75-.47-1.74-1.06-2.9-1.73a42.61,42.61,0,0,1,5.08,2.61,31.32,31.32,0,0,1,5.66,5.53A45,45,0,0,0,440.05,52.5Zm1.1-1.65a37.21,37.21,0,0,1,5.19,3.47l.76,1A50.18,50.18,0,0,0,441.15,50.85Zm-.42-4.91.3.3,0,0Zm2.6,2.76c.3.34.59.68.88,1l-.41-.2-.9-1.1Zm-2.15.6.06,0,.42.38c-.57-.29-1.14-.62-1.71-1Zm-5.32-3.37-.66-.53,1.13.76Zm-.59.7Zm5-6a67.48,67.48,0,0,1,13.87,16c-.57-.68-1.38-1.73-2.17-2.75-2.6-3.39-6.54-8.51-10.64-12.14a55.52,55.52,0,0,1-6.5-6.56A53.5,53.5,0,0,0,440.22,40.62Zm-.1,1.31-.44-.45c.32.3.66.6,1,.91,1.07,1,2.14,2,3.17,3.12l0,0C442.65,44.37,441.42,43.21,440.12,41.93Zm-1.3,4,1.59,1c.52.58,1,1.18,1.53,1.77l-.24-.11c-.82-.72-1.68-1.45-2.59-2.18l-1.13-1ZM424.6,37.41a61.57,61.57,0,0,0,4.82,3.93c.82.83,1.68,1.67,2.57,2.49a26.71,26.71,0,0,1-5.7-4.54C425.7,38.65,425.14,38,424.6,37.41Zm8.1,8.79,0,0,0,0Zm-6.14-1.67c.48.23,1,.45,1.49.64a71.94,71.94,0,0,1,11.78,5.89c-1.24-.62-2.68-1.27-4.22-2-2.22-1-4.72-2.15-7.22-3.43Zm-15.43-10.1a74.87,74.87,0,0,0,6.63,5.33A47.47,47.47,0,0,0,428,46.42c2.5,1.51,4.86,2.88,6.89,4s3.61,2.08,4.71,2.77,1.91,1.28,2.77,1.94a149.36,149.36,0,0,0-14.08-7.74C421.22,44,414.52,37.81,411.13,34.43Zm35.42,21.63A31,31,0,0,1,453,63.94c-.12-.14-.23-.28-.35-.41A88.25,88.25,0,0,0,446.55,56.06Z" style="fill: rgb(38, 50, 56); transform-origin: 432.57px 44.35px 0px;" id="el539srwmtns" class="animable"></path><path d="M393.6,143.73a33.68,33.68,0,0,1-11.85-2c-.35-.12-.64-.22-.86-.28l1.16-4.27c.29.08.67.2,1.13.36,14.73,5.05,31.94-2.53,38.42-5.38,19.69-8.68,28.1-21.9,31.69-31.46,4-10.74,4.27-23,.65-32.8l4.15-1.54c4,10.77,3.73,24.19-.66,35.89-3.88,10.36-12.94,24.66-34.05,34C410,142.1,400.36,143.73,393.6,143.73Z" style="fill: rgb(38, 50, 56); transform-origin: 420.903px 105.046px 0px;" id="el9ofw0gx8438" class="animable"></path><g id="elsahvdfaa8x"><rect x="451.68" y="64.75" width="8.68" height="4.34" rx="1.92" style="fill: rgb(38, 50, 56); transform-origin: 456.02px 66.92px 0px; transform: rotate(-23.12deg);" class="animable" id="elr1r6kd3pis"></rect></g><polygon points="379.5 82.07 258.57 115.46 312.27 222.4 428.69 195.33 379.5 82.07" style="fill: #00FF88; stroke: rgb(38, 50, 56); stroke-linecap: round; stroke-linejoin: round; transform-origin: 343.63px 152.235px 0px;" id="el2yr7l9w3cmd" class="animable"></polygon><g id="elcmiecf618po"><polygon points="385.45 140.41 419.25 196.41 357.46 211.37 385.45 140.41" style="opacity: 0.16; transform-origin: 388.355px 175.89px 0px;" class="animable" id="elehjblewbgda"></polygon></g><path d="M363.2,121.18c-24.15-12-51.43-6.07-60.93,13.14L291.7,151.66l8,4c2.74,13.79,13.28,27.31,29.07,35.13s32.94,8,45.56,1.81l4.82,2.39,7.78-12.79a31.24,31.24,0,0,0,2.78-4.55C399.21,158.39,387.35,133.13,363.2,121.18Z" style="fill: #00FF88; transform-origin: 342.343px 155.973px 0px;" id="elv1fy7sgmcig" class="animable"></path><g id="el72edz9fut84"><path d="M385.68,140.66l-41.83,55.22c11,2.16,21.82.92,30.48-3.33l4.82,2.39,7.78-12.79a31.24,31.24,0,0,0,2.78-4.55C395.41,166.07,393.41,152.36,385.68,140.66Z" style="opacity: 0.16; transform-origin: 368.416px 168.791px 0px;" class="animable" id="elnn0jiukqzwk"></path></g><path d="M363.2,121.18c-24.15-12-51.43-6.07-60.93,13.14L291.7,151.66l8,4c2.74,13.79,13.28,27.31,29.07,35.13s32.94,8,45.56,1.81l4.82,2.39,7.78-12.79a31.24,31.24,0,0,0,2.78-4.55C399.21,158.39,387.35,133.13,363.2,121.18Z" style="fill: none; stroke: rgb(38, 50, 56); stroke-linecap: round; stroke-linejoin: round; transform-origin: 342.343px 155.973px 0px;" id="eld5t6265ujp" class="animable"></path><g id="elmzlecla98ln"><ellipse cx="335.42" cy="173.3" rx="38.81" ry="48.78" style="fill: #00FF88; transform-origin: 335.42px 173.3px 0px; transform: rotate(-63.67deg);" class="animable" id="eli8zwn8fll9o"></ellipse></g><g id="elo31v0sw2xyk"><ellipse cx="335.42" cy="173.3" rx="38.81" ry="48.78" style="opacity: 0.3; transform-origin: 335.42px 173.3px 0px; transform: rotate(-63.67deg);" class="animable" id="elz8ghkwfdcb8"></ellipse></g><g id="elb1kpgikfczk"><ellipse cx="335.42" cy="173.3" rx="38.81" ry="48.78" style="fill: none; stroke: rgb(38, 50, 56); stroke-linecap: round; stroke-linejoin: round; transform-origin: 335.42px 173.3px 0px; transform: rotate(-63.67deg);" class="animable" id="el02o7lfb74sgs"></ellipse></g><g id="elvfg7c3y8lqc"><ellipse cx="335.42" cy="173.3" rx="36.39" ry="45.75" style="fill: #00FF88; transform-origin: 335.42px 173.3px 0px; transform: rotate(-63.67deg);" class="animable" id="elqewzz8a0fv"></ellipse></g><g id="el9hq21m8zssi"><ellipse cx="335.42" cy="173.3" rx="36.39" ry="45.75" style="opacity: 0.16; transform-origin: 335.42px 173.3px 0px; transform: rotate(-63.67deg);" class="animable" id="el8itcf51fr7n"></ellipse></g><path d="M351.57,140.68c-18.21-9-38.3-7.2-50.12,3.21-2.3,16.51,8.83,35,28.24,44.64,17.58,8.7,36.87,7.56,49.06-1.54C382.54,170.15,371.53,150.56,351.57,140.68Z" style="fill: #00FF88; transform-origin: 340.321px 164.679px 0px;" id="el2ljp09ynxbo" class="animable"></path><g id="elzyp6gm6jknn"><path d="M351.57,140.68c-18.21-9-38.3-7.2-50.12,3.21-2.3,16.51,8.83,35,28.24,44.64,17.58,8.7,36.87,7.56,49.06-1.54C382.54,170.15,371.53,150.56,351.57,140.68Z" style="opacity: 0.3; transform-origin: 340.321px 164.679px 0px;" class="animable" id="elhb88bzkge58"></path></g><g id="ellnbh7wvzutr"><ellipse cx="335.42" cy="173.3" rx="36.39" ry="45.75" style="fill: none; stroke: rgb(38, 50, 56); stroke-linecap: round; stroke-linejoin: round; transform-origin: 335.42px 173.3px 0px; transform: rotate(-63.67deg);" class="animable" id="elio2bwsjpu5"></ellipse></g></g><g id="freepik--graduation-hat-1--inject-354" style="transform-origin: 139.098px 206.822px 0px;" class="animable"><path d="M89.72,171.3l19,35.68s18.23,11.25,71-22.11,50.81-46.15,50.81-46.15L207.24,94.5Z" style="fill: rgb(38, 50, 56); transform-origin: 160.13px 151.653px 0px;" id="eljkoeu0292r8" class="animable"></path><g id="eljl3fs8q7dk"><path d="M89.72,171.3l19,35.68s18.23,11.25,71-22.11,50.81-46.15,50.81-46.15L207.24,94.5Z" style="fill: rgb(255, 255, 255); opacity: 0.1; transform-origin: 160.13px 151.653px 0px;" class="animable" id="el949qtc2infq"></path></g><path d="M132.28,80.75c-9.49,9-95.77,78.81-116.6,95.65A2.11,2.11,0,0,0,17,180.15l112.7,2a7,7,0,0,0,5-2L262.8,52.49a1.66,1.66,0,0,0-1.55-2.8L134.66,79.48A5.16,5.16,0,0,0,132.28,80.75Z" style="fill: rgb(38, 50, 56); transform-origin: 139.098px 115.897px 0px;" id="el7uehzo7gpun" class="animable"></path><path d="M62.57,242.77a2.06,2.06,0,0,1-2-2c-.14-21.54-.33-57.9.07-59.47.24-1,.4-1.62,36.5-31.52,17.6-14.58,35.37-29.15,35.55-29.29a2,2,0,0,1,2.59,3.16c-26.52,21.74-66.31,54.63-70.68,59-.21,4.74-.08,36.76.06,58.12a2,2,0,0,1-2,2.06Z" style="fill: #00FF88; stroke: rgb(38, 50, 56); stroke-linecap: round; stroke-linejoin: round; transform-origin: 98.214px 181.429px 0px;" id="elayg890u7ou" class="animable"></path><rect x="56.11" y="239.78" width="12.92" height="16.21" style="fill: #00FF88; stroke: rgb(38, 50, 56); stroke-linecap: round; stroke-linejoin: round; transform-origin: 62.57px 247.885px 0px;" id="el2bza6gbb1sc" class="animable"></rect><path d="M56.57,256.19c-.5,7.64-3.92,58.16-6.73,75.61-3,18.78-4.37,24.7-4.38,24.76a.82.82,0,0,0,.61,1l.18,0a.82.82,0,0,0,.8-.64c0-.06,1.36-6,4.4-24.87,2.84-17.6,6.28-68.6,6.76-75.87Z" style="fill: #00FF88; stroke: rgb(38, 50, 56); stroke-linecap: round; stroke-linejoin: round; transform-origin: 51.8225px 306.87px 0px;" id="el617n6l9ag1p" class="animable"></path><path d="M59,256.19c-.58,10-4.82,80.91-10.67,104.34a.81.81,0,0,0,.59,1,.69.69,0,0,0,.2,0,.82.82,0,0,0,.79-.63c5.91-23.64,10.17-95,10.72-104.74Z" style="fill: #00FF88; stroke: rgb(38, 50, 56); stroke-linecap: round; stroke-linejoin: round; transform-origin: 54.4658px 308.849px 0px;" id="elio2t48h3r2" class="animable"></path><path d="M61.19,256.19c-.64,8.53-6.6,86.16-11.12,105.24a.83.83,0,0,0,.61,1,.58.58,0,0,0,.19,0,.81.81,0,0,0,.79-.63c4.57-19.29,10.58-97.71,11.17-105.62Z" style="fill: #00FF88; stroke: rgb(38, 50, 56); stroke-linecap: round; stroke-linejoin: round; transform-origin: 56.4384px 309.309px 0px;" id="elyh8170qskds" class="animable"></path><path d="M62,256.19c-.47,9.73-4.48,90.68-7.54,105.93a.82.82,0,0,0,.64,1l.16,0a.82.82,0,0,0,.8-.66c3.13-15.6,7.1-96.37,7.58-106.26Z" style="fill: #00FF88; stroke: rgb(38, 50, 56); stroke-linecap: round; stroke-linejoin: round; transform-origin: 59.0382px 309.655px 0px;" id="el0in4efh1saxk" class="animable"></path><path d="M66.37,256.19H64.73c-.28,10-2.2,81.84,0,107.05a.82.82,0,0,0,.81.76h.07a.83.83,0,0,0,.75-.89C64.17,337.94,66.09,266,66.37,256.19Z" style="fill: #00FF88; stroke: rgb(38, 50, 56); stroke-linecap: round; stroke-linejoin: round; transform-origin: 65.0285px 310.095px 0px;" id="elqpmqjmjjiup" class="animable"></path><path d="M64.59,256.19H63c-.46,10.23-4.43,100.09-4.22,105.91a.81.81,0,0,0,.81.8h0a.83.83,0,0,0,.79-.86C60.17,356.34,64.18,265.43,64.59,256.19Z" style="fill: #00FF88; stroke: rgb(38, 50, 56); stroke-linecap: round; stroke-linejoin: round; transform-origin: 61.681px 309.545px 0px;" id="elh2fzerg7igo" class="animable"></path><path d="M66,256.19c.13,11.18,1.27,104.19,1.27,104.91a.82.82,0,0,0,.82.82h0a.82.82,0,0,0,.82-.82c0-.62-1.13-93-1.28-104.91Z" style="fill: #00FF88; stroke: rgb(38, 50, 56); stroke-linecap: round; stroke-linejoin: round; transform-origin: 67.455px 309.055px 0px;" id="el8ejz5qsnfah" class="animable"></path><path d="M57.64,256.19c-.52,9.82-4.45,80.18-9.78,98.12a.82.82,0,0,0,.55,1,.67.67,0,0,0,.24,0,.82.82,0,0,0,.78-.59c5.46-18.41,9.33-88.71,9.85-98.59Z" style="fill: #00FF88; stroke: rgb(38, 50, 56); stroke-linecap: round; stroke-linejoin: round; transform-origin: 53.5554px 305.725px 0px;" id="elfq4uei1t4i" class="animable"></path><path d="M140.3,116.9c1.06,1.76-1.16,5-5,7.34s-7.74,2.73-8.81,1,1.16-5,5-7.35S139.23,115.13,140.3,116.9Z" style="fill: #00FF88; stroke: rgb(38, 50, 56); stroke-linecap: round; stroke-linejoin: round; transform-origin: 133.393px 121.058px 0px;" id="elo623320zws" class="animable"></path></g><defs>     <filter id="active" height="200%">         <feMorphology in="SourceAlpha" result="DILATED" operator="dilate" radius="2"></feMorphology>                <feFlood flood-color="#32DFEC" flood-opacity="1" result="PINK"></feFlood>        <feComposite in="PINK" in2="DILATED" operator="in" result="OUTLINE"></feComposite>        <feMerge>            <feMergeNode in="OUTLINE"></feMergeNode>            <feMergeNode in="SourceGraphic"></feMergeNode>        </feMerge>    </filter>    <filter id="hover" height="200%">        <feMorphology in="SourceAlpha" result="DILATED" operator="dilate" radius="2"></feMorphology>                <feFlood flood-color="#ff0000" flood-opacity="0.5" result="PINK"></feFlood>        <feComposite in="PINK" in2="DILATED" operator="in" result="OUTLINE"></feComposite>        <feMerge>            <feMergeNode in="OUTLINE"></feMergeNode>            <feMergeNode in="SourceGraphic"></feMergeNode>        </feMerge>            <feColorMatrix type="matrix" values="0   0   0   0   0                0   1   0   0   0                0   0   0   0   0                0   0   0   1   0 "></feColorMatrix>    </filter></defs></svg>