<svg class="animated" id="freepik_stories-mobile-user" xmlns="http://www.w3.org/2000/svg" viewBox="0 0 500 500" version="1.1" xmlns:xlink="http://www.w3.org/1999/xlink" xmlns:svgjs="http://svgjs.com/svgjs"><style>svg#freepik_stories-mobile-user:not(.animated) .animable {opacity: 0;}svg#freepik_stories-mobile-user.animated #freepik--character-2--inject-2 {animation: 1.5s Infinite  linear wind;animation-delay: 0s;}svg#freepik_stories-mobile-user.animated #freepik--character-1--inject-2 {animation: 1.5s Infinite  linear wind;animation-delay: 0s;}            @keyframes wind {                0% {                    transform: rotate( 0deg );                }                25% {                    transform: rotate( 1deg );                }                75% {                    transform: rotate( -1deg );                }            }        </style><g id="freepik--Floor--inject-2" style="transform-origin: 250px 349.84px 0px;" class="animable"><ellipse id="freepik--floor--inject-2" cx="250" cy="349.84" rx="244.07" ry="140.91" style="fill: rgb(245, 245, 245); transform-origin: 250px 349.84px 0px;" class="animable"></ellipse></g><g id="freepik--Shadows--inject-2" style="transform-origin: 252.92px 346.428px 0px;" class="animable"><path id="freepik--Shadow--inject-2" d="M174.54,481.63l-156-89.85c-3.14-1.81-3.14-4.74,0-6.55l301.41-174a12.54,12.54,0,0,1,11.35,0l156,89.84c3.14,1.81,3.14,4.75,0,6.55l-301.41,174A12.54,12.54,0,0,1,174.54,481.63Z" style="fill: rgb(224, 224, 224); transform-origin: 252.92px 346.428px 0px;" class="animable"></path></g><g id="freepik--Clouds--inject-2" style="transform-origin: 428.86px 58.8257px 0px;" class="animable animator-active"><path id="freepik--Cloud--inject-2" d="M416.67,31.92l9.11,5.27c0-.41-.07-.81-.07-1.21V33.34c0-4.7,3.3-6.61,7.37-4.26a14.09,14.09,0,0,1,4.39,4.23c.67-5.91,5.31-8.12,10.94-4.86,6.09,3.51,11,12.07,11,19.1v4a10.51,10.51,0,0,1-.93,4.58l7.57,4.37a9.05,9.05,0,0,1,4.09,7.09c0,2.61-1.83,3.66-4.09,2.36L416.67,41.37a9.05,9.05,0,0,1-4.09-7.09C412.58,31.68,414.41,30.62,416.67,31.92Z" style="fill: rgb(235, 235, 235); transform-origin: 441.36px 48.7248px 0px;" class="animable"></path><path id="freepik--cloud--inject-2" d="M390.78,60.48l7.15,4.13c0-.32-.06-.64-.06-1V61.59c0-3.69,2.59-5.18,5.79-3.34a11.16,11.16,0,0,1,3.44,3.32c.52-4.64,4.16-6.37,8.58-3.82,4.77,2.76,8.65,9.47,8.65,15v3.1a8.13,8.13,0,0,1-.74,3.59l5.94,3.43a7.11,7.11,0,0,1,3.21,5.56c0,2-1.44,2.87-3.21,1.85L390.78,67.89a7.1,7.1,0,0,1-3.2-5.56C387.58,60.29,389,59.46,390.78,60.48Z" style="fill: rgb(235, 235, 235); transform-origin: 410.16px 73.6403px 0px;" class="animable"></path></g><g id="freepik--Plants--inject-2" style="transform-origin: 244.72px 291.848px 0px;" class="animable"><g id="freepik--plants--inject-2" style="transform-origin: 37.1675px 333.13px 0px;" class="animable"><path d="M47.86,357.76l6.67-3.85s4-16.5,2.39-31.33c-2.23-20.86-16-28.71-21.18-26.92S29,303.53,37.65,316C42.74,323.29,49,338.56,47.86,357.76Z" style="fill: rgb(0, 255, 136); transform-origin: 44.405px 326.587px 0px;" id="elkmho8w6oby" class="animable"></path><g id="elqtg0bik4vcs"><g style="opacity: 0.65; transform-origin: 44.405px 326.587px 0px;" class="animable"><path d="M47.86,357.76l6.67-3.85s4-16.5,2.39-31.33c-2.23-20.86-16-28.71-21.18-26.92S29,303.53,37.65,316C42.74,323.29,49,338.56,47.86,357.76Z" style="fill: rgb(255, 255, 255); transform-origin: 44.405px 326.587px 0px;" id="el1bdljpwbb9u" class="animable"></path></g></g><path d="M50.62,349.66h-.06a.47.47,0,0,1-.37-.54c3.66-19.24-3.06-40.87-11.39-49.86a.47.47,0,0,1,0-.66.46.46,0,0,1,.65,0c8.48,9.16,15.33,31.14,11.62,50.66A.47.47,0,0,1,50.62,349.66Z" style="fill: rgb(255, 255, 255); transform-origin: 45.3835px 324.063px 0px;" id="elsqz68md3fa7" class="animable"></path><path d="M29.44,370.77c-1.05.53-3.86-1.86-4.64-2.45a9.88,9.88,0,0,1-3.06-3.89,9.15,9.15,0,0,1-.53-5.54,20.76,20.76,0,0,1,.84-2.89l1-2.8a7.37,7.37,0,0,0,.56-2.84c-.15-1.95-1.81-3.4-3.31-4.65-1.67-1.39-3.39-3.19-3.26-5.52a8.23,8.23,0,0,1,2.31-4.79c1.18-1.36,2.57-2.55,3.66-4a5.77,5.77,0,0,0,1.36-3.57,6.1,6.1,0,0,0-.68-2.31,31.3,31.3,0,0,1-2.25-4.67c-.49-1.67-.31-3.7,1-4.8a5.37,5.37,0,0,1,4.07-.8,9.09,9.09,0,0,1,3.67,1.51c3.61,2.25,5.51,6.75,9.36,8.53a39.91,39.91,0,0,0,4.71,1.41A5.9,5.9,0,0,1,48,329.6c1.3,3-1.56,6.38-.7,9.49.76,2.76,3.35,3.93,4.7,6.45a5.79,5.79,0,0,1,.52,3.58,17.26,17.26,0,0,1-1.8,5.93,54.56,54.56,0,0,1-3.57,5.47Z" style="fill: rgb(0, 255, 136); transform-origin: 34.82px 342.993px 0px;" id="ela6eqjgypy96" class="animable"></path><g id="elhvttbp5ru6v"><g style="opacity: 0.3; transform-origin: 34.82px 342.993px 0px;" class="animable"><path d="M29.44,370.77c-1.05.53-3.86-1.86-4.64-2.45a9.88,9.88,0,0,1-3.06-3.89,9.15,9.15,0,0,1-.53-5.54,20.76,20.76,0,0,1,.84-2.89l1-2.8a7.37,7.37,0,0,0,.56-2.84c-.15-1.95-1.81-3.4-3.31-4.65-1.67-1.39-3.39-3.19-3.26-5.52a8.23,8.23,0,0,1,2.31-4.79c1.18-1.36,2.57-2.55,3.66-4a5.77,5.77,0,0,0,1.36-3.57,6.1,6.1,0,0,0-.68-2.31,31.3,31.3,0,0,1-2.25-4.67c-.49-1.67-.31-3.7,1-4.8a5.37,5.37,0,0,1,4.07-.8,9.09,9.09,0,0,1,3.67,1.51c3.61,2.25,5.51,6.75,9.36,8.53a39.91,39.91,0,0,0,4.71,1.41A5.9,5.9,0,0,1,48,329.6c1.3,3-1.56,6.38-.7,9.49.76,2.76,3.35,3.93,4.7,6.45a5.79,5.79,0,0,1,.52,3.58,17.26,17.26,0,0,1-1.8,5.93,54.56,54.56,0,0,1-3.57,5.47Z" style="fill: rgb(255, 255, 255); transform-origin: 34.82px 342.993px 0px;" id="elgxqlhfdgqbi" class="animable"></path></g></g><path d="M39.65,365.45h0a.46.46,0,0,1-.42-.51c1.69-18.3-5.93-39-11.92-45.18a.47.47,0,0,1,0-.66.46.46,0,0,1,.65,0c6.11,6.32,13.89,27.35,12.18,45.91A.46.46,0,0,1,39.65,365.45Z" style="fill: rgb(255, 255, 255); transform-origin: 33.7773px 342.208px 0px;" id="eluswy5r1w3b" class="animable"></path><path d="M37.83,342.88a.35.35,0,0,1-.14,0A61.38,61.38,0,0,0,24.49,340a.48.48,0,0,1-.42-.51.45.45,0,0,1,.51-.41A62.15,62.15,0,0,1,38,342a.45.45,0,0,1,.27.59A.46.46,0,0,1,37.83,342.88Z" style="fill: rgb(255, 255, 255); transform-origin: 31.1851px 340.981px 0px;" id="eljygfyv6z74m" class="animable"></path></g><g id="freepik--plants--inject-2" style="transform-origin: 452.587px 249.183px 0px;" class="animable"><path d="M442.21,275.19l-6.67-3.85s-4-16.49-2.39-31.33c2.23-20.86,16-28.71,21.18-26.91s6.74,7.87-1.9,20.29C447.33,240.72,441.07,256,442.21,275.19Z" style="fill: rgb(0, 255, 136); transform-origin: 445.666px 244.02px 0px;" id="elkls1ab7g7r" class="animable"></path><g id="el5c264s0ba5l"><g style="opacity: 0.65; transform-origin: 445.666px 244.02px 0px;" class="animable"><path d="M442.21,275.19l-6.67-3.85s-4-16.49-2.39-31.33c2.23-20.86,16-28.71,21.18-26.91s6.74,7.87-1.9,20.29C447.33,240.72,441.07,256,442.21,275.19Z" style="fill: rgb(255, 255, 255); transform-origin: 445.666px 244.02px 0px;" id="ellpg2dn0qb6g" class="animable"></path></g></g><path d="M439.45,267.09h.06a.46.46,0,0,0,.37-.54c-4.51-19.65,1.81-39.28,11.39-49.86a.46.46,0,0,0-.68-.63c-9.26,9.56-16.27,31.61-11.62,50.66A.48.48,0,0,0,439.45,267.09Z" style="fill: rgb(255, 255, 255); transform-origin: 444.444px 241.501px 0px;" id="elxbicakekigg" class="animable"></path><path d="M460,285.44c1.05.53,3.85-1.87,4.63-2.45a9.79,9.79,0,0,0,3.06-3.89,9.15,9.15,0,0,0,.54-5.54,22.23,22.23,0,0,0-.84-2.89l-1-2.8a7,7,0,0,1-.56-2.84c.15-1.95,1.8-3.4,3.31-4.65,1.67-1.39,3.38-3.19,3.26-5.53a8.26,8.26,0,0,0-2.31-4.79c-1.19-1.35-2.58-2.54-3.66-4a5.71,5.71,0,0,1-1.36-3.57,6.09,6.09,0,0,1,.67-2.31,32,32,0,0,0,2.26-4.68c.48-1.66.3-3.69-1-4.79a5.35,5.35,0,0,0-4.08-.8,9.33,9.33,0,0,0-3.67,1.5c-3.61,2.25-5.5,6.75-9.36,8.54a39.19,39.19,0,0,1-4.7,1.41,5.85,5.85,0,0,0-3.8,2.88c-1.3,3,1.56,6.39.7,9.5-.76,2.76-3.34,3.93-4.7,6.45a5.79,5.79,0,0,0-.51,3.58,16.93,16.93,0,0,0,1.8,5.92,52.6,52.6,0,0,0,3.56,5.48Z" style="fill: rgb(0, 255, 136); transform-origin: 454.598px 257.657px 0px;" id="els3s3vzyy6vr" class="animable"></path><g id="elnw628d1z2l"><g style="opacity: 0.3; transform-origin: 454.598px 257.657px 0px;" class="animable"><path d="M460,285.44c1.05.53,3.85-1.87,4.63-2.45a9.79,9.79,0,0,0,3.06-3.89,9.15,9.15,0,0,0,.54-5.54,22.23,22.23,0,0,0-.84-2.89l-1-2.8a7,7,0,0,1-.56-2.84c.15-1.95,1.8-3.4,3.31-4.65,1.67-1.39,3.38-3.19,3.26-5.53a8.26,8.26,0,0,0-2.31-4.79c-1.19-1.35-2.58-2.54-3.66-4a5.71,5.71,0,0,1-1.36-3.57,6.09,6.09,0,0,1,.67-2.31,32,32,0,0,0,2.26-4.68c.48-1.66.3-3.69-1-4.79a5.35,5.35,0,0,0-4.08-.8,9.33,9.33,0,0,0-3.67,1.5c-3.61,2.25-5.5,6.75-9.36,8.54a39.19,39.19,0,0,1-4.7,1.41,5.85,5.85,0,0,0-3.8,2.88c-1.3,3,1.56,6.39.7,9.5-.76,2.76-3.34,3.93-4.7,6.45a5.79,5.79,0,0,0-.51,3.58,16.93,16.93,0,0,0,1.8,5.92,52.6,52.6,0,0,0,3.56,5.48Z" style="fill: rgb(255, 255, 255); transform-origin: 454.598px 257.657px 0px;" id="elu6cr3qwfkqc" class="animable"></path></g></g><path d="M449.75,280.12h0a.48.48,0,0,0,.43-.51c-1.69-18.3,5.93-39,11.92-45.18a.47.47,0,0,0-.67-.65c-6.11,6.33-13.89,27.36-12.17,45.92A.46.46,0,0,0,449.75,280.12Z" style="fill: rgb(255, 255, 255); transform-origin: 455.607px 256.898px 0px;" id="elnz913aq74a" class="animable"></path><path d="M451.57,257.55a.31.31,0,0,0,.13,0,61.38,61.38,0,0,1,13.2-2.81.46.46,0,0,0,.42-.51.45.45,0,0,0-.5-.42,63.29,63.29,0,0,0-13.43,2.87.47.47,0,0,0-.28.6A.47.47,0,0,0,451.57,257.55Z" style="fill: rgb(255, 255, 255); transform-origin: 458.203px 255.682px 0px;" id="el2uht0gcf1q8" class="animable"></path></g></g><g id="freepik--Tree--inject-2" style="transform-origin: 72.9444px 188.266px 0px;" class="animable"><g id="freepik--tree--inject-2" style="transform-origin: 72.9444px 188.266px 0px;" class="animable"><path d="M61,196.43a16.06,16.06,0,0,1,4.21,1.48c3.67,1.89,5.6,9.86,11.14,7.42,2-.88,2.78-3.93,4.86-5,6.07-3.1,13,1.7,19.42,1a23.61,23.61,0,0,0,5.11-.82c4.43-1.48,6-6.26,8.64-9.5,4.1-4.92,10.26-3.67,15.49-6.59,7-3.92,5.54-12.11,2.59-18.14-1.94-4-4.69-7-7.22-10.57-1.81-2.58-2.65-5.28-1.7-8.35.84-2.74,3.39-4.08,5.16-6.24,3.57-4.35,4.24-9.39,1.62-14.43-2.31-4.44-7-6.78-9.81-10.79-3.54-5.06-.88-9.39,0-14.57a18.35,18.35,0,0,0-9.64-18.93c-4.63-2.43-8-3.79-8-9.61-.08-5.34,2.32-11-.7-15.94-2-3.29-6.46-3.83-8.09-7.24-1.28-2.71-1.54-5.69-3.24-8.26a6.64,6.64,0,0,0-5.48-3.14c-3.63-.2-6,.81-8.58-2.4-1.89-2.32-3-5.24-6.08-6.22C62.36,27,58.24,37,56.36,43.18c-1.31,4.3-3.78,4.94-7.52,7.3a16.51,16.51,0,0,0-8,11.23C40,66.08,43,68.86,43.06,72.84c.11,4.79-6.71,6.75-10.23,9.41-4.09,3.1-8.06,7.28-8.5,12.65-.37,4.46,2.58,6.21,4.68,9.52,2.94,4.65,1.46,8-2.81,10.88-5.82,3.91-14.61,10.77-15.19,18.49-.73,9.73,19.21,14.28,11,23.65-5.82,6.67-14.9,20-2.67,25.82,3.68,1.76,9.57.17,11.85,4.35,1.43,2.62.21,5.65,2.16,8.35,3.62,5,8.43,4.29,13.58,2.46C51.65,196.75,56.35,195.5,61,196.43Z" style="fill: rgb(0, 255, 136); transform-origin: 72.9494px 117.48px 0px;" id="el66gw2t9h1z5" class="animable"></path><g id="el25qix1otswe"><path d="M61,196.43a16.06,16.06,0,0,1,4.21,1.48c3.67,1.89,5.6,9.86,11.14,7.42,2-.88,2.78-3.93,4.86-5,6.07-3.1,13,1.7,19.42,1a23.61,23.61,0,0,0,5.11-.82c4.43-1.48,6-6.26,8.64-9.5,4.1-4.92,10.26-3.67,15.49-6.59,7-3.92,5.54-12.11,2.59-18.14-1.94-4-4.69-7-7.22-10.57-1.81-2.58-2.65-5.28-1.7-8.35.84-2.74,3.39-4.08,5.16-6.24,3.57-4.35,4.24-9.39,1.62-14.43-2.31-4.44-7-6.78-9.81-10.79-3.54-5.06-.88-9.39,0-14.57a18.35,18.35,0,0,0-9.64-18.93c-4.63-2.43-8-3.79-8-9.61-.08-5.34,2.32-11-.7-15.94-2-3.29-6.46-3.83-8.09-7.24-1.28-2.71-1.54-5.69-3.24-8.26a6.64,6.64,0,0,0-5.48-3.14c-3.63-.2-6,.81-8.58-2.4-1.89-2.32-3-5.24-6.08-6.22C62.36,27,58.24,37,56.36,43.18c-1.31,4.3-3.78,4.94-7.52,7.3a16.51,16.51,0,0,0-8,11.23C40,66.08,43,68.86,43.06,72.84c.11,4.79-6.71,6.75-10.23,9.41-4.09,3.1-8.06,7.28-8.5,12.65-.37,4.46,2.58,6.21,4.68,9.52,2.94,4.65,1.46,8-2.81,10.88-5.82,3.91-14.61,10.77-15.19,18.49-.73,9.73,19.21,14.28,11,23.65-5.82,6.67-14.9,20-2.67,25.82,3.68,1.76,9.57.17,11.85,4.35,1.43,2.62.21,5.65,2.16,8.35,3.62,5,8.43,4.29,13.58,2.46C51.65,196.75,56.35,195.5,61,196.43Z" style="fill: rgb(255, 255, 255); opacity: 0.1; transform-origin: 72.9494px 117.48px 0px;" class="animable"></path></g><g id="elfn517m1usf8"><path d="M134.85,177.24a10.8,10.8,0,0,1-8.45,5.06c-3.94.41-7.67-1.08-11.65-.38-7.29,1.29-10,8.91-17.53,9.09-4,.09-5.33-2.3-8.69-3.5-2.64-.95-5.69-.5-8.36,0-5.84,1.18-9,1.34-13.56-2.47-1.69-1.42-2.93-2.6-5.14-3.23-3.79-1.08-7.14,1.27-11,.53C43.16,181,49.32,170.82,44.38,167c-3.37-2.58-8.16-2.54-9.73-7.14-2.77-8,9.82-14.49,3.12-22.89-2.27-2.85-5.91-5-7.31-8.44-1.57-3.94,2.3-7.11,4.77-9.75,3.64-3.88,7-5.79,6.74-11.38a22.56,22.56,0,0,0-3.18-10.93c-2.38-3.92-5.38-6.63-4.45-11.46A13,13,0,0,1,37,79.73a40.1,40.1,0,0,0-4.18,2.52c-4.09,3.1-8.06,7.28-8.5,12.65-.37,4.46,2.58,6.21,4.68,9.52,2.94,4.65,1.46,8-2.81,10.88-5.82,3.91-14.61,10.77-15.19,18.49-.73,9.73,19.21,14.28,11,23.65-5.82,6.67-14.9,20-2.67,25.82,3.68,1.76,9.57.17,11.85,4.35,1.43,2.62.21,5.65,2.16,8.35,3.62,5,8.43,4.29,13.58,2.46,4.68-1.67,9.38-2.92,14.07-2a16.06,16.06,0,0,1,4.21,1.48c3.67,1.89,5.6,9.86,11.14,7.42,2-.88,2.78-3.93,4.86-5,6.07-3.1,13,1.7,19.42,1a23.61,23.61,0,0,0,5.11-.82c4.43-1.48,6-6.26,8.64-9.5,4.1-4.92,10.26-3.67,15.49-6.59A9.27,9.27,0,0,0,134.85,177.24Z" style="opacity: 0.2; transform-origin: 72.9152px 142.755px 0px;" class="animable"></path></g><path d="M45.23,112.83l25.25,50.06v-23L73.05,80l3.73,59.86v15.5l27.75-48.52L76.78,166.39V345.54a1.56,1.56,0,0,1-.92,1.29,4.94,4.94,0,0,1-4.46,0,1.58,1.58,0,0,1-.92-1.29V175.66Z" style="fill: rgb(55, 71, 79); transform-origin: 74.88px 213.681px 0px;" id="elt4qb8xgh2c" class="animable"></path></g></g><g id="freepik--Streetlight--inject-2" style="transform-origin: 253.47px 143.591px 0px;" class="animable"><g id="freepik--Light--inject-2" style="transform-origin: 253.47px 143.591px 0px;" class="animable"><path d="M236.37,32.61a3.14,3.14,0,0,1,2.86,0,1,1,0,0,1,.6.83V253.75a1,1,0,0,1-.6.83,3.2,3.2,0,0,1-2.86,0,1,1,0,0,1-.59-.83V33.44A1,1,0,0,1,236.37,32.61Z" style="fill: rgb(55, 71, 79); transform-origin: 237.805px 143.591px 0px;" id="elm6rqo8i0anj" class="animable"></path><path d="M244.62,78c0-6.35,9.5-15.86,9.5-15.86h7.54s9.5,9.51,9.5,15.86h0c0,2-1.3,3.92-3.89,5.41-5.18,3-13.58,3-18.76,0-2.59-1.49-3.89-3.45-3.89-5.41Z" style="fill: rgb(0, 255, 136); transform-origin: 257.89px 73.9px 0px;" id="ellv1irriz01" class="animable"></path><g id="elsrg2onzb6y8"><path d="M244.62,78c0-6.35,9.5-15.86,9.5-15.86h7.54s9.5,9.51,9.5,15.86h0c0,2-1.3,3.92-3.89,5.41-5.18,3-13.58,3-18.76,0-2.59-1.49-3.89-3.45-3.89-5.41Z" style="fill: rgb(255, 255, 255); opacity: 0.3; transform-origin: 257.89px 73.9px 0px;" class="animable"></path></g><path d="M261.14,61.73a7.22,7.22,0,0,0-6.5,0c-1.79,1-1.79,2.72,0,3.76a7.22,7.22,0,0,0,6.5,0C262.93,64.45,262.93,62.77,261.14,61.73Z" style="fill: rgb(0, 255, 136); transform-origin: 257.89px 63.61px 0px;" id="elwtaq2pmc77m" class="animable"></path><g id="eltjjhqa6cyr"><path d="M261.14,61.73a7.22,7.22,0,0,0-6.5,0c-1.79,1-1.79,2.72,0,3.76a7.22,7.22,0,0,0,6.5,0C262.93,64.45,262.93,62.77,261.14,61.73Z" style="fill: rgb(255, 255, 255); opacity: 0.2; transform-origin: 257.89px 63.61px 0px;" class="animable"></path></g><g id="elkzc79ojmjej"><path d="M261.14,61.73a7.22,7.22,0,0,0-6.5,0c-1.79,1-1.79,2.72,0,3.76a7.22,7.22,0,0,0,6.5,0C262.93,64.45,262.93,62.77,261.14,61.73Z" style="opacity: 0.2; transform-origin: 257.89px 63.61px 0px;" class="animable"></path></g><path d="M238.64,39.87a.54.54,0,0,1,.63,0h0l16.35,9.39a6.9,6.9,0,0,1,3.42,5.94v8.42h0a.59.59,0,0,1-.35.48,1.8,1.8,0,0,1-1.66,0,.59.59,0,0,1-.35-.48V55.19a4.54,4.54,0,0,0-2.24-3.89l-16.38-9.43h0a.55.55,0,0,1-.29-.55A1.85,1.85,0,0,1,238.64,39.87Z" style="fill: rgb(55, 71, 79); transform-origin: 248.403px 52.0357px 0px;" id="eleb210qlculo" class="animable"></path><path d="M235.78,33.42c0,.64.91,1.15,2,1.15s2-.51,2-1.15-.91-1.15-2-1.15S235.78,32.79,235.78,33.42Z" style="fill: rgb(69, 90, 100); transform-origin: 237.78px 33.42px 0px;" id="elwju6575dx7j" class="animable"></path></g></g><g id="freepik--Device--inject-2" style="transform-origin: 249.03px 333.111px 0px;" class="animable"><g id="freepik--device--inject-2" style="transform-origin: 249.03px 333.111px 0px;" class="animable"><g id="freepik--Mobile--inject-2" style="transform-origin: 249.03px 333.111px 0px;" class="animable"><path d="M33.78,388.16l138.08,79.71a14.86,14.86,0,0,0,14.41.27l278-160.51c3.06-1.77,7.86-5.74,7.82-10.64,0-2.64.12-5.35.12-6.69,0-4.45-3.55-10.1-7.93-12.63L326.7,198.24c-4.36-2.52-11.5-2.52-15.86,0L33.78,358.2c-4.38,2.53-7.93,8.19-7.93,12.64,0,.35.06,4.66.06,5.08C25.91,382.07,29.74,385.84,33.78,388.16Z" style="fill: rgb(55, 71, 79); transform-origin: 249.03px 333.111px 0px;" id="elpctd6e3sux7" class="animable"></path><path d="M171.86,467.87,33.78,388.16c-3.58-2.06-7.87-5.39-7.87-12.24,0-1.15-.06-4.27-.06-5.09,0-4.44,3.55-10.1,7.93-12.63l145.6-84.06V469.85A14.73,14.73,0,0,1,171.86,467.87Z" style="fill: rgb(38, 50, 56); transform-origin: 102.615px 371.995px 0px;" id="el3q8h5il54qb" class="animable"></path><path d="M175.15,449a15.51,15.51,0,0,0,14,0L464.31,290.1c5.92-3.42,5.92-9,0-12.42l-137.6-79.44c-4.36-2.52-11.49-2.52-15.86,0L33.79,358.2c-4.36,2.52-4.36,6.64,0,9.16Z" style="fill: rgb(69, 90, 100); transform-origin: 249.635px 323.51px 0px;" id="elpqn31nohhaf" class="animable"></path><path d="M188.51,433a16.67,16.67,0,0,0,15.07,0L440.37,296.27c4.16-2.4,4.16-6.3,0-8.7L310.93,212.84a16.75,16.75,0,0,0-15.08,0L59.07,349.55c-4.14,2.39-4.14,6.31,0,8.7Z" style="fill: rgb(55, 71, 79); transform-origin: 249.728px 322.924px 0px;" id="elk0mq0eoifnm" class="animable"></path><path d="M303.85,211.07a15.3,15.3,0,0,1,7.08,1.77l129.44,74.73c4.16,2.4,4.16,6.3,0,8.7l-25.66,14.81L303.85,240.29Z" style="fill: rgb(38, 50, 56); transform-origin: 373.67px 261.075px 0px;" id="el3fyyvku92sl" class="animable"></path><path d="M295.76,218.5a16.75,16.75,0,0,1,15.08,0l129.44,74.72a7.65,7.65,0,0,1,2,1.58,7.57,7.57,0,0,1-1.87,1.47L203.58,433a16.67,16.67,0,0,1-15.07,0L59.07,358.25a7.72,7.72,0,0,1-2-1.56A7.53,7.53,0,0,1,59,355.21Z" style="fill: rgb(250, 250, 250); transform-origin: 249.675px 325.754px 0px;" id="el9o8ivnye73o" class="animable"></path><path d="M393.05,252.62l-22.94-13.25c-1.37-.79-1.44-2-.15-2.77a5.31,5.31,0,0,1,4.8.09l22.94,13.24c1.37.79,1.44,2,.15,2.78A5.31,5.31,0,0,1,393.05,252.62Z" style="fill: rgb(38, 50, 56); transform-origin: 383.905px 244.655px 0px;" id="elvec1o9wl78d" class="animable"></path><path d="M353.66,229.91a1.42,1.42,0,0,1,0-2.69,5.15,5.15,0,0,1,4.65,0,1.42,1.42,0,0,1,0,2.69A5.15,5.15,0,0,1,353.66,229.91Z" style="fill: rgb(38, 50, 56); transform-origin: 355.985px 228.565px 0px;" id="eluvsrzevajji" class="animable"></path><ellipse cx="346.68" cy="223.19" rx="3.29" ry="1.9" style="fill: rgb(38, 50, 56); transform-origin: 346.68px 223.19px 0px;" id="el5ejj6wh2a39" class="animable"></ellipse><path d="M418.76,267.49c-1.29-.75-1.29-1.95,0-2.69a5.15,5.15,0,0,1,4.65,0c1.28.74,1.28,1.94,0,2.69A5.15,5.15,0,0,1,418.76,267.49Z" style="fill: rgb(38, 50, 56); transform-origin: 421.081px 266.145px 0px;" id="el3ibrfih6vpp" class="animable"></path><path d="M409.46,262.11c-1.29-.74-1.29-1.94,0-2.68a5.12,5.12,0,0,1,4.65,0c1.28.75,1.28,1.95,0,2.69A5.15,5.15,0,0,1,409.46,262.11Z" style="fill: rgb(38, 50, 56); transform-origin: 411.781px 260.771px 0px;" id="elukj0qmb0b9c" class="animable"></path></g><g id="freepik--Apps--inject-2" style="transform-origin: 244.327px 327.83px 0px;" class="animable"><path d="M324.12,248.24l-28.48-16.43a2.94,2.94,0,0,0-2.65,0l-28.44,16.42a.82.82,0,0,0,0,1.54L293,266.2a2.94,2.94,0,0,0,2.65,0l28.45-16.42A.82.82,0,0,0,324.12,248.24Z" style="fill: rgb(235, 235, 235); transform-origin: 294.33px 249.005px 0px;" id="elvfmcl9grfoa" class="animable"></path><path d="M237,298.53,208.55,282.1a3,3,0,0,0-2.66,0l-28.44,16.42a.81.81,0,0,0,0,1.53l28.47,16.43a2.88,2.88,0,0,0,2.65,0L237,300.06A.81.81,0,0,0,237,298.53Z" style="fill: rgb(235, 235, 235); transform-origin: 207.225px 299.296px 0px;" id="elfz1udnubdr" class="animable"></path><path d="M367.69,273.39,339.22,257a2.94,2.94,0,0,0-2.65,0l-28.44,16.42a.81.81,0,0,0,0,1.54l28.47,16.43a2.94,2.94,0,0,0,2.65,0l28.44-16.42A.81.81,0,0,0,367.69,273.39Z" style="fill: rgb(235, 235, 235); transform-origin: 337.946px 274.195px 0px;" id="eladbw6fbqhi4" class="animable"></path><path d="M280.57,273.39,252.09,257a2.88,2.88,0,0,0-2.65,0L221,273.38a.81.81,0,0,0,0,1.53l28.47,16.43a2.94,2.94,0,0,0,2.65,0l28.45-16.42A.81.81,0,0,0,280.57,273.39Z" style="fill: rgb(235, 235, 235); transform-origin: 250.785px 274.166px 0px;" id="el589qqbkujq" class="animable"></path><path d="M324.14,298.54,295.67,282.1a2.94,2.94,0,0,0-2.65,0l-28.44,16.43a.8.8,0,0,0,0,1.53l28.47,16.43a2.94,2.94,0,0,0,2.65,0l28.44-16.42A.8.8,0,0,0,324.14,298.54Z" style="fill: rgb(235, 235, 235); transform-origin: 294.36px 299.295px 0px;" id="el6mxh4wqp1h" class="animable"></path><path d="M367.68,323.71l-28.47-16.44a2.94,2.94,0,0,0-2.65,0L308.12,323.7a.8.8,0,0,0,0,1.53l28.47,16.43a2.94,2.94,0,0,0,2.65,0l28.44-16.42C368.42,324.81,368.42,324.13,367.68,323.71Z" style="fill: rgb(235, 235, 235); transform-origin: 337.895px 324.465px 0px;" id="el08bjfw4v42ns" class="animable"></path><path d="M280.73,323.6l-28.47-16.43a3,3,0,0,0-2.66,0l-28.44,16.42a.82.82,0,0,0,0,1.54l28.47,16.43a2.94,2.94,0,0,0,2.65,0l28.45-16.42A.82.82,0,0,0,280.73,323.6Z" style="fill: rgb(235, 235, 235); transform-origin: 250.945px 324.367px 0px;" id="eldl3xh3xld1j" class="animable"></path><path d="M324.27,348.77,295.8,332.34a3,3,0,0,0-2.66,0L264.7,348.76a.82.82,0,0,0,0,1.54l28.47,16.43a2.94,2.94,0,0,0,2.65,0l28.45-16.42A.82.82,0,0,0,324.27,348.77Z" style="fill: rgb(235, 235, 235); transform-origin: 294.485px 349.537px 0px;" id="elprbr9r6vux" class="animable"></path><path d="M411.23,298.56l-28.47-16.43a2.94,2.94,0,0,0-2.65,0l-28.44,16.42a.81.81,0,0,0,0,1.54l28.47,16.43a2.94,2.94,0,0,0,2.65,0l28.44-16.43C412,299.67,412,299,411.23,298.56Z" style="fill: rgb(235, 235, 235); transform-origin: 381.459px 299.325px 0px;" id="el8wfbxln9vr9" class="animable"></path><path d="M298.5,246.6c-2.64-1.53-7.28-1.34-10.33.43s-3.39,4.44-.74,6,7.27,1.34,10.33-.43S301.14,248.13,298.5,246.6Z" style="fill: rgb(250, 250, 250); transform-origin: 292.965px 249.821px 0px;" id="el5zpnmamflin" class="animable"></path><polygon points="293.32 239.05 295.48 240.29 294.53 240.84 292.38 239.6 293.32 239.05" style="fill: rgb(250, 250, 250); transform-origin: 293.93px 239.945px 0px;" id="elnod624v5zyd" class="animable"></polygon><path d="M310.73,251.08l-4.09-2.36c-.77-.45-.68-1.23.22-1.74s1-1.3.22-1.75l-6.21-3.58a3.36,3.36,0,0,0-3,.12,3.36,3.36,0,0,1-3,.13l-4.08-2.36a3.34,3.34,0,0,0-3,.13l-13.49,7.78c-.9.52-1,1.3-.22,1.75l20,11.54a3.34,3.34,0,0,0,3-.13l13.49-7.78C311.4,252.31,311.5,251.53,310.73,251.08Zm-24.66,2.69c-3.29-1.9-2.87-5.23.93-7.42s9.56-2.43,12.85-.53,2.88,5.23-.92,7.42S289.36,255.67,286.07,253.77Zm17.23-2.84c-.43-.25-.37-.67.12-1a1.82,1.82,0,0,1,1.65-.06c.42.24.37.67-.12,1A1.85,1.85,0,0,1,303.3,250.93Z" style="fill: rgb(250, 250, 250); transform-origin: 292.404px 250.14px 0px;" id="el0to9di3m8kjj" class="animable"></path><path d="M216,307.58h0a.33.33,0,0,0,0-.16l-1-2a.37.37,0,0,1,.13-.51c.32-.15.63-.31.92-.47a10.56,10.56,0,0,0,.93-.59,1,1,0,0,1,.69-.12l3.83.64a.7.7,0,0,0,.61-.17l1.66-2.32a.14.14,0,0,0,0-.1v0a.36.36,0,0,0-.29-.27l-3.42-1.08c-.24-.08-.4-.28-.37-.45a4.43,4.43,0,0,0,0-1.31.42.42,0,0,1,.26-.46l3.61-1.15a.22.22,0,0,0,.17-.22.46.46,0,0,0-.08-.24l-1.52-2.11a.74.74,0,0,0-.62-.29l-4,.67a1.25,1.25,0,0,1-.76-.22,11.57,11.57,0,0,0-1.6-.92c-.24-.12-.37-.32-.29-.48l1.09-2.15c.07-.15-.06-.32-.3-.38l-4-1a.76.76,0,0,0-.65.12l-1.92,2a.9.9,0,0,1-.63.2,22.9,22.9,0,0,0-2.62,0,1,1,0,0,1-.7-.3L203.49,290a.79.79,0,0,0-.67-.25l-4.18,1a.3.3,0,0,0-.17.45l1,2a.35.35,0,0,1-.12.5,11.35,11.35,0,0,0-1.85,1.07,1.1,1.1,0,0,1-.69.12L193,294.2a.67.67,0,0,0-.61.18l-1.67,2.32a.17.17,0,0,0,0,.1h0a.16.16,0,0,0,0,.09h0a.45.45,0,0,0,.26.19l3.41,1.07a.47.47,0,0,1,.37.46,4,4,0,0,0,0,1.3.41.41,0,0,1-.27.46l-3.61,1.15a.23.23,0,0,0-.17.22h0a.4.4,0,0,0,.09.23l1.51,2.11a.69.69,0,0,0,.62.29l4-.66a1.26,1.26,0,0,1,.76.21,8.67,8.67,0,0,0,.78.5c.26.15.53.29.82.43s.36.32.29.47l-1.09,2.16a.11.11,0,0,0,0,.08c0,.13.12.25.31.29l4,1a.73.73,0,0,0,.65-.12l1.92-2a.9.9,0,0,1,.63-.19,22.71,22.71,0,0,0,2.61,0,1,1,0,0,1,.71.31l1.72,1.81a.79.79,0,0,0,.67.24l4.17-1A.29.29,0,0,0,216,307.58Zm-15.18-6.19-.11-.11-.07-.08-.15-.18-.15-.21-.09-.15,0-.06a2.61,2.61,0,0,1,.2-2.93,4.44,4.44,0,0,1,1-1,4.93,4.93,0,0,1,.63-.42,11.61,11.61,0,0,1,8-.89,8.6,8.6,0,0,1,2.36.9,5.35,5.35,0,0,1,.61.4,4,4,0,0,1,1.25,1.39v0a.3.3,0,0,1,0,.08.36.36,0,0,1,0,.09l0,.09a2.6,2.6,0,0,1-.37,2.56c-1.56,2.17-5.85,3.19-9.59,2.3A7.41,7.41,0,0,1,200.86,301.39Z" style="fill: rgb(250, 250, 250); transform-origin: 207.245px 299.299px 0px;" id="elpcwdm3j2dj7" class="animable"></path><path d="M203.41,300.55l-.06-.07,0,0-.09-.11a1.13,1.13,0,0,1-.1-.13.41.41,0,0,0-.05-.09l0,0a1.55,1.55,0,0,1,.12-1.75,2.54,2.54,0,0,1,.59-.59c.12-.09.25-.17.38-.25a7,7,0,0,1,4.78-.54,5.18,5.18,0,0,1,1.41.55,3.32,3.32,0,0,1,.37.23,2.55,2.55,0,0,1,.75.84h0l0,.05,0,.05a.14.14,0,0,1,0,.06,1.54,1.54,0,0,1-.22,1.53c-.93,1.3-3.51,1.92-5.75,1.38A4.54,4.54,0,0,1,203.41,300.55Z" style="fill: rgb(250, 250, 250); transform-origin: 207.258px 299.364px 0px;" id="elox2tmvmwk8f" class="animable"></path><path d="M335,281a22.77,22.77,0,0,0,11.47-2.76c5.76-3.32,6.42-8.32,1.48-11.17s-13.6-2.47-19.36.85-6.41,8.32-1.47,11.17a12.58,12.58,0,0,0,2.8,1.17c-.54.94-1.32,3.2,2.42,4.63C332.36,284.86,332.24,283,335,281Z" style="fill: rgb(250, 250, 250); transform-origin: 337.533px 275.024px 0px;" id="el3gueaqeofvp" class="animable"></path><path d="M249.8,280a28.49,28.49,0,0,0,11.49-3.76,21.93,21.93,0,0,0,4.49-.23,14.47,14.47,0,0,1-3.09-.93,10.88,10.88,0,0,0,4.41-.47,15.8,15.8,0,0,1-3.75-.84,2.48,2.48,0,0,0-1.49-2.59c-2.65-1.52-7.44-1-9.8,1.05-3.21-2.08-4.34-4.91-3.5-7.73-3.2.61-5.47,2.52-5.05,4.38a2.88,2.88,0,0,1-1.26-1.41c-2.24,1.24-2.93,3.21-1.42,4.61a5.08,5.08,0,0,1-1.93-1,2.41,2.41,0,0,0,.54,4.1,14.08,14.08,0,0,1-8-2.37,8.18,8.18,0,0,0,4.15,4.86c4.06,2.34,9.27,2.92,14.23,2.35" style="fill: rgb(250, 250, 250); transform-origin: 249.27px 272.362px 0px;" id="elneur6sk7mg" class="animable"></path><path d="M308.28,302.13a9.38,9.38,0,0,0,2.22-1.79,3.22,3.22,0,0,0,.84-1.75,2.34,2.34,0,0,0-.42-1.69,5.49,5.49,0,0,0-1.79-1.62c-.95-.62-1.26-.81-3.83-2.3s-2.91-1.66-4-2.21a10.86,10.86,0,0,0-5.74-1.28,12.8,12.8,0,0,0-3,.49,15.26,15.26,0,0,0-3.1,1.28c-1.21.65-1.59.85-4.56,2.57s-3.33,1.94-4.45,2.64a9.18,9.18,0,0,0-2.22,1.78,3.29,3.29,0,0,0-.84,1.75,2.39,2.39,0,0,0,.41,1.7,5.83,5.83,0,0,0,1.79,1.62c1,.61,1.27.81,3.84,2.29s2.91,1.67,4,2.22a11.08,11.08,0,0,0,2.81,1,10.85,10.85,0,0,0,2.94.24,12.39,12.39,0,0,0,3-.49,15.11,15.11,0,0,0,3.09-1.27c1.22-.65,1.6-.86,4.57-2.57S307.16,302.83,308.28,302.13Zm-10.63,4.17a11,11,0,0,1-2.36,1,7.65,7.65,0,0,1-2,.32,7,7,0,0,1-1.91-.16,8.28,8.28,0,0,1-2.14-.79c-1-.55-1.36-.72-3.89-2.18s-2.81-1.64-3.76-2.24a4.23,4.23,0,0,1-1.38-1.24,1.47,1.47,0,0,1-.27-1.1,2,2,0,0,1,.55-1.13,6.8,6.8,0,0,1,1.7-1.36c1.11-.69,1.45-.9,4.37-2.59s3.27-1.88,4.47-2.51a11.21,11.21,0,0,1,2.36-1,8.11,8.11,0,0,1,2-.32,7,7,0,0,1,1.91.16,8.24,8.24,0,0,1,2.13.8c1.06.54,1.37.71,3.9,2.17s2.81,1.64,3.76,2.25a4.24,4.24,0,0,1,1.38,1.23,1.52,1.52,0,0,1,.27,1.1,2.05,2.05,0,0,1-.55,1.14,7,7,0,0,1-1.7,1.36c-1.11.69-1.45.89-4.37,2.58S298.85,305.66,297.65,306.3ZM300,296.06c-2.69-1.56-7.38-1.36-10.48.43s-3.44,4.5-.76,6.05,7.38,1.36,10.48-.43S302.66,297.61,300,296.06Zm-9.27,5.34c-1.74-1-1.52-2.76.49-3.93a7.58,7.58,0,0,1,6.8-.28c1.75,1,1.53,2.77-.48,3.93A7.57,7.57,0,0,1,290.71,301.4Zm15.85-3.31a2.71,2.71,0,0,0-2.44.1c-.73.42-.81,1.05-.18,1.41a2.7,2.7,0,0,0,2.45-.1C307.11,299.08,307.19,298.45,306.56,298.09Z" style="fill: rgb(250, 250, 250); transform-origin: 294.365px 299.28px 0px;" id="elkm6p9a7jar" class="animable"></path><path d="M316.16,329.86l4.64,2.68,13.43-7.75,3.24,1.87,4.84-2.39-3.59-2.07,2.56-1.48c1.06-.61,1.66-.75,2.55-.24l2.52,1.45,4.66-2.69-3.21-1.86a9.44,9.44,0,0,0-10.14.07l-3.58,2.07-2.42-1.4-4.55,2.63,2.42,1.39Z" style="fill: rgb(250, 250, 250); transform-origin: 333.585px 324.239px 0px;" id="el9522xv042k5" class="animable"></path><path d="M252.4,325.11l-2.75-1.59c-4.41-2.54-11.54-2.54-15.94,0l-1.19.68s-.13,2.25,7.42,6.5,11.27,4.3,11.27,4.3l1-.59C256.63,331.87,256.8,327.65,252.4,325.11Zm-.33-1.65a10.72,10.72,0,0,0,9.71,0c2.68-1.54,2.68-4,0-5.6a10.75,10.75,0,0,0-9.71,0C249.39,319.41,249.4,321.92,252.07,323.46Z" style="fill: rgb(250, 250, 250); transform-origin: 248.155px 325.851px 0px;" id="elrcrt07mdzzh" class="animable"></path><path d="M310.18,348.68,296,340.47a9.89,9.89,0,0,0-8.93,0l-8.26,4.77c-2.46,1.42-2.46,3.73,0,5.15L293,358.6a9.87,9.87,0,0,0,8.92,0l8.26-4.77C312.65,352.41,312.65,350.1,310.18,348.68ZM299,352.58l-11.48-2.2c-.61-.12-.66-.47-.13-.78l7.18-4.14a1.12,1.12,0,0,1,1.53.41l3.44,5.95C299.89,352.36,299.65,352.7,299,352.58Z" style="fill: rgb(250, 250, 250); transform-origin: 294.499px 349.535px 0px;" id="el9un9xdolgfn" class="animable"></path><path d="M137,355.58l-28.47-16.43a2.88,2.88,0,0,0-2.65,0L77.39,355.57a.81.81,0,0,0,0,1.53l28.47,16.43a2.9,2.9,0,0,0,2.66,0L137,357.11A.81.81,0,0,0,137,355.58Z" style="fill: rgb(224, 224, 224); transform-origin: 107.195px 356.34px 0px;" id="elbcafwv3cjeb" class="animable"></path><path d="M180.54,380.73,152.07,364.3a2.9,2.9,0,0,0-2.66,0L121,380.72a.81.81,0,0,0,0,1.53l28.47,16.43a2.88,2.88,0,0,0,2.65,0l28.45-16.42A.81.81,0,0,0,180.54,380.73Z" style="fill: rgb(224, 224, 224); transform-origin: 150.778px 381.49px 0px;" id="elwq004pqelcq" class="animable"></path><path d="M149.5,381.6l20.14.15-21.48-12.4.27,11.62C148.43,381.34,148.87,381.59,149.5,381.6Zm-3.15.56.05-11.8-13.93,8c-.67.39-.81.94-.3,1.23L151.83,391a2.41,2.41,0,0,0,2.13-.18l13.92-8-20.43,0C146.8,382.79,146.35,382.53,146.35,382.16Z" style="fill: rgb(250, 250, 250); transform-origin: 150.751px 380.259px 0px;" id="el387snuskz6w" class="animable"></path><path d="M224.08,405.9l-28.47-16.43a2.9,2.9,0,0,0-2.66,0l-28.44,16.42a.81.81,0,0,0,0,1.53L193,423.85a2.94,2.94,0,0,0,2.65,0l28.45-16.42A.81.81,0,0,0,224.08,405.9Z" style="fill: rgb(224, 224, 224); transform-origin: 194.3px 406.656px 0px;" id="eldwyvr3ukrr7" class="animable"></path><path d="M198.35,394.92l-15.56,9a7.07,7.07,0,0,0-1.39-1,7.27,7.27,0,0,0-6.58,0c-1.82,1.05-1.82,2.75,0,3.8s5.49,1.44,7.31.4l14.26-8.24L206.88,405l-11.17,6.45a7.15,7.15,0,0,0-1.4-1,6,6,0,0,0-5.95.34c-1.82,1-1.82,2.75,0,3.8a7.27,7.27,0,0,0,6.58,0h0l18.66-10.77Z" style="fill: rgb(250, 250, 250); transform-origin: 193.528px 405.149px 0px;" id="el4ls3bvbu8rq" class="animable"></path><path d="M113.5,365.43c.91-.82.3-2.06-.09-2.88l-.19-.38a4.3,4.3,0,0,0-3-2.75,9.46,9.46,0,0,0-3.21.09c-.45.06-.88.12-1.26.14-.57,0-.67-.12-.73-.18a7,7,0,0,1-1-7.5c.08-.24.3-.41,1.06-.44l.3,0a10.53,10.53,0,0,0,3.37-.5,4.66,4.66,0,0,0,2.13-2l.22-.34c.58-.86,1.23-1.85.74-2.85-.58-1.2-2.43-1.73-3.85-1.81a12.17,12.17,0,0,0-6.8,1.53,7.3,7.3,0,0,0-1.33,1A8.22,8.22,0,0,0,98,349.32a15.38,15.38,0,0,0-.78,2.18,11.24,11.24,0,0,0,.49,7.33,13,13,0,0,0,1.79,3.07l.4.48.22.26a9.24,9.24,0,0,0,3.93,3,13.27,13.27,0,0,0,7.55.65A4.52,4.52,0,0,0,113.5,365.43Z" style="fill: rgb(250, 250, 250); transform-origin: 105.399px 355.283px 0px;" id="ele32r2dmn5gg" class="animable"></path><path d="M403.66,298.56,382.77,286.5a2.94,2.94,0,0,0-2.65,0l-20.88,12.06a.81.81,0,0,0,0,1.53l20.88,12.06a3,3,0,0,0,2.66,0l20.88-12.06A.81.81,0,0,0,403.66,298.56Zm-18.07,10.29,0-5.94-4.79-.61-1.05,3.25.67-9.13-13.65-.55,14.66-8.46,20.64,11.91Zm4.34-8.2a3.71,3.71,0,0,0,3.34,0c.93-.54.93-1.4,0-1.93a3.65,3.65,0,0,0-3.34,0A1,1,0,0,0,389.93,300.65Z" style="fill: rgb(250, 250, 250); transform-origin: 381.45px 299.323px 0px;" id="ela0ik4bniw8p" class="animable"></path></g></g></g><g id="freepik--character-2--inject-2" style="transform-origin: 356.701px 215.098px 0px;" class="animable"><g id="freepik--Character--inject-2" style="transform-origin: 356.701px 215.098px 0px;" class="animable"><g id="freepik--shadow--inject-2"><path d="M394.21,312.16c-21.38,8.7-29.94,30.22-56.58,28.81-9.29,0-22.55-5.83-15.2-15.29,14.2-13.81,35.85-12,52.28-22.92,5.94-3.68,11.64-9.67,17.86-12.82,6.71-3.05,14.17-5.14,21.45-2.77a6,6,0,0,1,4.78,6.13C418.8,302.83,401.76,308.55,394.21,312.16Z" style="opacity: 0.15; transform-origin: 369.551px 313.591px 0px;" class="animable"></path></g><path d="M399.79,152.51c-.41.18-4.54-.78-8.43-2.29V135.53A8.23,8.23,0,0,1,398,141.8C400.79,151.73,399.79,152.51,399.79,152.51Z" style="fill: rgb(38, 50, 56); transform-origin: 395.662px 144.031px 0px;" id="elnxbbmteovs" class="animable"></path><path d="M369.38,128.68c-3.66-.07-7.94,1.75-9.22,4.59-.22.49-1.76,4.23-1.76,4.23-2,9.93-5.77,35.5-3.16,38.67,3.91,4.75,23.17,14.05,31.6,13.78,7-.21,13.68-6.55,14.65-8.46,3.18-6.27-5.16-41.23-7.37-44.73C390.54,131.07,374,128.75,369.38,128.68Z" style="fill: rgb(0, 255, 136); transform-origin: 378.277px 159.317px 0px;" id="el3yjgla5bqbo" class="animable"></path><g id="el2i76wxzz14g"><path d="M355.24,176.17c3.91,4.75,23.17,14.05,31.6,13.78a15.09,15.09,0,0,0,5.48-1.32,3.45,3.45,0,0,1-4.91-2.57c-.64-2.57-1.71-23-1.71-40.57l-27.3-8C356.35,147.43,352.63,173,355.24,176.17Z" style="opacity: 0.18; transform-origin: 373.332px 163.723px 0px;" class="animable"></path></g><g id="elnqhe7it5a8q"><path d="M395,138.63a9.69,9.69,0,0,0-.87-2.2c-3.58-5.68-20.08-8-24.74-8.08-3.66-.06-7.94,1.76-9.22,4.6-.21.47-1.76,4.23-1.76,4.23C365.72,141.06,384,145,386,144.3,388.34,143.44,395,138.63,395,138.63Z" style="opacity: 0.5; transform-origin: 376.705px 136.365px 0px;" class="animable"></path></g><path d="M400,165.65c-.18-.08-2.79-1.9-3.09-2-.53-.25-7.89,5.11-8.56,6-.47.62.81,13.33,1.12,14,.12.24,3,1.81,3.09,2,.32.65,8.1-4.8,8.56-6.08S400.77,166,400,165.65Z" style="fill: rgb(0, 255, 136); transform-origin: 394.751px 174.673px 0px;" id="ely1zao7353ss" class="animable"></path><g id="elgte8egpy94"><path d="M400,165.65c-.18-.08-2.79-1.9-3.09-2-.53-.25-7.89,5.11-8.56,6-.47.62.81,13.33,1.12,14,.12.24,3,1.81,3.09,2,.32.65,8.1-4.8,8.56-6.08S400.77,166,400,165.65Z" style="opacity: 0.18; transform-origin: 394.751px 174.673px 0px;" class="animable"></path></g><path d="M391.43,171.65c-.47.62.81,13.33,1.13,14s8.1-4.8,8.56-6.08S400.77,166,400,165.65C399.47,165.41,392.1,170.76,391.43,171.65Z" style="fill: rgb(0, 255, 136); transform-origin: 396.291px 175.674px 0px;" id="eleizgp9p9z4o" class="animable"></path><g id="elco11ybs35v6"><path d="M396.92,163.61c.29.14,2.9,2,3.07,2-.52-.24-7.89,5.11-8.56,6l-3.08-2C389,168.72,396.38,163.36,396.92,163.61Z" style="opacity: 0.4; transform-origin: 394.17px 167.606px 0px;" class="animable"></path></g><g id="elrnc0wdz19t"><path d="M391.43,171.65c-.47.62.81,13.33,1.13,14s8.1-4.8,8.56-6.08S400.77,166,400,165.65C399.47,165.41,392.1,170.76,391.43,171.65Z" style="opacity: 0.3; transform-origin: 396.291px 175.674px 0px;" class="animable"></path></g><path d="M388.35,169.61c.55-.39,2.26.45,3,1s1.64,3.49,3.52,3.89,4.44-2.17,4.94-3.78,1-5,.1-6.11a3.07,3.07,0,0,0-3.85-1C394.76,164.43,388.46,168.14,388.35,169.61Z" style="fill: rgb(0, 255, 136); transform-origin: 394.379px 168.922px 0px;" id="el3bwdhv1nls" class="animable"></path><g id="elapihph3jiu"><path d="M388.35,169.61c.55-.39,2.26.45,3,1s1.64,3.49,3.52,3.89,4.44-2.17,4.94-3.78,1-5,.1-6.11a3.07,3.07,0,0,0-3.85-1C394.76,164.43,388.46,168.14,388.35,169.61Z" style="opacity: 0.1; transform-origin: 394.379px 168.922px 0px;" class="animable"></path></g><path d="M396.56,171.06a1.4,1.4,0,0,0-.61,1.32.56.56,0,0,0,.87.46,1.38,1.38,0,0,0,.61-1.31C397.35,171,397,170.82,396.56,171.06Z" style="fill: rgb(55, 71, 79); transform-origin: 396.69px 171.945px 0px;" id="eln6nadrzo33" class="animable"></path><path d="M385.7,145.17s2.58-1.77,5.7-3.57,4.86-2.42,6,1.2a81.35,81.35,0,0,1,2.42,9.71c.59-.29.53-1.36.11-6-.6-6.72.25-9.72-6.71-12.42-10.8-4.17-19.86-7.46-26-6.07s-7.62,4.84-8.75,9.15C358.4,137.18,365.91,144,385.7,145.17Z" style="fill: rgb(55, 71, 79); transform-origin: 379.362px 140.103px 0px;" id="elap7if4oczd" class="animable"></path><g id="freepik--Bottom--inject-2" style="transform-origin: 369.936px 251.744px 0px;" class="animable"><path d="M381.09,304.42c-.26-2.72,2.5-4.08,3.9-5.45,2.17-2.12,3.15-5.69,3.49-8.49.42-3.5,1.15-5.94-.55-9.36-2-4.05-4.91-8.86-15.14-21l16.07-5.92c2.37,5.22,7.87,16,7.87,16l.51.95c1.19,1.94,1.81,3.41,3.79,5.19l.74.52c1.24,1.13,4.57,2.59,4.08,5.92s-1.86,4-3.68,6.56a10.26,10.26,0,0,0-2.45,5.77c-.41,2.68-.38,3.86-.66,6.28-.24,2-2.44,4.74-6.39,5.59C386.91,308.2,381.35,307.1,381.09,304.42Z" style="fill: rgb(177, 102, 104); transform-origin: 389.344px 280.838px 0px;" id="eld8us3wcqbs7" class="animable"></path><path d="M407.8,283.13A38.54,38.54,0,0,1,411,291l-4.51,5L404,290.06A20.63,20.63,0,0,0,407.8,283.13Z" style="fill: rgb(38, 50, 56); transform-origin: 407.5px 289.565px 0px;" id="elbfhy2d1j2uc" class="animable"></path><path d="M406.48,296l-5.17-1a4.78,4.78,0,0,1,.94-3.26,6.59,6.59,0,0,1,1.76-1.65Z" id="elb6ox18hvj4t" style="transform-origin: 403.887px 293.045px 0px;" class="animable"></path><path d="M406.91,281.75a4,4,0,0,1,.87,1.25,10.24,10.24,0,0,1-1.85,5.52c-1.3,1.53-3.3,3.07-4,5.39s-.23,6.08-1.58,9.29-4.93,6.6-11.81,6.64c-4.92,0-6.62-1.14-8.11-2.39-.3-2.22-.17-2.78,2.7-4.26S406.91,281.75,406.91,281.75Z" style="fill: rgb(38, 50, 56); transform-origin: 394.05px 295.795px 0px;" id="els8il4hbpz8i" class="animable"></path><path d="M399,271.85c1.82,2.94,2.47,4.06,4.31,5.51a9.16,9.16,0,0,1,3.56,4.39c.12,2.94-.59,4.06-3.63,7.42a11,11,0,0,0-3.26,7.34c-.48,4.19.71,6.35-4.79,10-4.28,2.85-12.73,2-14.71-.6-1.22-6,3.74-4.91,5.7-10.82,1.09-3.27,2.14-6.9,1.55-10.37a11.77,11.77,0,0,0-1.16-3.38c-.48-1-2-3.21-.88-4.22l.61,1.05a8.22,8.22,0,0,0,6.11-1.15c5.21-3.32,4.79-5.88,4.79-5.88l-.51-.95C397.28,269.67,398,270.19,399,271.85Z" style="fill: rgb(55, 71, 79); transform-origin: 393.586px 289.143px 0px;" id="el1tehbnc502s" class="animable"></path><path d="M333.39,334.15a15.9,15.9,0,0,0,4.16.65,25.25,25.25,0,0,0,4.05-.46,6.17,6.17,0,0,0,2.19-.81,17.74,17.74,0,0,0,4.86-3.74,20.09,20.09,0,0,0,2.36-3.55,15.38,15.38,0,0,1,2.26-3.13,8.54,8.54,0,0,1,1.72-1.45,22.23,22.23,0,0,1,2.58-1,9.65,9.65,0,0,0,2.12-1.26,4,4,0,0,0,1.22-1.5,3.85,3.85,0,0,0,.38-1.87,11.34,11.34,0,0,0-.82-3.06,15.87,15.87,0,0,1-.71-2.73,17.73,17.73,0,0,1-.05-3.26,25.48,25.48,0,0,1-.15-2.75l.19-1.24a157.15,157.15,0,0,1,2.9-15.48l-15.94-7.81c-.07,5.7,0,10.85-.22,16.55,0,1-.09,3.87-.08,6.2v1.22a41.08,41.08,0,0,1-.05,4.53,37.45,37.45,0,0,1-1.15,4.84,31.44,31.44,0,0,1-4.25,7.39,23.06,23.06,0,0,1-4.5,4.22c-.49.4-1.06.71-1.56,1.1a21.6,21.6,0,0,1-2.07,1.35c-.59.36-1.1.84-1.69,1.2-.78.48-1.86,1-2,2.05a2.71,2.71,0,0,0,.72,2.08A7.2,7.2,0,0,0,333.39,334.15Z" style="fill: rgb(177, 102, 104); transform-origin: 345.89px 307.25px 0px;" id="eljeivlc626a" class="animable"></path><path d="M362,320.18s-.68,4.26-1,7a15.3,15.3,0,0,1-3.32,2.25l-1.51-6.76Z" style="fill: rgb(38, 50, 56); transform-origin: 359.085px 324.805px 0px;" id="el4tauce7uftf" class="animable"></path><path d="M357.7,329.42,352,327.78s1.42-3.34,2.78-4.23a4.65,4.65,0,0,1,2.79-.73Z" id="el59ze3pxoli8" style="transform-origin: 354.85px 326.116px 0px;" class="animable"></path><path d="M329.59,333.16c-.26.74.57,2,3.11,2.77,3.62,1.07,10,1,14.17-2a18.15,18.15,0,0,0,6.35-7.2c.94-1.74,1.64-3.1,4.39-3.91s3.68-1.7,4.43-2.64c0,0,.89-2.37-.56-3.27S329.59,333.16,329.59,333.16Z" style="fill: rgb(38, 50, 56); transform-origin: 345.927px 326.717px 0px;" id="el5fs0wyqtch8" class="animable"></path><path d="M362.13,319c-1.76,1.83-3.73,2.38-6.18,3.08-3.46,1-4.46,7.52-9.2,10.62-6.44,4.21-14.21,3-17.16.45-1.17-2.21-1.14-3.89,1.83-5.86,4.57-3,8.18-6.49,9.75-9,2-3.23,2.53-5.12,3.26-8.82.21-1.07.38-2.62.51-3.7.19-1.74.58-3.34,1.47-3.37v1.22c1.19,1.1,5.12,1.77,6.89,1.77,2.22,0,5-.22,6.26-1.21l.19-1.24c1.35.26.58,3.21.62,4.1.08,2-.09,4.14.84,6C362,314.75,362.89,317.44,362.13,319Z" style="fill: rgb(55, 71, 79); transform-origin: 345.645px 318.934px 0px;" id="el1pkl93e8osl" class="animable"></path><path d="M375.17,203l-10.06-16.64s-15-9.93-20.4-16.48a64,64,0,0,0-5.1,31.92A84.9,84.9,0,0,0,354.27,241c4.36,6.14,27.61,30.83,27.61,30.83,2.56-.14,10.12-5.06,11.34-8.63,0,0-4.65-10.39-7.46-15.77-3.68-7-4.65-10.31-12.15-16.6C374.85,224.06,375.17,203,375.17,203Z" style="fill: rgb(55, 71, 79); transform-origin: 366.265px 220.855px 0px;" id="el85q6i1lthm9" class="animable"></path><path d="M390,262.25l.55-.28-.27-.52c-6.61-12.69-12.91-24.49-29.59-29.65l-.18.59c16.43,5.08,22.67,16.76,29.22,29.35Z" style="fill: rgb(38, 50, 56); transform-origin: 375.53px 247.025px 0px;" id="elg4akyidid4i" class="animable"></path><path d="M378.64,235.63c-.24-.27-.49-.55-.76-.83l-.32-.33c-.25-.27-.52-.53-.79-.8l-.39-.37-.92-.86-.39-.35c-.46-.41-.94-.83-1.46-1.27.05-.27.1-.58.14-.91a1.87,1.87,0,0,0,0-.25c0-.31.09-.63.13-1a.22.22,0,0,1,0-.08c0-.38.08-.78.13-1.19a2.64,2.64,0,0,0,0-.28c0-.38.08-.77.11-1.18a.49.49,0,0,0,0-.12c0-.46.08-.93.12-1.42v-.23c0-.46.07-.93.1-1.41v-.08c0-.54.07-1.08.1-1.63v0l.09-1.65v0L354,198.74s-7.13-2.43-10.07-7c1.59,5.17,7.25,8.12,7.25,8.12l-3.59,29.7.36.73c.14.28.28.56.41.84l.68,1.29.33.64c.33.6.65,1.18,1,1.73l.34.59c.21.37.43.73.64,1.08l.37.62.58.92.35.55.58.89c.09.13.19.27.27.4.28.4.54.79.79,1.14,2.35,3.31,10.17,12,16.9,19.3.45-3.22.8-7.92-.16-11.78l7.79-12.7Z" style="fill: rgb(38, 50, 56); transform-origin: 361.375px 226.01px 0px;" id="elhdm2rdp8tgi" class="animable"></path><path d="M378.71,220.75c3.3-9.27,5.38-15.14,6.53-21.63,1.64-9.25.11-14.54-1.17-17.46-3.85-8.8-6-11.69-7.4-14.73,0,0-2.91,6.06-16.07,7.17-15.05,1.28-16.83-4.22-16.83-4.22.49,5.54-1.15,12.64.57,17.27,3.47,9.29,9.67,11.59,9.67,11.59l-4.28,25.92c-1.64,13.59-3.2,16-3.3,42.69,0,11.74-.09,30.35-.09,30.35,1.81,1.14,10.44,2.43,13.64,1.09,0,0,3.2-12.05,5.08-20.08,3.61-15.36,4.09-19.31,3-26.67C368,252,374.92,231.37,378.71,220.75Z" style="fill: rgb(55, 71, 79); transform-origin: 364.743px 233.146px 0px;" id="elf9t20crggbt" class="animable"></path><path d="M357.23,299.32c1.49-7.18,4.47-21.77,5.76-29.48a51.85,51.85,0,0,0,.71-14.08,30.53,30.53,0,0,1-.13-4c.23-4.47,4.32-18.92,7.8-29.31,3.09-9.17,6.27-18.64,7.18-24.19l-.31,0a5.42,5.42,0,0,1-3.42-1.23c-3.09-2.43-5.2-8.35-6.26-17.59l.61-.07c1,8.95,3.12,14.89,6,17.18a4.84,4.84,0,0,0,3.45,1.07c1.28-8.83-1-15.15-3-20.74-.56-1.55-1.08-3-1.53-4.49l.6-.18c.43,1.46,1,2.92,1.51,4.46,2.06,5.71,4.39,12.18,3,21.28-.84,5.55-4.11,15.27-7.27,24.68-3.32,9.89-7.54,24.75-7.77,29.15a31.06,31.06,0,0,0,.12,3.94,52.09,52.09,0,0,1-.71,14.23c-1.28,7.66-4.23,22.08-5.73,29.32C357.66,299.29,357.45,299.3,357.23,299.32Z" style="fill: rgb(38, 50, 56); transform-origin: 368.425px 235.765px 0px;" id="eld1ibqyabl6l" class="animable"></path><path d="M360.32,299.36s-2.56,1.26-7.83.65-6.25-2.27-6.25-2.27V290s1.91,1.79,7.35,2.38c5.7.63,8.33-.47,8.33-.47Z" style="fill: rgb(69, 90, 100); transform-origin: 354.08px 295.088px 0px;" id="el9tbrfnlg6w" class="animable"></path><path d="M394.94,266.66s0,3.19-4.5,6.07a10.19,10.19,0,0,1-6.82,1.66l-4.5-5.27s2.56.94,7-2.24a12.84,12.84,0,0,0,5.26-8Z" style="fill: rgb(69, 90, 100); transform-origin: 387.03px 266.667px 0px;" id="el6c5ogvuehai" class="animable"></path></g><g id="freepik--Top--inject-2" style="transform-origin: 346.186px 139.413px 0px;" class="animable"><path d="M351.77,131.87c-5,.59-8.08,1.68-11.3,6.52s-9,13.24-14,20.85l-15.21-5-5.21,9.06s17.33,9,21.36,9.66,4.77-.39,7.63-3.37c3.18-3.32,14-16.33,14-16.33Z" style="fill: rgb(177, 102, 104); transform-origin: 328.91px 152.51px 0px;" id="el3rtnnqqe6mr" class="animable"></path><path d="M294.9,138.39h0l1-.9h0a1.16,1.16,0,0,1,1-.16l11,2.52a4,4,0,0,1,2.53,2.18l8.71,22.22a1,1,0,0,1-.1,1.16h0l-1,.93h0a1.12,1.12,0,0,1-1,.17L306,164a4,4,0,0,1-2.53-2.18l-8.71-22.23A1,1,0,0,1,294.9,138.39Z" style="fill: rgb(69, 90, 100); transform-origin: 306.951px 151.921px 0px;" id="el8w8p804b74j" class="animable"></path><path d="M308.08,141.34A4,4,0,0,1,309.4,143l8.72,22.21a1.1,1.1,0,0,1-.07,1.14l.94-.87h0a1,1,0,0,0,.1-1.16L310.37,142a3.8,3.8,0,0,0-1.22-1.52Z" style="fill: rgb(38, 50, 56); transform-origin: 313.655px 153.415px 0px;" id="el148t05g1aisi" class="animable"></path><path d="M318.11,165.17,309.4,143a4,4,0,0,0-2.53-2.18l-11-2.52c-1-.24-1.53.36-1.15,1.33l8.71,22.23A4,4,0,0,0,306,164l11,2.52C318,166.74,318.49,166.14,318.11,165.17Z" style="fill: rgb(55, 71, 79); transform-origin: 306.418px 152.406px 0px;" id="el4zq8i154mpc" class="animable"></path><path d="M309.58,147.67,308,143.52a.75.75,0,0,0-.48-.41l-2.05-.47c-.19,0-.29.06-.22.25l1.63,4.15a.73.73,0,0,0,.48.41l2.05.47C309.55,148,309.65,147.86,309.58,147.67Z" style="fill: rgb(69, 90, 100); transform-origin: 307.415px 145.291px 0px;" id="elzndsw9nr65" class="animable"></path><path d="M307.89,144.53a2,2,0,0,0-1.21-1c-.49-.11-.75.16-.57.6a1.86,1.86,0,0,0,1.2,1C307.8,145.24,308.06,145,307.89,144.53Z" style="fill: rgb(38, 50, 56); transform-origin: 306.998px 144.331px 0px;" id="el0w86sjqzdyl" class="animable"></path><path d="M308.68,146.63a1.85,1.85,0,0,0-1.2-1c-.49-.11-.75.16-.58.6a1.88,1.88,0,0,0,1.21,1C308.6,147.34,308.86,147.07,308.68,146.63Z" style="fill: rgb(38, 50, 56); transform-origin: 307.793px 146.43px 0px;" id="elchq8ncw394" class="animable"></path><path d="M297.11,151.82c-1.23-1.37-1.15-1.58-.66-2.41a4.74,4.74,0,0,1,3.6-2.37,9.94,9.94,0,0,1,3.34,0c.72.28.3,1.76-1.37,2.33-2.62.9-2.52,1.62-2.52,1.62a33.13,33.13,0,0,1,3.4-1,25.17,25.17,0,0,1,4,.16c1.15.06,1.53,1.49-.33,2.21l2.11.1c1.48.08,2.06.79,1,1.82a2.21,2.21,0,0,1-1.27.64s1.55-.17,1.64.34c.25,1.46-.66,2-3.69,3.21s-3.33,2.86-2.61,3.91c0,0-1.28-.57-2.43-1.2-.84-.45-1.58-1-1.36-2.25,0,0-1.7.22-1.92-.82a5.45,5.45,0,0,1,.17-2.31,1.85,1.85,0,0,1-1.13-1.64,3,3,0,0,1,.41-1.92Z" style="fill: rgb(177, 102, 104); transform-origin: 303.169px 154.639px 0px;" id="elni6t26ub01" class="animable"></path><path d="M306.58,152.38a9.38,9.38,0,0,0-1.91,0,6.12,6.12,0,0,0-1.76.78,21.52,21.52,0,0,0-3.1,2.12,22.34,22.34,0,0,0,3.37-1.64,9.79,9.79,0,0,1,1.59-.84C305.33,152.64,306,152.56,306.58,152.38Z" style="fill: rgb(154, 74, 77); transform-origin: 303.195px 153.806px 0px;" id="elwv0dtg8oarg" class="animable"></path><path d="M308.44,154.94a4.17,4.17,0,0,0-2,.16,11.26,11.26,0,0,0-1.88.82,20,20,0,0,0-3.34,2.29,37.93,37.93,0,0,0,3.61-1.8A10.54,10.54,0,0,1,308.44,154.94Z" style="fill: rgb(154, 74, 77); transform-origin: 304.83px 156.547px 0px;" id="elbg87apeqyrm" class="animable"></path><path d="M357.45,131.38s16.47.57,19.7,1.17c.72.13,3.17.4,3.17.4,1.38,1.9,3.1,8.25,3.21,15.31.05,3.44-1.29,13.73-2.06,18-.29,3.91,3.51,17.88,3.51,17.88-9.11,7.84-40,7.57-45.27-2.3,0,0,.91-17.36,1-22.46a19.85,19.85,0,0,1-1.8-7.12c.05-4.7.92-6.42,4.89-11.9a47.23,47.23,0,0,1,7.95-8.53Z" style="fill: rgb(0, 255, 136); transform-origin: 361.945px 160.523px 0px;" id="elamnkyuz35ld" class="animable"></path><g id="elrb7llvzuc1r"><g style="opacity: 0.3; transform-origin: 361.945px 160.523px 0px;" class="animable"><path d="M357.45,131.38s16.47.57,19.7,1.17c.72.13,3.17.4,3.17.4,1.38,1.9,3.1,8.25,3.21,15.31.05,3.44-1.29,13.73-2.06,18-.29,3.91,3.51,17.88,3.51,17.88-9.11,7.84-40,7.57-45.27-2.3,0,0,.91-17.36,1-22.46a19.85,19.85,0,0,1-1.8-7.12c.05-4.7.92-6.42,4.89-11.9a47.23,47.23,0,0,1,7.95-8.53Z" style="fill: rgb(255, 255, 255); transform-origin: 361.945px 160.523px 0px;" id="elsocpc5p6voi" class="animable"></path></g></g><path d="M344.35,96.39c5.48-6.77,12.83-8.24,19.68-6.64,4.06,1,8.29,3.34,9.48,7.63a4.56,4.56,0,0,1,3.72,1.74,11.1,11.1,0,0,1,2.14,6.33c0,5.87-1.64,9.32-5.15,13.29-1.75,2-3.62,4.14-4.46,6.67-.28.82.09,1.24-1,1.21s-2.29-.88-3.23-1.31l-3.92-1.82a30.81,30.81,0,0,1-7.17-4.3,13.25,13.25,0,0,1-2.16-1.86,8.35,8.35,0,0,1-.51-2.5c-2.37-1.07-4.83-1.53-6.23-4.19a9.3,9.3,0,0,1-.64-6.44,4.54,4.54,0,0,0-1.66,3.51A10.43,10.43,0,0,1,344.35,96.39Z" style="fill: rgb(38, 50, 56); transform-origin: 360.718px 107.89px 0px;" id="el7q9simu8yz5" class="animable"></path><path d="M370.15,129.12c0-1.42.13-8.44.13-8.44.56.75,3.59,1.78,5.67-1.14,2.4-3.37,2-5.78.36-7.39a4.14,4.14,0,0,0-6.64,1.54c-2.23.5-3.22-2.91-1.49-6.15-.11-4.15-4.38-4-6.48-9.34-5.37,2.77-10.32.51-13.76,4.53-.71,2-1.27,5.17-1.33,10.8-.09,9.19,1.69,11.39,4.18,12.53,1.48.67,3.31.87,6.15.66l-.16,2.37h0c-.06,1.19,0,1.7-1.12,2.08-.78.25-2.34.58-2.34.58s-3.37,3.15,4,4.2c11,1.57,17-3.72,17-3.72s-.75-.12-2.63-.47S370.15,130.54,370.15,129.12Z" style="fill: rgb(177, 102, 104); transform-origin: 362.126px 117.221px 0px;" id="el9hpsqlfl55i" class="animable"></path><path d="M373.72,119.11a1.11,1.11,0,1,1-1.07-1.15A1.11,1.11,0,0,1,373.72,119.11Z" style="fill: rgb(250, 250, 250); transform-origin: 372.611px 119.069px 0px;" id="elpwz5hh4k0o" class="animable"></path><path d="M359.81,118.15l-4,1.24a2,2,0,0,0,2.57,1.45A2.19,2.19,0,0,0,359.81,118.15Z" style="fill: rgb(154, 74, 77); transform-origin: 357.853px 119.545px 0px;" id="elbhodnify9" class="animable"></path><path d="M359.55,119.07a2.29,2.29,0,0,0-2.31,1.77,2,2,0,0,0,1.15,0,2.17,2.17,0,0,0,1.47-1.73C359.75,119.1,359.65,119.07,359.55,119.07Z" style="fill: rgb(242, 143, 143); transform-origin: 358.55px 119.997px 0px;" id="el7wcykaz5ipl" class="animable"></path><path d="M348.3,106.11l3.2-.32a1.54,1.54,0,0,0-1.7-1.45A1.69,1.69,0,0,0,348.3,106.11Z" style="fill: rgb(38, 50, 56); transform-origin: 349.899px 105.221px 0px;" id="eli1ite895128" class="animable"></path><path d="M363.42,106.44l-3.18-.66a1.55,1.55,0,0,1,1.86-1.28A1.7,1.7,0,0,1,363.42,106.44Z" style="fill: rgb(38, 50, 56); transform-origin: 361.842px 105.452px 0px;" id="elr26c3k6ivi" class="animable"></path><path d="M351.87,110.16a1.38,1.38,0,0,1-1.24,1.45,1.29,1.29,0,0,1-1.42-1.2,1.37,1.37,0,0,1,1.24-1.45A1.28,1.28,0,0,1,351.87,110.16Z" style="fill: rgb(38, 50, 56); transform-origin: 350.54px 110.284px 0px;" id="eleutqcx9i0sf" class="animable"></path><path d="M361.56,110.48a1.37,1.37,0,0,1-1.24,1.45,1.28,1.28,0,0,1-1.42-1.2,1.36,1.36,0,0,1,1.24-1.44A1.28,1.28,0,0,1,361.56,110.48Z" style="fill: rgb(38, 50, 56); transform-origin: 360.23px 110.61px 0px;" id="el9hym60bf5ug" class="animable"></path><polygon points="350.77 115.31 355.08 117.13 355.68 107.83 350.77 115.31" style="fill: rgb(154, 74, 77); transform-origin: 353.225px 112.48px 0px;" id="elweg7lw9keig" class="animable"></polygon><path d="M356.94,126.72c5.08-.47,10-2.09,11.13-4.4A4.59,4.59,0,0,1,366,126c-2.91,1.68-9.17,2.47-9.17,2.47Z" style="fill: rgb(154, 74, 77); transform-origin: 362.45px 125.395px 0px;" id="el7l8qxmh9lg7" class="animable"></path><path d="M374.42,132.11s-6.18,5.92-6.61,16.66c-1.09,27.19,17.48,31.7,17.48,31.7s-.2-3.29-.49-6.8c0,0-12.23-10-11.71-23.9.37-9.9,4.76-16,7.23-16.82C380.32,133,377.8,132.43,374.42,132.11Z" style="fill: rgb(38, 50, 56); transform-origin: 376.527px 156.29px 0px;" id="elxzmwvgtm9j" class="animable"></path><path d="M390.27,180.6a18.23,18.23,0,0,1-7.17-4c-5.13-4.2-5.43-4.85-9.71-8.58-1.44-1.26-2.75-2.52-3.36-3.09a16.16,16.16,0,0,1-3.25-3.2,10.08,10.08,0,0,1-1.86-3.75c-.21-1.46-.76-2.94-.5-4.44.08-.43.22-.85.28-1.29a10,10,0,0,0,0-1.81,8.6,8.6,0,0,1,.36-3.15,5.44,5.44,0,0,1,1.41-2.24,1.93,1.93,0,0,1,1.88-.68c-.14.79-.25,1.45-.37,2.38a6.64,6.64,0,0,0,1.68,3.45c1.61,2.08,3,3.15,3.18,2.73s-.42-1.73-.23-3.87.77-2.9,1.41-3.07c1-.27,1,.85,1.49,2.55.54,2,1.42,3.12,1.56,6.12.11,2.62-.31,3.23,1.17,4.39.84.66,3.71,2.23,3.71,2.23s-.82-2.85-2.19-7.71c-2.64-9.43-3.17-19.15.55-20.6,4.62,1.09,9.21,3.75,11.65,11.44,2.6,8.17,2.67,9.4,5.38,25.66C399.29,181.88,394.28,181.75,390.27,180.6Z" style="fill: rgb(177, 102, 104); transform-origin: 381.063px 157.035px 0px;" id="elcfg1maai54" class="animable"></path><path d="M381.93,161.26c3.37,2.45,10.73,6,11.71,9.94,0,0-.15-3.15-4.61-6.9a59.43,59.43,0,0,0-7.85-5.68Z" style="fill: rgb(154, 74, 77); transform-origin: 387.41px 164.91px 0px;" id="elnuphwn7vaes" class="animable"></path></g></g></g><g id="freepik--character-1--inject-2" style="transform-origin: 205.035px 264.431px 0px;" class="animable"><g id="freepik--Bench--inject-2" style="transform-origin: 205.035px 264.738px 0px;" class="animable"><g id="freepik--shadow--inject-2"><path d="M309.15,287,157.53,374.58a6.16,6.16,0,0,1-5.58,0l-46.82-27c-1.54-.89-1.54-2.33,0-3.23l151.62-87.53a6.16,6.16,0,0,1,5.58,0l46.82,27C310.69,284.71,310.69,286.15,309.15,287Z" style="opacity: 0.15; transform-origin: 207.14px 315.7px 0px;" class="animable"></path></g><g id="freepik--bench--inject-2" style="transform-origin: 205.035px 262.822px 0px;" class="animable"><path d="M226.79,284.35a3.32,3.32,0,0,1-1.69-.45l-36.58-21.12A13,13,0,0,1,182,251.55V209.31a3.4,3.4,0,1,1,6.79,0v42.24a6.21,6.21,0,0,0,3.09,5.35L228.49,278a3.39,3.39,0,0,1-1.7,6.33Z" style="fill: rgb(55, 71, 79); transform-origin: 206.094px 245.038px 0px;" id="el793fepxw14e" class="animable"></path><path d="M152.12,326.51a3.4,3.4,0,0,1-1.7-.46l-36.58-21.12a13,13,0,0,1-6.48-11.22V251.47a3.4,3.4,0,1,1,6.79,0v42.24a6.16,6.16,0,0,0,3.09,5.34l36.58,21.13a3.39,3.39,0,0,1-1.7,6.33Z" style="fill: rgb(55, 71, 79); transform-origin: 131.439px 287.198px 0px;" id="el40s4aknk87v" class="animable"></path><path d="M298.9,241.88a3.33,3.33,0,0,1-1.69-.46L260.63,220.3a13,13,0,0,1-6.48-11.23V166.83a3.39,3.39,0,1,1,6.78,0v42.24a6.21,6.21,0,0,0,3.09,5.35l36.58,21.12a3.4,3.4,0,0,1-1.7,6.34Z" style="fill: rgb(55, 71, 79); transform-origin: 278.221px 202.66px 0px;" id="elnhimsj43c3" class="animable"></path><path d="M158.45,322.3v46.89a1.91,1.91,0,0,1-1.13,1.57,6,6,0,0,1-5.46,0,1.9,1.9,0,0,1-1.12-1.57V322.3Z" style="fill: rgb(55, 71, 79); transform-origin: 154.595px 346.859px 0px;" id="elqdfpdy7qoig" class="animable"></path><path d="M126.18,303.92v46.89a1.89,1.89,0,0,1-1.13,1.57,6,6,0,0,1-5.45,0,1.91,1.91,0,0,1-1.13-1.57V303.92Z" style="fill: rgb(55, 71, 79); transform-origin: 122.325px 328.477px 0px;" id="el75mybu1acf" class="animable"></path><path d="M305.1,237.63v46.88a1.89,1.89,0,0,1-1.13,1.57,6,6,0,0,1-5.45,0,1.91,1.91,0,0,1-1.13-1.57V237.63Z" style="fill: rgb(55, 71, 79); transform-origin: 301.245px 262.182px 0px;" id="el49i3z877bx7" class="animable"></path><path d="M272.84,219.25v46.88a1.94,1.94,0,0,1-1.13,1.58,6.08,6.08,0,0,1-5.45,0,1.94,1.94,0,0,1-1.13-1.58V219.25Z" style="fill: rgb(55, 71, 79); transform-origin: 268.985px 243.802px 0px;" id="elil2azix1agk" class="animable"></path><path d="M99.8,261.05l-.68-.39a4.32,4.32,0,0,1-2-3.39v-6.09a4.36,4.36,0,0,1,2-3.4L260.35,154.7a4.3,4.3,0,0,1,3.92,0l.68.39a4.32,4.32,0,0,1,2,3.39v6.09a4.36,4.36,0,0,1-2,3.4L103.72,261.05A4.3,4.3,0,0,1,99.8,261.05Z" style="fill: rgb(0, 255, 136); transform-origin: 182.035px 207.875px 0px;" id="eldxs3km31px4" class="animable"></path><g id="elvus7bd1gcz"><path d="M99.8,261.05l-.68-.39a4.32,4.32,0,0,1-2-3.39v-6.09a4.36,4.36,0,0,1,2-3.4L260.35,154.7a4.3,4.3,0,0,1,3.92,0l.68.39a4.32,4.32,0,0,1,2,3.39v6.09a4.36,4.36,0,0,1-2,3.4L103.72,261.05A4.3,4.3,0,0,1,99.8,261.05Z" style="fill: rgb(255, 255, 255); opacity: 0.6; transform-origin: 182.035px 207.875px 0px;" class="animable"></path></g><path d="M106.35,254.22l-8.61-5a3.92,3.92,0,0,0-.58,1.93v6.09a4.32,4.32,0,0,0,2,3.39l.68.39a4.3,4.3,0,0,0,3.92,0l2.63-1.52Z" style="fill: rgb(0, 255, 136); transform-origin: 101.775px 255.356px 0px;" id="elz9bk8x35c4p" class="animable"></path><g id="el0wqg6bzf0x2"><path d="M106.35,254.22l-8.61-5a3.92,3.92,0,0,0-.58,1.93v6.09a4.32,4.32,0,0,0,2,3.39l.68.39a4.3,4.3,0,0,0,3.92,0l2.63-1.52Z" style="fill: rgb(255, 255, 255); opacity: 0.3; transform-origin: 101.775px 255.356px 0px;" class="animable"></path></g><path d="M103.72,250.44,265,157.35c1.08-.62,2-.12,2,1.13v6.09a4.36,4.36,0,0,1-2,3.4L103.72,261.05c-1.08.63-2,.12-2-1.13v-6.09A4.32,4.32,0,0,1,103.72,250.44Z" style="fill: rgb(0, 255, 136); transform-origin: 184.36px 209.202px 0px;" id="eltxz4obwjigi" class="animable"></path><g id="el6xej23cwxyc"><path d="M103.72,250.44,265,157.35c1.08-.62,2-.12,2,1.13v6.09a4.36,4.36,0,0,1-2,3.4L103.72,261.05c-1.08.63-2,.12-2-1.13v-6.09A4.32,4.32,0,0,1,103.72,250.44Z" style="fill: rgb(255, 255, 255); opacity: 0.5; transform-origin: 184.36px 209.202px 0px;" class="animable"></path></g><path d="M99.8,279.67l-.68-.39a4.36,4.36,0,0,1-2-3.4v-6.09a4.32,4.32,0,0,1,2-3.39l161.23-93.09a4.36,4.36,0,0,1,3.92,0l.68.39a4.36,4.36,0,0,1,2,3.4v6.09a4.32,4.32,0,0,1-2,3.39L103.72,279.67A4.36,4.36,0,0,1,99.8,279.67Z" style="fill: rgb(0, 255, 136); transform-origin: 182.035px 226.49px 0px;" id="el5rl7ffmw5in" class="animable"></path><g id="elh6dzkpds76p"><path d="M99.8,279.67l-.68-.39a4.36,4.36,0,0,1-2-3.4v-6.09a4.32,4.32,0,0,1,2-3.39l161.23-93.09a4.36,4.36,0,0,1,3.92,0l.68.39a4.36,4.36,0,0,1,2,3.4v6.09a4.32,4.32,0,0,1-2,3.39L103.72,279.67A4.36,4.36,0,0,1,99.8,279.67Z" style="fill: rgb(255, 255, 255); opacity: 0.6; transform-origin: 182.035px 226.49px 0px;" class="animable"></path></g><path d="M106.35,272.84l-8.61-5a4,4,0,0,0-.58,1.93v6.09a4.36,4.36,0,0,0,2,3.4l.68.39a4.36,4.36,0,0,0,3.92,0l2.63-1.53Z" style="fill: rgb(0, 255, 136); transform-origin: 101.775px 273.978px 0px;" id="el9oldp2jactp" class="animable"></path><g id="el43g86di2jt7"><path d="M106.35,272.84l-8.61-5a4,4,0,0,0-.58,1.93v6.09a4.36,4.36,0,0,0,2,3.4l.68.39a4.36,4.36,0,0,0,3.92,0l2.63-1.53Z" style="fill: rgb(255, 255, 255); opacity: 0.3; transform-origin: 101.775px 273.978px 0px;" class="animable"></path></g><path d="M103.72,269.05,265,176c1.08-.63,2-.12,2,1.13v6.09a4.32,4.32,0,0,1-2,3.39L103.72,279.67c-1.08.62-2,.11-2-1.14v-6.08A4.36,4.36,0,0,1,103.72,269.05Z" style="fill: rgb(0, 255, 136); transform-origin: 184.36px 227.832px 0px;" id="el3v7xle950lv" class="animable"></path><g id="elpln04dcvnvq"><path d="M103.72,269.05,265,176c1.08-.63,2-.12,2,1.13v6.09a4.32,4.32,0,0,1-2,3.39L103.72,279.67c-1.08.62-2,.11-2-1.14v-6.08A4.36,4.36,0,0,1,103.72,269.05Z" style="fill: rgb(255, 255, 255); opacity: 0.5; transform-origin: 184.36px 227.832px 0px;" class="animable"></path></g><path d="M99.8,298.28l-.68-.39a4.32,4.32,0,0,1-2-3.39v-6.09a4.36,4.36,0,0,1,2-3.4l161.23-93.08a4.3,4.3,0,0,1,3.92,0l.68.39a4.32,4.32,0,0,1,2,3.39v6.09a4.36,4.36,0,0,1-2,3.4L103.72,298.28A4.3,4.3,0,0,1,99.8,298.28Z" style="fill: rgb(0, 255, 136); transform-origin: 182.035px 245.105px 0px;" id="el1kcxp21kojk" class="animable"></path><g id="elraqkeisumwq"><path d="M99.8,298.28l-.68-.39a4.32,4.32,0,0,1-2-3.39v-6.09a4.36,4.36,0,0,1,2-3.4l161.23-93.08a4.3,4.3,0,0,1,3.92,0l.68.39a4.32,4.32,0,0,1,2,3.39v6.09a4.36,4.36,0,0,1-2,3.4L103.72,298.28A4.3,4.3,0,0,1,99.8,298.28Z" style="fill: rgb(255, 255, 255); opacity: 0.6; transform-origin: 182.035px 245.105px 0px;" class="animable"></path></g><path d="M106.35,291.45l-8.61-5a3.92,3.92,0,0,0-.58,1.93v6.09a4.32,4.32,0,0,0,2,3.39l.68.39a4.3,4.3,0,0,0,3.92,0l2.63-1.52Z" style="fill: rgb(0, 255, 136); transform-origin: 101.775px 292.586px 0px;" id="el5o73aj1b8m4" class="animable"></path><g id="el1zbziv18x2a"><path d="M106.35,291.45l-8.61-5a3.92,3.92,0,0,0-.58,1.93v6.09a4.32,4.32,0,0,0,2,3.39l.68.39a4.3,4.3,0,0,0,3.92,0l2.63-1.52Z" style="fill: rgb(255, 255, 255); opacity: 0.3; transform-origin: 101.775px 292.586px 0px;" class="animable"></path></g><path d="M103.72,287.67,265,194.58c1.08-.62,2-.12,2,1.13v6.09a4.36,4.36,0,0,1-2,3.4L103.72,298.28c-1.08.63-2,.12-2-1.13v-6.09A4.32,4.32,0,0,1,103.72,287.67Z" style="fill: rgb(0, 255, 136); transform-origin: 184.36px 246.432px 0px;" id="elpqgae2c4fi" class="animable"></path><g id="elxo72uyk6vv"><path d="M103.72,287.67,265,194.58c1.08-.62,2-.12,2,1.13v6.09a4.36,4.36,0,0,1-2,3.4L103.72,298.28c-1.08.63-2,.12-2-1.13v-6.09A4.32,4.32,0,0,1,103.72,287.67Z" style="fill: rgb(255, 255, 255); opacity: 0.5; transform-origin: 184.36px 246.432px 0px;" class="animable"></path></g><path d="M106.35,309.55v.78a4.36,4.36,0,0,0,2,3.4l5.28,3a4.3,4.3,0,0,0,3.92,0l161.22-93.08a4.33,4.33,0,0,0,2-3.4v-.78a4.31,4.31,0,0,0-1.95-3.39l-5.28-3.05a4.36,4.36,0,0,0-3.92,0L108.31,306.16A4.32,4.32,0,0,0,106.35,309.55Z" style="fill: rgb(0, 255, 136); transform-origin: 193.56px 264.884px 0px;" id="eli2ld3k8dd4j" class="animable"></path><g id="elseeetzn3ivh"><path d="M106.35,309.55v.78a4.36,4.36,0,0,0,2,3.4l5.28,3a4.3,4.3,0,0,0,3.92,0l161.22-93.08a4.33,4.33,0,0,0,2-3.4v-.78a4.31,4.31,0,0,0-1.95-3.39l-5.28-3.05a4.36,4.36,0,0,0-3.92,0L108.31,306.16A4.32,4.32,0,0,0,106.35,309.55Z" style="fill: rgb(255, 255, 255); opacity: 0.5; transform-origin: 193.56px 264.884px 0px;" class="animable"></path></g><path d="M115.55,307.29v9.95a4,4,0,0,1-2-.47l-5.28-3a4.36,4.36,0,0,1-2-3.4v-.78a4.32,4.32,0,0,1,2-3.39l2.64-1.52Z" style="fill: rgb(0, 255, 136); transform-origin: 110.91px 310.961px 0px;" id="elt7ix6s6gh1c" class="animable"></path><g id="eluedu2dh9yq"><path d="M115.55,307.29v9.95a4,4,0,0,1-2-.47l-5.28-3a4.36,4.36,0,0,1-2-3.4v-.78a4.32,4.32,0,0,1,2-3.39l2.64-1.52Z" style="fill: rgb(255, 255, 255); opacity: 0.3; transform-origin: 110.91px 310.961px 0px;" class="animable"></path></g><path d="M117.51,311.46l161.23-93.08a1.19,1.19,0,0,0,0-2.26l-5.28-3.05a4.36,4.36,0,0,0-3.92,0L108.31,306.16a1.19,1.19,0,0,0,0,2.26l5.28,3A4.3,4.3,0,0,0,117.51,311.46Z" style="fill: rgb(0, 255, 136); transform-origin: 193.525px 262.259px 0px;" id="elr7ev1epq2b" class="animable"></path><g id="eljlc429jv16q"><path d="M117.51,311.46l161.23-93.08a1.19,1.19,0,0,0,0-2.26l-5.28-3.05a4.36,4.36,0,0,0-3.92,0L108.31,306.16a1.19,1.19,0,0,0,0,2.26l5.28,3A4.3,4.3,0,0,0,117.51,311.46Z" style="fill: rgb(255, 255, 255); opacity: 0.6; transform-origin: 193.525px 262.259px 0px;" class="animable"></path></g><path d="M122.44,318.84v.78a4.36,4.36,0,0,0,2,3.4l5.27,3a4.36,4.36,0,0,0,3.92,0L294.82,233a4.32,4.32,0,0,0,2-3.39v-.78a4.36,4.36,0,0,0-2-3.4l-5.27-3a4.36,4.36,0,0,0-3.92,0L124.4,315.44A4.36,4.36,0,0,0,122.44,318.84Z" style="fill: rgb(0, 255, 136); transform-origin: 209.63px 274.225px 0px;" id="elu7q97h0vfad" class="animable"></path><g id="el21n6xopn1d5"><path d="M122.44,318.84v.78a4.36,4.36,0,0,0,2,3.4l5.27,3a4.36,4.36,0,0,0,3.92,0L294.82,233a4.32,4.32,0,0,0,2-3.39v-.78a4.36,4.36,0,0,0-2-3.4l-5.27-3a4.36,4.36,0,0,0-3.92,0L124.4,315.44A4.36,4.36,0,0,0,122.44,318.84Z" style="fill: rgb(255, 255, 255); opacity: 0.5; transform-origin: 209.63px 274.225px 0px;" class="animable"></path></g><path d="M131.63,316.58v9.95a4,4,0,0,1-2-.47l-5.27-3a4.36,4.36,0,0,1-2-3.4v-.78a4.36,4.36,0,0,1,2-3.4l2.64-1.52Z" style="fill: rgb(0, 255, 136); transform-origin: 126.995px 320.246px 0px;" id="el1yoxkz52pybj" class="animable"></path><g id="elk73ivaow8g"><path d="M131.63,316.58v9.95a4,4,0,0,1-2-.47l-5.27-3a4.36,4.36,0,0,1-2-3.4v-.78a4.36,4.36,0,0,1,2-3.4l2.64-1.52Z" style="fill: rgb(255, 255, 255); opacity: 0.3; transform-origin: 126.995px 320.246px 0px;" class="animable"></path></g><path d="M133.59,320.75l161.23-93.08a1.2,1.2,0,0,0,0-2.27l-5.27-3a4.36,4.36,0,0,0-3.92,0L124.4,315.44a1.2,1.2,0,0,0,0,2.27l5.27,3A4.3,4.3,0,0,0,133.59,320.75Z" style="fill: rgb(0, 255, 136); transform-origin: 209.61px 271.569px 0px;" id="elri3u7vvsxk9" class="animable"></path><g id="ely5xebisxbl"><path d="M133.59,320.75l161.23-93.08a1.2,1.2,0,0,0,0-2.27l-5.27-3a4.36,4.36,0,0,0-3.92,0L124.4,315.44a1.2,1.2,0,0,0,0,2.27l5.27,3A4.3,4.3,0,0,0,133.59,320.75Z" style="fill: rgb(255, 255, 255); opacity: 0.6; transform-origin: 209.61px 271.569px 0px;" class="animable"></path></g><path d="M138.53,328.13v.78a4.3,4.3,0,0,0,2,3.39l5.27,3.05a4.36,4.36,0,0,0,3.92,0l161.23-93.09a4.32,4.32,0,0,0,2-3.39v-.78a4.36,4.36,0,0,0-2-3.4l-5.27-3a4.3,4.3,0,0,0-3.92,0L140.49,324.73A4.33,4.33,0,0,0,138.53,328.13Z" style="fill: rgb(0, 255, 136); transform-origin: 225.74px 283.516px 0px;" id="elbqg5yaoarov" class="animable"></path><g id="elvcjbki7ojl"><path d="M138.53,328.13v.78a4.3,4.3,0,0,0,2,3.39l5.27,3.05a4.36,4.36,0,0,0,3.92,0l161.23-93.09a4.32,4.32,0,0,0,2-3.39v-.78a4.36,4.36,0,0,0-2-3.4l-5.27-3a4.3,4.3,0,0,0-3.92,0L140.49,324.73A4.33,4.33,0,0,0,138.53,328.13Z" style="fill: rgb(255, 255, 255); opacity: 0.5; transform-origin: 225.74px 283.516px 0px;" class="animable"></path></g><path d="M147.72,325.86v10a4,4,0,0,1-2-.47l-5.27-3.05a4.3,4.3,0,0,1-2-3.39v-.78a4.33,4.33,0,0,1,2-3.4l2.63-1.52Z" style="fill: rgb(0, 255, 136); transform-origin: 143.085px 329.556px 0px;" id="elsxwj26e8lk" class="animable"></path><g id="elnmpjsd8m5x"><path d="M147.72,325.86v10a4,4,0,0,1-2-.47l-5.27-3.05a4.3,4.3,0,0,1-2-3.39v-.78a4.33,4.33,0,0,1,2-3.4l2.63-1.52Z" style="fill: rgb(255, 255, 255); opacity: 0.3; transform-origin: 143.085px 329.556px 0px;" class="animable"></path></g><path d="M149.68,330,310.91,237a1.19,1.19,0,0,0,0-2.26l-5.27-3a4.3,4.3,0,0,0-3.92,0L140.49,324.73a1.2,1.2,0,0,0,0,2.27l5.27,3A4.36,4.36,0,0,0,149.68,330Z" style="fill: rgb(0, 255, 136); transform-origin: 225.703px 280.866px 0px;" id="el8xpnrd757ci" class="animable"></path><path d="M149.68,330,310.91,237a1.19,1.19,0,0,0,0-2.26l-5.27-3a4.3,4.3,0,0,0-3.92,0L140.49,324.73a1.2,1.2,0,0,0,0,2.27l5.27,3A4.36,4.36,0,0,0,149.68,330Z" style="fill: rgb(0, 255, 136); transform-origin: 225.703px 280.866px 0px;" id="elosgoaeizr1" class="animable"></path><g id="elx7s0n9ydnzl"><path d="M149.68,330,310.91,237a1.19,1.19,0,0,0,0-2.26l-5.27-3a4.3,4.3,0,0,0-3.92,0L140.49,324.73a1.2,1.2,0,0,0,0,2.27l5.27,3A4.36,4.36,0,0,0,149.68,330Z" style="fill: rgb(255, 255, 255); opacity: 0.6; transform-origin: 225.703px 280.866px 0px;" class="animable"></path></g><path d="M110.75,250a2.8,2.8,0,0,0-1.26,2.19c0,.8.57,1.13,1.26.72a2.78,2.78,0,0,0,1.27-2.18C112,249.93,111.45,249.61,110.75,250Z" style="fill: rgb(55, 71, 79); transform-origin: 110.755px 251.46px 0px;" id="elh8v1xtvfa5n" class="animable"></path><path d="M110.75,268.59a2.8,2.8,0,0,0-1.26,2.18c0,.81.57,1.13,1.26.73a2.79,2.79,0,0,0,1.27-2.19C112,268.51,111.45,268.18,110.75,268.59Z" style="fill: rgb(55, 71, 79); transform-origin: 110.755px 270.043px 0px;" id="elrt1c8flqn9" class="animable"></path><path d="M110.75,287.16a2.8,2.8,0,0,0-1.26,2.19c0,.8.57,1.13,1.26.73a2.82,2.82,0,0,0,1.27-2.19C112,287.09,111.45,286.76,110.75,287.16Z" style="fill: rgb(55, 71, 79); transform-origin: 110.755px 288.62px 0px;" id="elmfpe59h4n1g" class="animable"></path><path d="M257.54,165.42a2.78,2.78,0,0,0-1.26,2.19c0,.8.56,1.13,1.26.73a2.79,2.79,0,0,0,1.26-2.19C258.8,165.35,258.24,165,257.54,165.42Z" style="fill: rgb(55, 71, 79); transform-origin: 257.54px 166.876px 0px;" id="elwh3ngpau75q" class="animable"></path><path d="M257.54,184a2.77,2.77,0,0,0-1.26,2.18c0,.81.56,1.13,1.26.73a2.77,2.77,0,0,0,1.26-2.18C258.8,183.92,258.24,183.6,257.54,184Z" style="fill: rgb(55, 71, 79); transform-origin: 257.54px 185.455px 0px;" id="elrwwb449eb59" class="animable"></path><path d="M257.54,202.57a2.79,2.79,0,0,0-1.26,2.19c0,.8.56,1.13,1.26.73a2.78,2.78,0,0,0,1.26-2.19C258.8,202.5,258.24,202.17,257.54,202.57Z" style="fill: rgb(55, 71, 79); transform-origin: 257.54px 204.03px 0px;" id="ellozgs2pzr4" class="animable"></path><path d="M121.22,302.49a.68.68,0,0,0,0,1.28,2.46,2.46,0,0,0,2.21,0c.62-.36.62-.93,0-1.28A2.42,2.42,0,0,0,121.22,302.49Z" style="fill: rgb(55, 71, 79); transform-origin: 122.332px 303.128px 0px;" id="el03tppu93fmw6" class="animable"></path><path d="M137.35,311.85a.68.68,0,0,0,0,1.28,2.48,2.48,0,0,0,2.22,0,.68.68,0,0,0,0-1.28A2.48,2.48,0,0,0,137.35,311.85Z" style="fill: rgb(55, 71, 79); transform-origin: 138.46px 312.49px 0px;" id="elghd6p3gilt7" class="animable"></path><path d="M153.48,321.21a.68.68,0,0,0,0,1.28,2.42,2.42,0,0,0,2.22,0,.68.68,0,0,0,0-1.28A2.48,2.48,0,0,0,153.48,321.21Z" style="fill: rgb(55, 71, 79); transform-origin: 154.59px 321.854px 0px;" id="el35r69fcxrr7" class="animable"></path><path d="M267.88,217.86c-.62.36-.62.93,0,1.28a2.4,2.4,0,0,0,2.21,0,.67.67,0,0,0,0-1.28A2.46,2.46,0,0,0,267.88,217.86Z" style="fill: rgb(55, 71, 79); transform-origin: 268.988px 218.504px 0px;" id="elukm468pukde" class="animable"></path><path d="M284,227.23a.68.68,0,0,0,0,1.28,2.46,2.46,0,0,0,2.21,0c.62-.36.62-.93,0-1.28A2.42,2.42,0,0,0,284,227.23Z" style="fill: rgb(55, 71, 79); transform-origin: 285.112px 227.868px 0px;" id="eluhhgcngvqnd" class="animable"></path><path d="M300.14,236.59a.68.68,0,0,0,0,1.28,2.48,2.48,0,0,0,2.22,0,.68.68,0,0,0,0-1.28A2.48,2.48,0,0,0,300.14,236.59Z" style="fill: rgb(55, 71, 79); transform-origin: 301.25px 237.23px 0px;" id="elv8xksqfjkzl" class="animable"></path><path d="M185.43,207.9a2.77,2.77,0,0,0-1.26,2.18c0,.81.56,1.13,1.26.73a2.8,2.8,0,0,0,1.26-2.18C186.69,207.82,186.12,207.5,185.43,207.9Z" style="fill: rgb(55, 71, 79); transform-origin: 185.43px 209.355px 0px;" id="el5kkwbq921wd" class="animable"></path><path d="M185.43,226.47a2.79,2.79,0,0,0-1.26,2.19c0,.8.56,1.13,1.26.73a2.8,2.8,0,0,0,1.26-2.19C186.69,226.4,186.12,226.07,185.43,226.47Z" style="fill: rgb(55, 71, 79); transform-origin: 185.43px 227.93px 0px;" id="elj7sfjpthsjk" class="animable"></path><path d="M185.43,245.05a2.78,2.78,0,0,0-1.26,2.19c0,.8.56,1.13,1.26.72a2.8,2.8,0,0,0,1.26-2.18C186.69,245,186.12,244.65,185.43,245.05Z" style="fill: rgb(55, 71, 79); transform-origin: 185.43px 246.51px 0px;" id="els9dbnjqyua" class="animable"></path><path d="M195.77,260.34a.67.67,0,0,0,0,1.28,2.48,2.48,0,0,0,2.22,0,.68.68,0,0,0,0-1.28A2.4,2.4,0,0,0,195.77,260.34Z" style="fill: rgb(55, 71, 79); transform-origin: 196.869px 260.975px 0px;" id="el4enhuhrgrq" class="animable"></path><path d="M211.9,269.7c-.62.36-.62.93,0,1.28a2.46,2.46,0,0,0,2.21,0c.62-.35.62-.92,0-1.28A2.46,2.46,0,0,0,211.9,269.7Z" style="fill: rgb(55, 71, 79); transform-origin: 213.005px 270.34px 0px;" id="elirwv6wshnkf" class="animable"></path><path d="M228,279.07a.67.67,0,0,0,0,1.27,2.4,2.4,0,0,0,2.21,0c.62-.35.62-.92,0-1.27A2.42,2.42,0,0,0,228,279.07Z" style="fill: rgb(55, 71, 79); transform-origin: 229.109px 279.706px 0px;" id="elqe2esgwsurs" class="animable"></path></g></g><g id="freepik--character--inject-2" style="transform-origin: 201.212px 264.431px 0px;" class="animable"><g id="freepik--shadow--inject-2"><path d="M203.62,203.37l.27-.28A32.28,32.28,0,0,1,207.2,200c2.17-1.62,4.4-3.25,6.65-4.74,2-1.35,3.8-3,6.15-3.76a48.52,48.52,0,0,1,6.74-1.48l19.64-11.33a51.37,51.37,0,0,0-14.14-2c-3.31-.07-6.64-.1-10,0l-86.15,49.74a.15.15,0,0,0,0,.08l4.25,2.75s-.15,2-.15,2.93c0,2.6,0,5.2-.05,7.8L182,215.84v2.69l-41.8,24.13c0,1.42,0,2.83.05,4.25.08,3.47.13,7.42.41,11.41L182,234.45v2.69l-41.12,23.75a43,43,0,0,0,2.9,12.74,12.72,12.72,0,0,0,.58,1.17L182.13,253a13,13,0,0,0,4.18,8.12l-35.9,20.72a77,77,0,0,0,7.62,5.59q2.4,1.6,4.78,3.17l37-21.33,2.3,1.32L165,292a90.65,90.65,0,0,0,11.37,6.31c1,.44,1.93.89,2.91,1.36l36.6-21.13,2.3,1.33-36.39,21c3.44,1.66,6.91,3.37,10.18,4.73.12,1.8.13,3.52.14,5.23l32.38-18.69a35,35,0,0,0-4.73-13.57c-2.57-4.37-6.35-8.3-10.47-12.15l-.41.23-2.3-1.32.94-.54c-3.54-3.24-7.23-6.44-10.56-9.83l-4.17,2.41-.86-.5a6.21,6.21,0,0,1-3.09-5.35v-2.4l2.11-1.22a27.57,27.57,0,0,1-5.41-14.72c-.21-4.41,2.3-7.38,4.5-11.05,2.07-3.46,4.26-6.87,6.63-10.14.81-1.12,1.64-2.25,2.49-3.37l-10.32,6v-2.69ZM254,182.8a18.38,18.38,0,0,0-4.77-3l-14.83,8.56c1.5-.27,3.22-.58,4.51,0a30.65,30.65,0,0,1,2.79,1.79,14.14,14.14,0,0,0,3.4,1.5,15.34,15.34,0,0,1,2.87,1.05,5.37,5.37,0,0,0,1.63.57c1,.09,1-.5.83-1.35-.16-1.06-1.15-1.83-1.73-2.67-.9-1.3-.18-1.48,1.13-1.56a12.1,12.1,0,0,1,3.33.45c2.32.56,4.46,1.74,6.73,2.48a3.82,3.82,0,0,0,1.08.23V188.9l.09-.05C258.93,186.57,256.25,184.86,254,182.8Z" style="opacity: 0.2; transform-origin: 198.572px 243.728px 0px;" class="animable"></path></g><g id="freepik--bottom--inject-2" style="transform-origin: 199.562px 313.669px 0px;" class="animable"><path d="M221.31,316.64s-6.06,11.83-6.73,16.64c-.7,5-2.06,6.58-1.68,12.13.08,1.21.5,3.66.57,4.64a1.44,1.44,0,0,1-1.45,1.68c-2.22.26-5.5-4.16-6.84-8.78a133.77,133.77,0,0,1-3-16.13,6.9,6.9,0,0,1,1-3.47,11.49,11.49,0,0,1,1.16-1.74c.91-2.13,1.62-6.27,2.48-9.1Z" style="fill: rgb(255, 168, 167); transform-origin: 211.745px 332.126px 0px;" id="elats87e6jaka" class="animable"></path><path d="M197.54,331a5.26,5.26,0,0,0-.73,1.6c-.14,1,1.84,4.51,2.63,5.8a8.06,8.06,0,0,1,1.15,5.86,14,14,0,0,0,2.59,9.26,22.2,22.2,0,0,0,10.37,8.15c5.16,2.09,7.27-.41,7.27-.41s1.86-2.42,1-3.55S197.54,331,197.54,331Z" style="fill: rgb(55, 71, 79); transform-origin: 209.425px 346.752px 0px;" id="eltndfbhekvx" class="animable"></path><path d="M204.37,321.61c-.16,0-.44-.09-.9.38-.17.17-1.35,2.48-2.26,3.66S198,329,197.54,331c.89,4,4.34,7.1,4.58,10.86S202,350,207.36,355s11.14,6,13.35,5,2.22-3.3-.35-7.86c-2.72-4.84-4-14.92-4-14.92a32,32,0,0,1-.19-4.26,28,28,0,0,1,.75-4.13,3.1,3.1,0,0,0-.1-1.91,3.21,3.21,0,0,0-1.48-1.23,14.05,14.05,0,0,0-2.84-1.24,4.71,4.71,0,0,0-3.06.1,19.83,19.83,0,0,1-2,1,2.71,2.71,0,0,1-2.76-.74,2.33,2.33,0,0,1-.54-2.64S204.37,321.61,204.37,321.61Z" style="fill: rgb(0, 255, 136); transform-origin: 209.935px 340.976px 0px;" id="elscuwk2hulqg" class="animable"></path><g id="elfb88jr59dn7"><path d="M204.37,321.61c-.16,0-.44-.09-.9.38-.17.17-1.35,2.48-2.26,3.66S198,329,197.54,331c.89,4,4.34,7.1,4.58,10.86S202,350,207.36,355s11.14,6,13.35,5,2.22-3.3-.35-7.86c-2.72-4.84-4-14.92-4-14.92a32,32,0,0,1-.19-4.26,28,28,0,0,1,.75-4.13,3.1,3.1,0,0,0-.1-1.91,3.21,3.21,0,0,0-1.48-1.23,14.05,14.05,0,0,0-2.84-1.24,4.71,4.71,0,0,0-3.06.1,19.83,19.83,0,0,1-2,1,2.71,2.71,0,0,1-2.76-.74,2.33,2.33,0,0,1-.54-2.64S204.37,321.61,204.37,321.61Z" style="opacity: 0.4; transform-origin: 209.935px 340.976px 0px;" class="animable"></path></g><path d="M204.33,351.09a9.12,9.12,0,0,1,8.66-3.76c6.06.55,7.9,3.81,8.66,5.71.91,2.25,1.72,6.27-.88,7.17-2.81,1-5.91.34-10.62-2.55S204.33,351.09,204.33,351.09Z" style="fill: rgb(250, 250, 250); transform-origin: 213.428px 353.947px 0px;" id="ely92rfy2c2l" class="animable"></path><path d="M207,332.93a.65.65,0,0,0,.56,0c1-.39,6-1,8.67,1.92.4-.26.38-.82,0-1.63-3.19-2.44-8-1.89-9.14-1.41a.59.59,0,0,0-.31.79A.73.73,0,0,0,207,332.93Z" style="fill: rgb(250, 250, 250); transform-origin: 211.625px 333.122px 0px;" id="elisrjjl8olz" class="animable"></path><path d="M216.56,338.48a1.88,1.88,0,0,0-.2-1.7,11.46,11.46,0,0,0-8.75-1.11.59.59,0,0,0-.3.79.67.67,0,0,0,.26.29.63.63,0,0,0,.55,0C209.07,336.41,213.86,335.84,216.56,338.48Z" style="fill: rgb(250, 250, 250); transform-origin: 211.966px 336.869px 0px;" id="elny3m1pzkog9" class="animable"></path><path d="M218.33,346.88a3.45,3.45,0,0,0-.59-2.26c-3.19-2.32-7.85-1.77-9-1.3a.58.58,0,0,0-.31.78.62.62,0,0,0,.26.29.65.65,0,0,0,.56.05C210.27,344,215.83,343.37,218.33,346.88Z" style="fill: rgb(250, 250, 250); transform-origin: 213.361px 344.892px 0px;" id="elk2nxsqmpo7" class="animable"></path><path d="M208.13,340.57a.59.59,0,0,0,.55,0c1-.39,5.91-1,8.58,1.83a2.1,2.1,0,0,0-.35-1.83,11.35,11.35,0,0,0-8.74-1.11.6.6,0,0,0,0,1.07Z" style="fill: rgb(250, 250, 250); transform-origin: 212.589px 340.721px 0px;" id="elkdvqyjpx5rq" class="animable"></path><path d="M225.09,332.73s1.9,15.1,4.43,21,3.84,8.79,7.48,13.34c.79,1,2.61,2.85,3.26,3.65a1.5,1.5,0,0,1-.25,2.3c-1.76,1.56-8.95,1.66-12.86-1.52s-7.32-9.74-9.62-12.26c-.86-.95-1.68-1.92-2.44-2.94s-.5-1.88-.52-2.95c0-.52.11-1.93.11-1.93-.45-2.55-1.78-6.57-2.47-9.06Z" style="fill: rgb(255, 168, 167); transform-origin: 226.448px 353.404px 0px;" id="eltta88t2xzdi" class="animable"></path><path d="M212.82,362.72a5.54,5.54,0,0,0,.11,1.84c.36,1,3.92,3.26,5.27,4.06a8.49,8.49,0,0,1,3.94,4.87,14.59,14.59,0,0,0,6.94,7.28,23.15,23.15,0,0,0,13.58,2.45c5.8-.6,6.51-3.94,6.51-3.94s.54-3.16-.84-3.76S212.82,362.72,212.82,362.72Z" style="fill: rgb(55, 71, 79); transform-origin: 231.031px 373.059px 0px;" id="el52y5xgu4cmw" class="animable"></path><path d="M214.51,350.66c-.16.06-.45.13-.65.79-.07.24,0,2.95-.29,4.49s-1.33,4.71-.75,6.78c2.8,3.3,7.49,4.44,9.56,7.8s3.89,7.51,11.27,9.56,13.26.09,14.8-1.94.43-4.13-4.18-7.09c-4.89-3.13-11-11.84-11-11.84a36.23,36.23,0,0,1-2.26-3.85,28.37,28.37,0,0,1-1.33-4.19,3.25,3.25,0,0,0-1-1.71,3.35,3.35,0,0,0-2-.41,14.61,14.61,0,0,0-3.24.24,4.94,4.94,0,0,0-2.77,1.6c-.5.61-.78,1.38-1.33,1.94a2.86,2.86,0,0,1-2.92.67,2.44,2.44,0,0,1-1.79-2.18A5.9,5.9,0,0,1,214.51,350.66Z" style="fill: rgb(0, 255, 136); transform-origin: 230.874px 364.99px 0px;" id="elb2pmz55apbh" class="animable"></path><g id="elp800mlwn6e"><path d="M214.51,350.66c-.16.06-.45.13-.65.79-.07.24,0,2.95-.29,4.49s-1.33,4.71-.75,6.78c2.8,3.3,7.49,4.44,9.56,7.8s3.89,7.51,11.27,9.56,13.26.09,14.8-1.94.43-4.13-4.18-7.09c-4.89-3.13-11-11.84-11-11.84a36.23,36.23,0,0,1-2.26-3.85,28.37,28.37,0,0,1-1.33-4.19,3.25,3.25,0,0,0-1-1.71,3.35,3.35,0,0,0-2-.41,14.61,14.61,0,0,0-3.24.24,4.94,4.94,0,0,0-2.77,1.6c-.5.61-.78,1.38-1.33,1.94a2.86,2.86,0,0,1-2.92.67,2.44,2.44,0,0,1-1.79-2.18A5.9,5.9,0,0,1,214.51,350.66Z" style="opacity: 0.4; transform-origin: 230.874px 364.99px 0px;" class="animable"></path></g><path d="M228.93,377.92a9.55,9.55,0,0,1,6.16-7.72c5.87-2.47,9.17-.35,10.8,1,2,1.64,4.67,4.95,2.71,7.07-2.12,2.28-5.29,3.2-11.07,2.84S228.93,377.92,228.93,377.92Z" style="fill: rgb(250, 250, 250); transform-origin: 239.107px 375.124px 0px;" id="el4a665q0ooj6" class="animable"></path><path d="M222.5,359.82a.67.67,0,0,0,.54-.23c.71-.85,5.07-3.88,9-2.48.24-.44-.06-.94-.84-1.49-4.15-.69-8.29,2.16-9.14,3.18a.61.61,0,0,0,.1.88A.68.68,0,0,0,222.5,359.82Z" style="fill: rgb(250, 250, 250); transform-origin: 227.019px 357.667px 0px;" id="el9yco1iw3spo" class="animable"></path><path d="M234.05,360.27a2,2,0,0,0-1-1.47,11.94,11.94,0,0,0-8.63,3.26.62.62,0,0,0,.11.88.68.68,0,0,0,.38.14.64.64,0,0,0,.53-.23C226.11,362,230.25,359.15,234.05,360.27Z" style="fill: rgb(250, 250, 250); transform-origin: 229.167px 360.937px 0px;" id="el5axdl0vnx8s" class="animable"></path><path d="M239.8,367.17a3.52,3.52,0,0,0-1.65-1.8c-4.08-.58-8.13,2.21-9,3.21a.61.61,0,0,0,.1.88.71.71,0,0,0,.39.14.64.64,0,0,0,.53-.23C231,368.48,235.77,365.15,239.8,367.17Z" style="fill: rgb(250, 250, 250); transform-origin: 234.403px 367.446px 0px;" id="el1p3ly0czpve" class="animable"></path><path d="M227.28,366.34a.64.64,0,0,0,.53-.23c.7-.84,5-3.81,8.83-2.52a2.21,2.21,0,0,0-1.22-1.53,11.9,11.9,0,0,0-8.63,3.26.62.62,0,0,0,.11.88A.66.66,0,0,0,227.28,366.34Z" style="fill: rgb(250, 250, 250); transform-origin: 231.647px 364.196px 0px;" id="ele5fhrllq46u" class="animable"></path><path d="M198.18,243.94c6,4.7,23.47,18.66,31.92,27,2.44,2.4,5.38,4.84,4,12.68-1.53,9-10.86,39.14-10.86,39.14l-51.5-66Z" style="fill: rgb(69, 90, 100); transform-origin: 203.097px 283.35px 0px;" id="elfgwdtw6oj7" class="animable"></path><path d="M222.1,313.07c-7.65-6.8-31.8-47.6-31.8-47.6l1.07-.19c5.77-2.72,7.52-9.85,7.52-9.85.78,3.21-1.08,7.6-3,10.1,1.94,1.79,11.47,10.38,19.12,16.82a11.24,11.24,0,0,1,4.44,7.17C220.83,298.06,222.34,311.36,222.1,313.07Z" style="fill: rgb(55, 71, 79); transform-origin: 206.213px 284.25px 0px;" id="elgliy8754fof" class="animable"></path><path d="M195.37,246h0l-45.53,6.85c1.51,12.36,3.67,15.57,5.46,18.23,2.67,4,6.5,8.23,17.55,14.43,11.24,6.31,21.19,12.22,23.82,13.59,2,1,3,5.35,3.69,10.6.74,5.52.71,9,5.68,20.74,4.86,11.46,6.54,14.14,6.54,14.14s8.17,1.18,13.81-3.4c0,0-5.91-38.88-7.22-45.89-.74-3.91-.67-6-5.32-10.41-4-3.82-22.48-19.63-22.48-19.63S199.68,256.85,195.37,246Z" style="fill: rgb(69, 90, 100); transform-origin: 188.115px 295.358px 0px;" id="elzvpcv1dgmma" class="animable"></path></g><g id="freepik--top--inject-2" style="transform-origin: 204.195px 203.767px 0px;" class="animable"><path d="M260.55,185.47a24,24,0,0,1-3.1-1.51c-.53-.32-1-.66-1.59-1a13.85,13.85,0,0,0-4-1.37,1.73,1.73,0,0,0-.64,0,.57.57,0,0,0-.47.4c-.07.28.15.55.36.75a20.07,20.07,0,0,0,1.68,1.37,4.23,4.23,0,0,1,1.43,1.36,2.52,2.52,0,0,1,.23,2,.52.52,0,0,1-.3.37.63.63,0,0,1-.38,0,17.61,17.61,0,0,1-2.71-1.28c-1-.53-2.16-.89-3.21-1.37a14.34,14.34,0,0,1-3.07-1.53A23.56,23.56,0,0,1,243,182c-2-1.74-2.82-1-7.5-.56-3.2.31-14.7,2.83-17.27,3.37,0,0-23.73,14.57-24.33,18.91s-12.08-18.6-12.08-18.6c7.73-2.95,22.43-9,27.66-11.17s5.45-2.59,11.39-3.08a130.45,130.45,0,0,1,26.57.5c.37.05,2,.25,2.34.31,4.53.78,7.76,1.87,11.27,4.91.67.58,1.36,1.15,1.06,2.16a3.29,3.29,0,0,1,1.2,1.05,1.74,1.74,0,0,1,.22,1.53c0-.07.67.48.72.54a2.3,2.3,0,0,1,.42.86c.16.6-.2,1.28.45,1.62a7.23,7.23,0,0,1,.66.4,1.56,1.56,0,0,1,.44.41.67.67,0,0,1,.09.58,1.2,1.2,0,0,1-.13.21c-1,1.21-2.86.59-4.07.1Z" style="fill: rgb(242, 143, 143); transform-origin: 224.08px 187.342px 0px;" id="elhu8rqkm066" class="animable"></path><path d="M182.92,184.49c5.4-2.45,21-8.39,21-8.39s1.84,1.92,3.85,8a17.23,17.23,0,0,1,.66,7.45s-7.5,5.22-10.17,7.77-5,5.51-5.57,7.6A20.1,20.1,0,0,1,182.92,184.49Z" style="fill: rgb(69, 90, 100); transform-origin: 195.451px 191.51px 0px;" id="elsjxozrlssup" class="animable"></path><path d="M169.74,187.39c-6.62,1.85-11.52,2.38-19.48,7.41-1.89,1.85-4.25,6.31-4.31,14.57a211.77,211.77,0,0,0,1.39,30.35c1,10.3,3.2,21,3.2,21,16,5.13,44.31-5.27,49.29-15.82-2.83-4.21-4.34-7.89-6-34.55-.82-13.32-5.38-23-10.91-25.88C180.78,185,176.37,185.53,169.74,187.39Z" style="fill: rgb(250, 250, 250); transform-origin: 172.854px 223.27px 0px;" id="elxwzwe548qpm" class="animable"></path><g id="freepik--mobile--inject-2" style="transform-origin: 205.729px 214.249px 0px;" class="animable"><path d="M217.1,196.87a.43.43,0,0,0-.39,0l-13.31,5.89a2,2,0,0,0-.93,1l-9.73,26.26c-.08.21-.06.35,0,.42l1.6,1.17a.43.43,0,0,0,.39,0l13.3-5.89a2,2,0,0,0,.94-1l9.73-26.26c.07-.21.05-.35,0-.42S217.18,196.94,217.1,196.87Z" style="fill: rgb(69, 90, 100); transform-origin: 205.716px 214.24px 0px;" id="elvevz3c7fld" class="animable"></path><path d="M204.46,204.36a1.85,1.85,0,0,0-.4.6l-9.72,26.26c-.07.19-.06.33,0,.41l-1.59-1.16c-.09-.07-.11-.21,0-.42l9.73-26.26a1.92,1.92,0,0,1,.39-.6Z" style="fill: rgb(55, 71, 79); transform-origin: 198.567px 217.41px 0px;" id="eljrs586nvoy" class="animable"></path><path d="M194.76,231.61l13.3-5.89a2,2,0,0,0,.94-1l9.73-26.26c.14-.39,0-.56-.43-.4L205,204a2.08,2.08,0,0,0-.94,1l-9.72,26.26C194.2,231.6,194.39,231.78,194.76,231.61Z" style="fill: rgb(38, 50, 56); transform-origin: 206.538px 214.838px 0px;" id="eltkpaprigefp" class="animable"></path><path d="M204.09,209.25l1-2.68a2.33,2.33,0,0,1,1.07-1.14l.52-.23c.68-.3,1,0,.77.72l-1,2.67a2.32,2.32,0,0,1-1.08,1.15l-.51.23C204.17,210.27,203.83,210,204.09,209.25Z" style="fill: rgb(55, 71, 79); transform-origin: 205.763px 207.587px 0px;" id="el9i59w4xroa9" class="animable"></path><path d="M204.63,208.92a2.16,2.16,0,0,1,1-1c.42-.18.64,0,.49.37a2.12,2.12,0,0,1-1,1C204.7,209.48,204.48,209.31,204.63,208.92Z" style="fill: rgb(69, 90, 100); transform-origin: 205.375px 208.609px 0px;" id="el8l6o7ov78h3" class="animable"></path><g id="elm2rdbtm98e"><path d="M205,208.75a1.07,1.07,0,0,1,.52-.53c.21-.1.33,0,.25.19a1,1,0,0,1-.52.53C205,209,204.92,209,205,208.75Z" style="fill: rgb(255, 255, 255); opacity: 0.2; transform-origin: 205.383px 208.577px 0px;" class="animable"></path></g><path d="M205.38,206.94a2.12,2.12,0,0,1,1-1.05c.42-.19.64,0,.49.37a2.16,2.16,0,0,1-1,1.05C205.46,207.49,205.23,207.33,205.38,206.94Z" style="fill: rgb(69, 90, 100); transform-origin: 206.126px 206.599px 0px;" id="elrvmoodp8a1r" class="animable"></path><g id="el77ocupydtsj"><path d="M205.75,206.77a1.07,1.07,0,0,1,.52-.53c.21-.1.33,0,.25.19a1,1,0,0,1-.52.53C205.79,207.06,205.67,207,205.75,206.77Z" style="fill: rgb(255, 255, 255); opacity: 0.2; transform-origin: 206.135px 206.604px 0px;" class="animable"></path></g><path d="M202.56,206.82l-.21-.15a.22.22,0,0,0-.22,0l-.26.11a.24.24,0,0,0-.12.14l-.88,2.38a.39.39,0,0,0,.14.45l.21.16a.22.22,0,0,0,.22,0l.26-.11a.24.24,0,0,0,.12-.14l.88-2.38A.41.41,0,0,0,202.56,206.82Z" style="fill: rgb(38, 50, 56); transform-origin: 201.785px 208.29px 0px;" id="el2vl2o65hsjp" class="animable"></path><path d="M201.56,209.77l.89-2.38a.43.43,0,0,0-.14-.45l-.21-.16a.22.22,0,0,0-.35.11l-.88,2.38a.39.39,0,0,0,.14.45l.21.16A.21.21,0,0,0,201.56,209.77Z" style="fill: rgb(69, 90, 100); transform-origin: 201.657px 208.33px 0px;" id="elid8rfv0n9v" class="animable"></path><path d="M201.11,210.73l-.21-.15a.23.23,0,0,0-.22,0l-.26.12a.26.26,0,0,0-.12.13l-.88,2.39a.39.39,0,0,0,.14.45l.21.16a.22.22,0,0,0,.22,0l.26-.11a.28.28,0,0,0,.12-.14l.88-2.38A.42.42,0,0,0,201.11,210.73Z" style="fill: rgb(38, 50, 56); transform-origin: 200.335px 212.206px 0px;" id="el5yb4nyk0h2f" class="animable"></path><path d="M200.11,213.68l.89-2.38a.43.43,0,0,0-.14-.45l-.21-.16a.22.22,0,0,0-.35.1l-.88,2.39a.39.39,0,0,0,.14.45l.21.16A.21.21,0,0,0,200.11,213.68Z" style="fill: rgb(69, 90, 100); transform-origin: 200.207px 212.239px 0px;" id="el70w7gvqidzu" class="animable"></path></g><path d="M199.1,212.88l.45-1.23c.08-2-1.4-2.85-2.35-.6-.74,1.79-3.78,4.75-4.51,7s-.64,4.53-3.28,7c-2.81,2.64-22,8.9-22,8.9l-8.09-21.42s-2.94-13.64-9-17.08c-5.61,2.83-6.65,6.66-7.43,10.67-1,5.18.11,11.16,4.27,21.55,4,9.9,6.71,16.25,9,19.72,2.81,4.31,6,5.2,14.21,2s16-9.31,24.64-14.79c4.15-2.63,6.89-4,10-6.82a15.14,15.14,0,0,0,3.12-3.61,8.93,8.93,0,0,0,1.43-4.1,2.64,2.64,0,0,1,.1-.79,5.23,5.23,0,0,1,.34-.72,5.26,5.26,0,0,0,.61-1.37,8.52,8.52,0,0,0,0-1.6,5.93,5.93,0,0,1,0-.73,3.8,3.8,0,0,1,.18-.74,5.49,5.49,0,0,0,.45-1.94,1,1,0,0,0-.51-.87s.39-.76.51-1a5.93,5.93,0,0,0,.38-1.17.59.59,0,0,0,0-.47.53.53,0,0,0-.24-.14c-1.44-.5-2.61.52-3.54,1.48-2.43,2.5-3.43,4.57-6.14,6.8-3.73,3.08-4.46,1.17-4.46,1.17Z" style="fill: rgb(255, 168, 167); transform-origin: 177.108px 223.38px 0px;" id="el1lx4evasrug" class="animable"></path><path d="M167.36,234a21.09,21.09,0,0,0-5.75,3,10.69,10.69,0,0,1,5.24-4.37Z" style="fill: rgb(242, 143, 143); transform-origin: 164.485px 234.815px 0px;" id="eluvkip7ta3i" class="animable"></path><path d="M210.74,211.56c-.37.79-.81,1.54-1.25,2.29s-.91,1.48-1.35,2.22c-.23.37-.44.75-.69,1.12s-.5.71-.77,1.05c-.54.69-1.1,1.35-1.7,2l.75-1.06.75-1.06c.24-.36.49-.72.72-1.08s.43-.74.66-1.12c.45-.74.93-1.47,1.42-2.19Z" style="fill: rgb(242, 143, 143); transform-origin: 207.86px 215.9px 0px;" id="el294ns1k44rj" class="animable"></path><path d="M210.67,214.84a10.35,10.35,0,0,1-.7,1.88c-.29.61-.6,1.2-.93,1.79s-.68,1.15-1,1.71a17.21,17.21,0,0,1-1.21,1.6c.34-.58.66-1.16,1-1.74l1-1.73,1-1.74C210.06,216,210.39,215.45,210.67,214.84Z" style="fill: rgb(242, 143, 143); transform-origin: 208.75px 218.33px 0px;" id="elmya6ko8x12h" class="animable"></path><path d="M150.26,194.8c-3.08,1.78-7.44,5.23-8.16,13.53s6.69,24,6.69,24,10.83-1.37,16.05-6.8c0,0-3.29-9.78-5.34-16.25S153.94,196.22,150.26,194.8Z" style="fill: rgb(69, 90, 100); transform-origin: 153.445px 213.565px 0px;" id="eldjr7v730cxf" class="animable"></path><path d="M187.4,163.52a7.22,7.22,0,0,0,2.77-3.53,11.31,11.31,0,0,0,.67-5,5.29,5.29,0,0,0-.47-1.72,2.48,2.48,0,0,0-1.92-.93l-1.38-.18a9.06,9.06,0,0,0,2.09-3,4.72,4.72,0,0,0,.14-2.71,1.39,1.39,0,0,0-.31-.66,1.54,1.54,0,0,0-1.56-.2,30.46,30.46,0,0,1-9.89.82c-2.63-.14-3.94-.45-7.55-.77s-10,1.36-11.12,8.17c-4.83.82-5.42,8.62-4,11.9,2.58,6.05,5,10,6.33,14.4.25-.18,16.4-9.62,20.1-12.27l4.16-3C186.11,164.43,186.78,164,187.4,163.52Z" style="fill: rgb(38, 50, 56); transform-origin: 172.541px 162.787px 0px;" id="elly5vb8d54s" class="animable"></path><path d="M156.46,175.7c2.89,2.14,4.75.08,4.75.08l0,14.69c6,7.74,21.92,6.48,15-1.34l.14-3.52a23.6,23.6,0,0,0,4.41-.19,7.5,7.5,0,0,0,2.56-1,7.89,7.89,0,0,0,3.51-4.72,38.56,38.56,0,0,0,1.34-10.53c0-4.27-.42-9.78-1.83-12.64-2.55-2.26-10.16-2.47-16.55-.64-.12,1.6,0,3-1.23,4.75a6.85,6.85,0,0,1-2.45,1.92c-.16,3.1-.29,3.94-.87,5.31-.31.79-.95,2-2.53,1.4-.74-.27-1.29-1.92-2.06-3-1-1.47-4.29-2.16-5.87,1A7,7,0,0,0,156.46,175.7Z" style="fill: rgb(255, 168, 167); transform-origin: 171.105px 175.168px 0px;" id="elq6bdcaxxftf" class="animable"></path><path d="M176.33,185.61c-3.23-.32-9-1.54-10.65-3.51s-3-6.53-3-6.53.64,5.12,1.9,7.34,4.06,3.11,6.09,3.74a34.93,34.93,0,0,0,5.54.92Z" style="fill: rgb(242, 143, 143); transform-origin: 169.505px 181.57px 0px;" id="elmpu0qo6p5pd" class="animable"></path><path d="M174.15,163.83l-3.09,1.34a1.76,1.76,0,0,1,.9-2.27A1.65,1.65,0,0,1,174.15,163.83Z" style="fill: rgb(38, 50, 56); transform-origin: 172.539px 163.969px 0px;" id="el0fnbdpo8z5jb" class="animable"></path><path d="M183.09,163.66l3,1.57a1.76,1.76,0,0,0-.73-2.33A1.64,1.64,0,0,0,183.09,163.66Z" style="fill: rgb(38, 50, 56); transform-origin: 184.683px 163.967px 0px;" id="elxyn6a66n4y" class="animable"></path><path d="M173.14,174.94l5.6,2.15a3.15,3.15,0,0,1-4,1.76A2.94,2.94,0,0,1,173.14,174.94Z" style="fill: rgb(177, 102, 104); transform-origin: 175.816px 176.992px 0px;" id="elis9jpbiuay" class="animable"></path><path d="M173.32,176.11a2.92,2.92,0,0,1,2.92,2.89,3,3,0,0,1-1.48-.15,2.9,2.9,0,0,1-1.85-2.7A2.71,2.71,0,0,1,173.32,176.11Z" style="fill: rgb(242, 143, 143); transform-origin: 174.575px 177.572px 0px;" id="el19spsk1rxzn" class="animable"></path><polygon points="177.73 164.16 178.74 174.26 183.97 172.06 177.73 164.16" style="fill: rgb(242, 143, 143); transform-origin: 180.85px 169.21px 0px;" id="elktibktuvei" class="animable"></polygon><path d="M172.26,167.52a1.37,1.37,0,0,0,1.35,1.4,1.38,1.38,0,1,0-1.35-1.4Z" style="fill: rgb(38, 50, 56); transform-origin: 173.64px 167.54px 0px;" id="ela7jo4i64bje" class="animable"></path><path d="M182.48,167.23a1.38,1.38,0,0,0,2.75,0,1.38,1.38,0,1,0-2.75,0Z" style="fill: rgb(38, 50, 56); transform-origin: 183.855px 167.113px 0px;" id="elp4plz3kgtob" class="animable"></path></g></g></g><defs>     <filter id="active" height="200%">         <feMorphology in="SourceAlpha" result="DILATED" operator="dilate" radius="2"></feMorphology>                <feFlood flood-color="#32DFEC" flood-opacity="1" result="PINK"></feFlood>        <feComposite in="PINK" in2="DILATED" operator="in" result="OUTLINE"></feComposite>        <feMerge>            <feMergeNode in="OUTLINE"></feMergeNode>            <feMergeNode in="SourceGraphic"></feMergeNode>        </feMerge>    </filter>    <filter id="hover" height="200%">        <feMorphology in="SourceAlpha" result="DILATED" operator="dilate" radius="2"></feMorphology>                <feFlood flood-color="#ff0000" flood-opacity="0.5" result="PINK"></feFlood>        <feComposite in="PINK" in2="DILATED" operator="in" result="OUTLINE"></feComposite>        <feMerge>            <feMergeNode in="OUTLINE"></feMergeNode>            <feMergeNode in="SourceGraphic"></feMergeNode>        </feMerge>            <feColorMatrix type="matrix" values="0   0   0   0   0                0   1   0   0   0                0   0   0   0   0                0   0   0   1   0 "></feColorMatrix>    </filter></defs></svg>