<svg class="animated" id="freepik_stories-startup-life" xmlns="http://www.w3.org/2000/svg" xmlns:xlink="http://www.w3.org/1999/xlink" viewBox="0 0 500 500" version="1.1" xmlns:svgjs="http://svgjs.com/svgjs"><style>svg#freepik_stories-startup-life:not(.animated) .animable {opacity: 0;}svg#freepik_stories-startup-life.animated #freepik--Chart--inject-160 {animation: 1.5s Infinite  linear floating;animation-delay: 0s;}svg#freepik_stories-startup-life.animated #freepik--Character--inject-160 {animation: 1.5s Infinite  linear floating;animation-delay: 0s;}            @keyframes floating {                0% {                    opacity: 1;                    transform: translateY(0px);                }                50% {                    transform: translateY(-10px);                }                100% {                    opacity: 1;                    transform: translateY(0px);                }            }        </style><g id="freepik--background-simple--inject-160" style="transform-origin: 249.939px 239.78px 0px;" class="animable"><path d="M434.75,386.27H74.07S59.73,391,51.82,353.71s32.8-47.22,42.48-79.38-32.55-25.39-29-69.4S126.85,160.07,155,166s24.63-14.39,57.18-48.25S294,87.28,318.62,113.52s16.72,53.32,47.51,53.32,58.94,5.93,77.41,62.63-15.29,82.62-14.68,108.18A275.52,275.52,0,0,0,434.75,386.27Z" style="fill: #00FF88; transform-origin: 249.939px 239.78px 0px;" id="elo2f4whzpcls" class="animable"></path><g id="eli9j5wsbky2l"><path d="M434.75,386.27H74.07S59.73,391,51.82,353.71s32.8-47.22,42.48-79.38-32.55-25.39-29-69.4S126.85,160.07,155,166s24.63-14.39,57.18-48.25S294,87.28,318.62,113.52s16.72,53.32,47.51,53.32,58.94,5.93,77.41,62.63-15.29,82.62-14.68,108.18A275.52,275.52,0,0,0,434.75,386.27Z" style="fill: rgb(255, 255, 255); opacity: 0.7; transform-origin: 249.939px 239.78px 0px;" class="animable" id="elcxlsvw1rkmm"></path></g></g><g id="freepik--Chart--inject-160" style="transform-origin: 267.01px 256.365px 0px;" class="animable"><g id="elm2j05d7l9kt"><path d="M138.23,152.63V386.26h-8.8v-244Zm123.53,97.26-3.17-3.4V386.26h8.8V247.91Zm-54.84-58.82V386.26h8.81V200.51Zm-25.83-1.29V386.26h8.8V187Zm-25.83-17.15V386.26h8.8V183Zm77.5,46.15V386.26h8.8v-158Zm155,58.78v108.7h8.8V285.63Zm-25.83-23.69V386.26h8.8V261.94Zm-77.49-11.94V386.26h8.8V238.83Zm51.66-11.76V386.26h8.8v-148Zm-25.83,2.68V386.26h8.8V229.76Z" style="opacity: 0.07; transform-origin: 262.995px 264.26px 0px;" class="animable" id="eld1aox6awr6"></path></g><polyline points="416.62 303.63 331.04 225.55 257.73 254.28 200.04 183.68 172.28 192.62 127.02 138.07" style="fill: none; stroke: #00FF88; stroke-linecap: round; stroke-linejoin: round; stroke-width: 3px; transform-origin: 271.82px 220.85px 0px;" id="elyd89rlmvyjk" class="animable"></polyline><polygon points="137.03 133.74 117.4 126.47 120.92 147.11 137.03 133.74" style="fill: #00FF88; transform-origin: 127.215px 136.79px 0px;" id="eligc6ejq63k" class="animable"></polygon></g><g id="freepik--Gears--inject-160" style="transform-origin: 254.955px 284.01px 0px;" class="animable"><path d="M160.57,355.35l3.62-1.65-.77-4.34-4-.31a17.59,17.59,0,0,0-2-3.79l2.06-3.47-3.12-3.12-3.5,2.08a17.47,17.47,0,0,0-6.69-2.73l-1-4h-4.41l-1,4a17.68,17.68,0,0,0-4,1.26l-3.16-2.73L129,339.1l1.49,3.91A17.25,17.25,0,0,0,128,346.3l-4.16-.43L122.29,350l3.44,2.34a17.61,17.61,0,0,0-.25,2.92c0,.42,0,.83,0,1.24l-3.62,2,1.15,4.27,4.09-.06a17.41,17.41,0,0,0,2.25,3.58L127.63,370l3.38,2.84,3.28-2.35a17.61,17.61,0,0,0,3.94,1.67l.66,4,4.39.39,1.33-3.75a17.41,17.41,0,0,0,4.23-.91l2.77,2.82,3.82-2.21-1-3.8a17.8,17.8,0,0,0,2.93-3.2l3.88.72,1.87-4-3-2.52A17.82,17.82,0,0,0,160.57,355.35Zm-6.53-.08a11,11,0,1,1-11-11A11,11,0,0,1,154,355.27Z" style="fill: rgb(255, 255, 255); transform-origin: 143.025px 355.285px 0px;" id="elwpm7vc63vwc" class="animable"></path><path d="M133.72,314.63l3.62-1.65-.77-4.35-4-.31a17.29,17.29,0,0,0-2-3.78l2.06-3.48-3.12-3.12L126,300a17.5,17.5,0,0,0-6.69-2.73l-1-4H113.9l-1,4a17.25,17.25,0,0,0-4,1.26l-3.16-2.73-3.61,2.53,1.49,3.9a17.71,17.71,0,0,0-2.54,3.29L97,305.14l-1.51,4.15,3.44,2.33a17.64,17.64,0,0,0-.25,2.93c0,.42,0,.83.05,1.24l-3.62,2,1.14,4.26,4.1-.05a17.62,17.62,0,0,0,2.25,3.57l-1.77,3.68,3.38,2.83,3.28-2.34a17.13,17.13,0,0,0,3.94,1.66l.66,4,4.39.38,1.33-3.74a17.42,17.42,0,0,0,4.23-.92l2.77,2.82,3.82-2.21-1.05-3.8a17.44,17.44,0,0,0,2.94-3.19l3.88.71,1.87-4-3.05-2.51A17.88,17.88,0,0,0,133.72,314.63Zm-6.53-.08a11,11,0,1,1-11-11A11,11,0,0,1,127.19,314.55Z" style="fill: rgb(255, 255, 255); transform-origin: 116.225px 314.525px 0px;" id="elpwbnnnzjqo" class="animable"></path><path d="M190.33,244.61l8.77-4-1.86-10.54-9.68-.75a42,42,0,0,0-4.84-9.17l5-8.43-7.57-7.57-8.5,5a42.38,42.38,0,0,0-16.22-6.62l-2.46-9.7h-10.7l-2.46,9.77a41.67,41.67,0,0,0-9.62,3.05l-7.65-6.62-8.77,6.14,3.62,9.46a42.64,42.64,0,0,0-6.15,8l-10.07-1-3.66,10,8.34,5.66a42.63,42.63,0,0,0-.61,7.11c0,1,0,2,.12,3l-8.77,4.9,2.77,10.34,9.93-.13a42.21,42.21,0,0,0,5.45,8.67l-4.28,8.91,8.19,6.88,8-5.69a42.19,42.19,0,0,0,9.57,4l1.59,9.58,10.66.94,3.21-9.08a42.05,42.05,0,0,0,10.26-2.22l6.73,6.84,9.26-5.35-2.54-9.22a43,43,0,0,0,7.12-7.76l9.41,1.74,4.52-9.7L189,255A43,43,0,0,0,190.33,244.61Zm-15.83-.18a26.72,26.72,0,1,1-26.72-26.72A26.71,26.71,0,0,1,174.5,244.43Z" style="fill: rgb(255, 255, 255); transform-origin: 147.845px 244.315px 0px;" id="el8pa2465r2c4" class="animable"></path><path d="M411.18,212.8l3.62-1.65L414,206.8l-4-.31a17.71,17.71,0,0,0-2-3.78l2.05-3.47L407,196.12l-3.5,2.08a17.31,17.31,0,0,0-6.69-2.73l-1-4h-4.41l-1,4a17.18,17.18,0,0,0-4,1.26L383.23,194l-3.62,2.53,1.49,3.91a17.59,17.59,0,0,0-2.53,3.28l-4.15-.43-1.51,4.15,3.44,2.33a17.73,17.73,0,0,0-.25,2.93c0,.42,0,.83,0,1.24l-3.62,2,1.14,4.26,4.1-.05a17.37,17.37,0,0,0,2.24,3.58l-1.76,3.67,3.38,2.84,3.27-2.35a17.49,17.49,0,0,0,4,1.67l.65,4,4.4.38,1.32-3.74a17.41,17.41,0,0,0,4.23-.91l2.78,2.81,3.82-2.2-1.05-3.8a17.86,17.86,0,0,0,2.94-3.2l3.88.71,1.86-4-3-2.52A17.33,17.33,0,0,0,411.18,212.8Zm-6.52-.08a11,11,0,1,1-11-11A11,11,0,0,1,404.66,212.72Z" style="fill: rgb(255, 255, 255); transform-origin: 393.64px 212.705px 0px;" id="elshbhfb07z2i" class="animable"></path></g><g id="freepik--Plants--inject-160" style="transform-origin: 366.978px 319.833px 0px;" class="animable"><path d="M337.09,307.79c-2,5-4.12,1-3.79-20.05.15-9.86.85-30,11.75-25.57,10.48,4.26-3.33,34-3.33,34Zm15,3s22.74-23.69,14.21-31.12c-8.87-7.74-16.07,11.09-19.42,20.36-7.15,19.8-6.49,24.29-2.93,20.2Zm4.8,21.26s20.81-14.82,15.37-21.74c-5.67-7.2-13.9,6.15-17.8,12.76-8.33,14.1-8.48,17.63-5.17,15Zm5.63,21.19s20.81-14.81,15.37-21.73c-5.66-7.2-13.89,6.15-17.8,12.76-8.33,14.09-8.47,17.63-5.17,15Zm-36.35-42.61s-29.12-15.16-33.86-4.89c-4.93,10.69,15.17,12.31,25,12.91,21,1.3,25.13-.6,20.21-2.86Zm4.1,16.68s-31.55-9.06-34.15,1.94c-2.71,11.46,17.31,9.05,27.07,7.69,20.84-2.91,24.51-5.59,19.24-6.82Zm7.23,18.2s-26.9-6.94-28.84,2.43c-2,9.75,14.84,7.25,23.07,5.87,17.56-2.94,20.6-5.29,16.11-6.21Zm4.21,15s-26-9.76-28.94-.65c-3,9.48,14,8.79,22.32,8.29,17.77-1.06,21-3.07,16.68-4.47Zm-17.42-76.09s-11.87-36.9-25.34-30.2c-14,7,2.17,23.62,10.28,31.58,17.3,17,22.65,18.19,20.37,12.26Z" style="fill: rgb(255, 255, 255); transform-origin: 335.17px 310.903px 0px;" id="elka1jl4fbvuk" class="animable"></path><path d="M304.55,267.38s29.82,36.38,37,54.59c8.19,20.93,13.78,44.5,14.88,64" style="fill: none; stroke: rgb(204, 204, 204); stroke-linecap: round; stroke-linejoin: round; stroke-width: 1.25197px; transform-origin: 330.49px 326.675px 0px;" id="el7ke6wg0nkuv" class="animable"></path><line x1="335.57" y1="310.09" x2="339.72" y2="275.4" style="fill: none; stroke: rgb(204, 204, 204); stroke-linecap: round; stroke-linejoin: round; stroke-width: 1.25197px; transform-origin: 337.645px 292.745px 0px;" id="eluchdyq0y1g9" class="animable"></line><line x1="341.51" y1="321.97" x2="356.51" y2="292.81" style="fill: none; stroke: rgb(204, 204, 204); stroke-linecap: round; stroke-linejoin: round; stroke-width: 1.25197px; transform-origin: 349.01px 307.39px 0px;" id="elw8oxje83l7" class="animable"></line><line x1="339.32" y1="317.65" x2="307.9" y2="311.25" style="fill: none; stroke: rgb(204, 204, 204); stroke-linecap: round; stroke-linejoin: round; stroke-width: 1.25197px; transform-origin: 323.61px 314.45px 0px;" id="elt9vvsx0zyw" class="animable"></line><line x1="347.41" y1="338.52" x2="365.88" y2="317.47" style="fill: none; stroke: rgb(204, 204, 204); stroke-linecap: round; stroke-linejoin: round; stroke-width: 1.25197px; transform-origin: 356.645px 327.995px 0px;" id="elfls9jsk02gn" class="animable"></line><line x1="344.83" y1="331.59" x2="321.11" y2="331.38" style="fill: none; stroke: rgb(204, 204, 204); stroke-linecap: round; stroke-linejoin: round; stroke-width: 1.25197px; transform-origin: 332.97px 331.485px 0px;" id="el3fekk6kror7" class="animable"></line><line x1="349.39" y1="348.8" x2="331.2" y2="349.52" style="fill: none; stroke: rgb(204, 204, 204); stroke-linecap: round; stroke-linejoin: round; stroke-width: 1.25197px; transform-origin: 340.295px 349.16px 0px;" id="el22o6gcrdip4" class="animable"></line><line x1="353.13" y1="359.79" x2="362.87" y2="346.81" style="fill: none; stroke: rgb(204, 204, 204); stroke-linecap: round; stroke-linejoin: round; stroke-width: 1.25197px; transform-origin: 358px 353.3px 0px;" id="elch6xt0hv1ok" class="animable"></line><line x1="353.84" y1="364.62" x2="332.57" y2="363.56" style="fill: none; stroke: rgb(204, 204, 204); stroke-linecap: round; stroke-linejoin: round; stroke-width: 1.25197px; transform-origin: 343.205px 364.09px 0px;" id="elp5evvyr2669" class="animable"></line><path d="M413.1,336.53c-3.67,1.38-2.54-1.71,8.81-11.88,5.32-4.76,16.38-14.29,19.38-6.31,2.88,7.66-19.75,15-19.75,15Zm5.78,9.43s23.77.45,23.53-7.74c-.24-8.52-13.8-3.1-20.38-.32-14,5.93-16.1,8.49-12.18,8.37Zm-9,13S428,362.75,429,356.45c1-6.55-10.1-4.36-15.53-3.19-11.6,2.49-13.55,4.15-10.53,4.63Zm-8.5,13.42s18.11,3.78,19.12-2.51c1-6.55-10.11-4.37-15.54-3.2-11.59,2.5-13.54,4.16-10.53,4.64Zm4.8-40.29s-6.25-22.94-14-20.41c-8.11,2.63.91,14.12,5.42,19.65,9.63,11.81,12.67,13.07,11.46,9.34Zm-6.86,10.39s-10.69-21.24-17.82-17.22c-7.42,4.2,3.7,13.66,9.22,18.18,11.79,9.66,15,10.29,13.09,6.88Zm-6.13,12.78s-9.53-17.71-15.46-14.14c-6.19,3.71,3.44,11.46,8.21,15.16,10.2,7.89,12.94,8.35,11.23,5.51Zm-5.92,9.62s-7.59-18.62-13.88-15.7c-6.54,3,2.21,11.76,6.57,15.94,9.29,8.94,12,9.68,10.57,6.68Zm31.92-46.66s13.79-24.45,3.6-28.32c-10.61-4-11.49,12.76-11.74,21-.54,17.56,1.45,21,3.49,16.86Z" style="fill: rgb(255, 255, 255); transform-origin: 406.728px 331.399px 0px;" id="ela2drhfyjhk" class="animable"></path><path d="M418.61,299.36s-4.7,33.74-10.88,46.49c-7.1,14.64-17.81,30.23-27.65,40.41" style="fill: none; stroke: rgb(204, 204, 204); stroke-linecap: round; stroke-linejoin: round; stroke-width: 1.25197px; transform-origin: 399.345px 342.81px 0px;" id="elo3l17itx95" class="animable"></path><line x1="411.13" y1="336.85" x2="431.63" y2="322" style="fill: none; stroke: rgb(204, 204, 204); stroke-linecap: round; stroke-linejoin: round; stroke-width: 1.25197px; transform-origin: 421.38px 329.425px 0px;" id="ela6zcxxkz809" class="animable"></line><line x1="407.73" y1="345.85" x2="430.62" y2="339.49" style="fill: none; stroke: rgb(204, 204, 204); stroke-linecap: round; stroke-linejoin: round; stroke-width: 1.25197px; transform-origin: 419.175px 342.67px 0px;" id="elt6x3h7scnom" class="animable"></line><line x1="408.95" y1="342.56" x2="396.92" y2="322.7" style="fill: none; stroke: rgb(204, 204, 204); stroke-linecap: round; stroke-linejoin: round; stroke-width: 1.25197px; transform-origin: 402.935px 332.63px 0px;" id="el3e7a9iqohna" class="animable"></line><line x1="401.83" y1="357.12" x2="422.11" y2="356.6" style="fill: none; stroke: rgb(204, 204, 204); stroke-linecap: round; stroke-linejoin: round; stroke-width: 1.25197px; transform-origin: 411.97px 356.86px 0px;" id="elvwjqqnjzt2" class="animable"></line><line x1="404.25" y1="352.34" x2="392.7" y2="339.62" style="fill: none; stroke: rgb(204, 204, 204); stroke-linecap: round; stroke-linejoin: round; stroke-width: 1.25197px; transform-origin: 398.475px 345.98px 0px;" id="elufz57el1a9" class="animable"></line><line x1="397.34" y1="363.23" x2="388.01" y2="353.91" style="fill: none; stroke: rgb(204, 204, 204); stroke-linecap: round; stroke-linejoin: round; stroke-width: 1.25197px; transform-origin: 392.675px 358.57px 0px;" id="elcct3pm9ik2" class="animable"></line><line x1="393.33" y1="370.62" x2="405.02" y2="369.42" style="fill: none; stroke: rgb(204, 204, 204); stroke-linecap: round; stroke-linejoin: round; stroke-width: 1.25197px; transform-origin: 399.175px 370.02px 0px;" id="elkaanjgp69w" class="animable"></line><line x1="391.11" y1="373.37" x2="381.22" y2="361.54" style="fill: none; stroke: rgb(204, 204, 204); stroke-linecap: round; stroke-linejoin: round; stroke-width: 1.25197px; transform-origin: 386.165px 367.455px 0px;" id="ellkb53yt7wys" class="animable"></line></g><g id="freepik--Character--inject-160" style="transform-origin: 265.29px 269.5px 0px;" class="animable"><ellipse cx="265.29" cy="401.12" rx="65.29" ry="10.88" style="fill: #00FF88; transform-origin: 265.29px 401.12px 0px;" id="elss4cz05aiq" class="animable"></ellipse><g id="elzchzix30ra"><ellipse cx="265.29" cy="401.12" rx="65.29" ry="10.88" style="fill: rgb(255, 255, 255); opacity: 0.5; transform-origin: 265.29px 401.12px 0px;" class="animable" id="elhm1a5nm3aoa"></ellipse></g><path d="M259.65,163a60.76,60.76,0,0,0-5.54,44.21c6.41,25.06,24.2,54.06,24.2,54.06l22.16-7s-1.75-41.67-11.08-61.38S262.86,162.43,259.65,163Z" style="fill: rgb(38, 50, 56); stroke: rgb(38, 50, 56); stroke-linecap: round; stroke-linejoin: round; transform-origin: 276.34px 212.124px 0px;" id="el6gllbtxq4np" class="animable"></path><path d="M274.81,161.53a64.89,64.89,0,0,0-5.54,45.79c6.42,26,24.21,56,24.21,56L315.64,256s-1.75-43.15-11.08-63.57S278,161,274.81,161.53Z" style="fill: #00FF88; transform-origin: 291.502px 212.416px 0px;" id="ell2zjnio9jkl" class="animable"></path><g style="clip-path: url(&quot;#freepik--clip-path--inject-160&quot;); transform-origin: 288.809px 218.126px 0px;" id="elmrhpo5brdla" class="animable"><g id="el7adekd6jx"><path d="M274,173a57.53,57.53,0,0,0-4.91,40.61c5.69,23,21.47,49.66,21.47,49.66l19.66-6.46s-1.55-38.29-9.83-56.39S276.82,172.51,274,173Z" style="opacity: 0.29; transform-origin: 288.809px 218.126px 0px;" class="animable" id="elg0cgdn7qah4"></path></g></g><path d="M274.81,161.53a64.89,64.89,0,0,0-5.54,45.79c6.42,26,24.21,56,24.21,56L315.64,256s-1.75-43.15-11.08-63.57S278,161,274.81,161.53Z" style="fill: none; stroke: rgb(38, 50, 56); stroke-linecap: round; stroke-linejoin: round; transform-origin: 291.502px 212.416px 0px;" id="eljnedyhivid" class="animable"></path><path d="M274.81,161.53a63.17,63.17,0,0,0-7.39,28.05,55.66,55.66,0,0,0,12.62-.9,52.37,52.37,0,0,0,18.4-7C289.11,168.2,277.4,161.06,274.81,161.53Z" style="fill: rgb(38, 50, 56); stroke: rgb(38, 50, 56); stroke-linecap: round; stroke-linejoin: round; transform-origin: 282.93px 175.569px 0px;" id="el2vh0hugu2ls" class="animable"></path><path d="M315.37,251.19l-24.05,8.33c1.34,2.4,2.16,3.78,2.16,3.78L315.64,256S315.56,254.21,315.37,251.19Z" style="fill: rgb(38, 50, 56); stroke: rgb(38, 50, 56); stroke-linecap: round; stroke-linejoin: round; transform-origin: 303.48px 257.245px 0px;" id="el6ngqgxa34v" class="animable"></path><path d="M219.47,388.33s-8.4,6.11-15.27,8-2.29,5.72,3.05,5.72,14.13-1.91,18.33-1.91,8,1.53,9.55-2.29.38-6.11.38-6.11S224.82,388.71,219.47,388.33Z" style="fill: rgb(255, 255, 255); stroke: rgb(38, 50, 56); stroke-linecap: round; stroke-linejoin: round; transform-origin: 218.333px 395.19px 0px;" id="elravhna0p2of" class="animable"></path><path d="M226.32,397.72c-6.63,0-9.43,2.1-16.24,2.62a13.52,13.52,0,0,1-9.08-2.25c-1.28,1.87,2.28,4,6.25,4,5.35,0,14.13-1.91,18.33-1.91s8,1.53,9.55-2.29a10.88,10.88,0,0,0,.71-2.67A24,24,0,0,1,226.32,397.72Z" style="fill: rgb(255, 255, 255); stroke: rgb(38, 50, 56); stroke-linecap: round; stroke-linejoin: round; transform-origin: 218.287px 398.655px 0px;" id="elvzhrl1t0i5" class="animable"></path><path d="M283.8,390.21s-5.06,8.39-8,10.83-4.89,5.24-1.58,5.42,10.14-1.75,16.43-4.37,12.4-9.43,12.4-10.48-3.14-5.77-3.14-5.77S288.17,387.77,283.8,390.21Z" style="fill: rgb(255, 255, 255); stroke: rgb(38, 50, 56); stroke-linecap: round; stroke-linejoin: round; transform-origin: 287.77px 396.156px 0px;" id="eldsu82i4ta8i" class="animable"></path><path d="M302.37,390a42.47,42.47,0,0,1-14.72,10.37c-7.72,3.31-12.76,4.21-15.09,4.46-.31.92.08,1.58,1.63,1.66,3.32.17,10.14-1.75,16.43-4.37s12.4-9.43,12.4-10.48A4.92,4.92,0,0,0,302.37,390Z" style="fill: rgb(255, 255, 255); stroke: rgb(38, 50, 56); stroke-linecap: round; stroke-linejoin: round; transform-origin: 287.741px 398.25px 0px;" id="elfizxx30q3rb" class="animable"></path><path d="M237.42,258.89l-4.58,14.89S216,310.05,212.6,319.6s4.58,26.35,5.35,37,.38,25.2.38,25.2a3.89,3.89,0,0,0-1.53,2.67v5l19.85,4.58s.77-9.54,0-14.5-1.52-35.9-1.52-40.48-1.53-13.74-1.53-13.74l14.51-19.09s-4.2,22.52-2.67,26.72,14.89,20.24,18.32,23.29,21,26.73,21,26.73-2.67,2.29-2.67,4.2a33.8,33.8,0,0,0,.76,5.35l17.95-5s-2.29-7.25-6.11-16.8-25.2-43.14-25.2-43.14,17.18-42.77,17.18-52.31.38-16.42.38-16.42S257.27,266.91,237.42,258.89Z" style="fill: rgb(38, 50, 56); stroke: rgb(38, 50, 56); stroke-linecap: round; stroke-linejoin: round; transform-origin: 256.28px 326.455px 0px;" id="elxo7nwphe5h8" class="animable"></path><polyline points="248.11 306.24 252.69 283.71 246.58 275.69" style="fill: none; stroke: rgb(255, 255, 255); stroke-linecap: round; stroke-linejoin: round; transform-origin: 249.635px 290.965px 0px;" id="elaoe8xbm94s" class="animable"></polyline><path d="M219.25,253.64a1.56,1.56,0,0,1-.83-3l39.69-15a1.56,1.56,0,1,1,1.1,2.92l-39.68,15A1.64,1.64,0,0,1,219.25,253.64Z" style="fill: rgb(38, 50, 56); stroke: rgb(38, 50, 56); stroke-linecap: round; stroke-linejoin: round; transform-origin: 238.799px 244.606px 0px;" id="elblifywbc7k8" class="animable"></path><path d="M220.92,234s4.26,1.28,15.69-5.17l3.14,12.35s-8.11,3.5-20.1,1.85Z" style="fill: rgb(255, 255, 255); transform-origin: 229.7px 236.151px 0px;" id="elqbcv7lfpkr9" class="animable"></path><g style="clip-path: url(&quot;#freepik--clip-path-2--inject-160&quot;); transform-origin: 229.7px 236.151px 0px;" id="elh9rfck2351" class="animable"><g id="ell6vv1na3v5"><path d="M220.92,234s4.26,1.28,15.69-5.17l3.14,12.35s-8.11,3.5-20.1,1.85Z" style="opacity: 0.15; transform-origin: 229.7px 236.151px 0px;" class="animable" id="el8n0s8rw3f0v"></path></g></g><path d="M220.92,234s4.26,1.28,15.69-5.17l3.14,12.35s-8.11,3.5-20.1,1.85Z" style="fill: none; stroke: rgb(38, 50, 56); stroke-linecap: round; stroke-linejoin: round; transform-origin: 229.7px 236.151px 0px;" id="ellgojsaq4edd" class="animable"></path><path d="M220.4,250.92a2.58,2.58,0,0,1-2.48-1.91l-6.11-23a2.57,2.57,0,1,1,5-1.32l6.11,23a2.56,2.56,0,0,1-1.82,3.14A2.5,2.5,0,0,1,220.4,250.92Z" style="fill: #00FF88; stroke: rgb(38, 50, 56); stroke-miterlimit: 10; transform-origin: 217.366px 236.842px 0px;" id="eljp566lj8t5p" class="animable"></path><path d="M222.76,229.27c-2.92-1.26-5.1,7.67-1.36,10.3,2,1.4,3.26-1.26,3.45-3s.13-4.76-.86-6.19A3.11,3.11,0,0,0,222.76,229.27Z" style="fill: rgb(255, 255, 255); stroke: rgb(38, 50, 56); stroke-linecap: round; stroke-linejoin: round; transform-origin: 222.176px 234.556px 0px;" id="eloeofr3ey6x8" class="animable"></path><path d="M221.81,242.59s-4.33-.16-6,1.29-.43,3.18.56,3,5.59-.61,6.5-1.56S223.79,243.84,221.81,242.59Z" style="fill: rgb(255, 255, 255); stroke: rgb(38, 50, 56); stroke-linecap: round; stroke-linejoin: round; transform-origin: 219.225px 244.739px 0px;" id="elyrax01abq9" class="animable"></path><path d="M220.64,238.61s-5-.28-6.93,1.45-.44,3.89.71,3.73,6.49-.64,7.53-1.79S223,240.17,220.64,238.61Z" style="fill: rgb(255, 255, 255); stroke: rgb(38, 50, 56); stroke-linecap: round; stroke-linejoin: round; transform-origin: 217.698px 241.196px 0px;" id="elbmgt5kezlug" class="animable"></path><path d="M220.18,234.54s-6.1-1.12-8.68.7-1.14,4.67.29,4.66,8,.22,9.45-1S222.77,236.81,220.18,234.54Z" style="fill: rgb(255, 255, 255); stroke: rgb(38, 50, 56); stroke-linecap: round; stroke-linejoin: round; transform-origin: 216.162px 237.055px 0px;" id="eljq4jss3sr88" class="animable"></path><path d="M219.85,229.69s-6.09-1.12-8.68.7-1.13,4.66.3,4.65,8,.22,9.45-1S222.44,232,219.85,229.69Z" style="fill: rgb(255, 255, 255); stroke: rgb(38, 50, 56); stroke-linecap: round; stroke-linejoin: round; transform-origin: 215.834px 232.2px 0px;" id="elmtl174ja70j" class="animable"></path><path d="M235.79,186.1s-7.48,13.74-6.06,25.26,6.06,23,7.27,28.08-2.63,17-1.82,20.6,17.78,5.46,32.33,6.07,21-3.24,21.82-7.28,1.21-3.43.6-10.91-7.27-47.07-11.31-54.75S255.39,178.83,252.15,178,240,178.43,235.79,186.1Z" style="fill: rgb(255, 255, 255); transform-origin: 259.889px 221.977px 0px;" id="elwc4902stw59" class="animable"></path><g style="clip-path: url(&quot;#freepik--clip-path-3--inject-160&quot;); transform-origin: 269.919px 230.362px 0px;" id="elwuz59ksns78" class="animable"><g id="el6qntzuc4p0u"><path d="M272.16,195.63l-7.67,12s-.66,5.67,2.34,10A84.88,84.88,0,0,0,272.5,225l-14.68-7.67s9.68,15,12.34,18,6.67,8,2.67,13.68c-3.87,5.48-21.46,12.53-23.22,15.7,5.51.7,11.91,1.16,17.9,1.41,14.54.6,21-3.24,21.82-7.28s1.21-3.43.6-10.91c-.57-7-6.45-42.16-10.51-52.91C276.39,194.29,273.79,194.32,272.16,195.63Z" style="opacity: 0.15; transform-origin: 269.919px 230.362px 0px;" class="animable" id="el7ckuaal948b"></path></g></g><path d="M235.79,186.1s-7.48,13.74-6.06,25.26,6.06,23,7.27,28.08-2.63,17-1.82,20.6,17.78,5.46,32.33,6.07,21-3.24,21.82-7.28,1.21-3.43.6-10.91-7.27-47.07-11.31-54.75S255.39,178.83,252.15,178,240,178.43,235.79,186.1Z" style="fill: none; stroke: rgb(38, 50, 56); stroke-linecap: round; stroke-linejoin: round; transform-origin: 259.889px 221.977px 0px;" id="elduf5s8ozrh" class="animable"></path><polygon points="251.55 173.78 237 192.16 244.73 203.07 257.56 179.01 251.55 173.78" style="fill: rgb(255, 255, 255); stroke: rgb(38, 50, 56); stroke-linecap: round; stroke-linejoin: round; transform-origin: 247.28px 188.425px 0px;" id="elywpjdgr6n" class="animable"></polygon><polygon points="231.21 190.94 231.05 199.23 237.68 195.25 231.21 190.94" style="fill: rgb(255, 255, 255); stroke: rgb(38, 50, 56); stroke-linecap: round; stroke-linejoin: round; transform-origin: 234.365px 195.085px 0px;" id="eligbdy7vqnb" class="animable"></polygon><polygon points="233.54 184.14 231.21 190.94 240.33 199.06 233.54 184.14" style="fill: rgb(255, 255, 255); stroke: rgb(38, 50, 56); stroke-linecap: round; stroke-linejoin: round; transform-origin: 235.77px 191.6px 0px;" id="elig9dez6c1s" class="animable"></polygon><path d="M229.84,174.7s7.4,20.31,9.52,19.67,10.58-15,11-17.77-2.54-9.31-2.54-9.31a56.07,56.07,0,0,0-11.64,4.23C229.62,174.7,229.84,174.7,229.84,174.7Z" style="fill: rgb(255, 255, 255); transform-origin: 240.12px 180.837px 0px;" id="elid1uzmrebgm" class="animable"></path><g style="clip-path: url(&quot;#freepik--clip-path-4--inject-160&quot;); transform-origin: 240.615px 176.66px 0px;" id="elrxujk6hoig" class="animable"><path d="M236.18,171.52l-.28.14a6.23,6.23,0,0,1-.76,1.63c-1.92,2.87-3.55,3.77-4.31,4.05.06.16.12.32.19.49L245.68,186c2.36-3.93,4.47-8,4.68-9.37.42-2.75-2.54-9.31-2.54-9.31A56.07,56.07,0,0,0,236.18,171.52Z" style="fill: #00FF88; transform-origin: 240.615px 176.66px 0px;" id="elpkzy022g8o" class="animable"></path><g id="el5zl7cpev0xy"><path d="M236.18,171.52l-.28.14a6.23,6.23,0,0,1-.76,1.63c-1.92,2.87-3.55,3.77-4.31,4.05.06.16.12.32.19.49L245.68,186c2.36-3.93,4.47-8,4.68-9.37.42-2.75-2.54-9.31-2.54-9.31A56.07,56.07,0,0,0,236.18,171.52Z" style="fill: rgb(255, 255, 255); opacity: 0.5; transform-origin: 240.615px 176.66px 0px;" class="animable" id="elx7log8pge5o"></path></g></g><path d="M229.84,174.7s7.4,20.31,9.52,19.67,10.58-15,11-17.77-2.54-9.31-2.54-9.31a56.07,56.07,0,0,0-11.64,4.23C229.62,174.7,229.84,174.7,229.84,174.7Z" style="fill: none; stroke: rgb(38, 50, 56); stroke-linecap: round; stroke-linejoin: round; transform-origin: 240.12px 180.837px 0px;" id="el8g6od1kf92j" class="animable"></path><path d="M229.73,211.36s4.24,5.86,25.45,5.65l3.84,5.66s-16.77,3.64-28.28-6.06Z" style="fill: rgb(38, 50, 56); stroke: rgb(38, 50, 56); stroke-linecap: round; stroke-linejoin: round; transform-origin: 244.375px 217.35px 0px;" id="el6dg6xxi6wti" class="animable"></path><path d="M262.25,181.86s-6.66,1.21-9.89,14.14,4.44,29.9,16.56,34.55,18.39-3.64,18.39-3.64l-1.82-4.44s-4.24,8.28-14.75,3.84S256.19,211,257,200.24s10.51-15.75,10.51-15.75Z" style="fill: rgb(38, 50, 56); stroke: rgb(38, 50, 56); stroke-linecap: round; stroke-linejoin: round; transform-origin: 269.465px 206.913px 0px;" id="elk71hqhk7bt" class="animable"></path><path d="M242,262.13a1.71,1.71,0,0,1-.31-3.4l73.75-25.94a1.72,1.72,0,0,1,.64,3.38l-73.76,25.94A1.72,1.72,0,0,1,242,262.13Z" style="fill: rgb(38, 50, 56); stroke: rgb(38, 50, 56); stroke-linecap: round; stroke-linejoin: round; transform-origin: 278.858px 247.445px 0px;" id="el5oidmuohoh" class="animable"></path><path d="M244.54,259.18a2.87,2.87,0,0,1-2.77-2.12L235,231.43a2.87,2.87,0,1,1,5.54-1.47l6.82,25.62a2.87,2.87,0,0,1-2,3.51A3.18,3.18,0,0,1,244.54,259.18Z" style="fill: #00FF88; stroke: rgb(38, 50, 56); stroke-miterlimit: 10; transform-origin: 241.16px 243.428px 0px;" id="elm6oneb1vqb" class="animable"></path><path d="M259,245.09s-8.89-6.86-11.51-8.68-8.69.6-10.71.6-4.65,2-4.24,3.44a5.13,5.13,0,0,0,2,2.42s-1.42,2.43-.21,4.25a6.07,6.07,0,0,1,1.22,3,9,9,0,0,0,2.22,3.23c1.21.81,3.84,1.21,7.07,1.21s8.89-2.22,8.89-2.22l5.66-.2Z" style="fill: rgb(255, 255, 255); transform-origin: 245.944px 245.146px 0px;" id="elxtr3wa570c" class="animable"></path><g style="clip-path: url(&quot;#freepik--clip-path-5--inject-160&quot;); transform-origin: 248.774px 247.794px 0px;" id="el0fqwdrlrzugt" class="animable"><path d="M253.77,252.37l5.66-.2-.08-1.39-.86-4.12s-9.67-6-13.68-5.67-6.33.3-6.67,6.34a9.07,9.07,0,0,0,2.59,7,28.22,28.22,0,0,0,4.15.28C248.11,254.59,253.77,252.37,253.77,252.37Z" style="fill: #00FF88; transform-origin: 248.774px 247.794px 0px;" id="elojuo5yeezfh" class="animable"></path><g id="elgva2okh0y4b"><path d="M253.77,252.37l5.66-.2-.08-1.39-.86-4.12s-9.67-6-13.68-5.67-6.33.3-6.67,6.34a9.07,9.07,0,0,0,2.59,7,28.22,28.22,0,0,0,4.15.28C248.11,254.59,253.77,252.37,253.77,252.37Z" style="fill: rgb(255, 255, 255); opacity: 0.5; transform-origin: 248.774px 247.794px 0px;" class="animable" id="el4p1susyrnqt"></path></g></g><path d="M259,245.09s-8.89-6.86-11.51-8.68-8.69.6-10.71.6-4.65,2-4.24,3.44a5.13,5.13,0,0,0,2,2.42s-1.42,2.43-.21,4.25a6.07,6.07,0,0,1,1.22,3,9,9,0,0,0,2.22,3.23c1.21.81,3.84,1.21,7.07,1.21s8.89-2.22,8.89-2.22l5.66-.2Z" style="fill: none; stroke: rgb(38, 50, 56); stroke-linecap: round; stroke-linejoin: round; transform-origin: 245.944px 245.146px 0px;" id="elplphla1l5cb" class="animable"></path><path d="M264.88,188.33s-7.27,6.66-4.44,15.55S275,221.05,278,225.09a65.31,65.31,0,0,0,7.28,7.88s-9.1,4.45-15.56,7.28a81.06,81.06,0,0,1-11.31,4l.2,7.67s22.22,1,32.52-3,17.78-9.09,17.78-15.15S296,216.41,289.12,205.5s-11.92-16.57-18.78-17.58" style="fill: rgb(255, 255, 255); transform-origin: 283.66px 219.976px 0px;" id="el55geimp8m4l" class="animable"></path><g style="clip-path: url(&quot;#freepik--clip-path-6--inject-160&quot;); transform-origin: 289.045px 220.945px 0px;" id="elysi4dnu27i" class="animable"><g id="ellp46662exrk"><path d="M291.14,248.93c10.31-4,17.78-9.09,17.78-15.15S296,216.41,289.12,205.5c-4.93-7.84-8.93-12.95-13.34-15.59,1.92,1.92,7.78,8.05,8.06,11.39.33,4-16.34,2.34-13.34,4.34s16.67,6.67,22.68,12,13.67,10,10.34,14-19,9-30.35,16.34a11,11,0,0,0-4,4C276.31,251.84,285.51,251.14,291.14,248.93Z" style="opacity: 0.15; transform-origin: 289.045px 220.945px 0px;" class="animable" id="el6jxx0r88eeq"></path></g></g><path d="M264.88,188.33s-7.27,6.66-4.44,15.55S275,221.05,278,225.09a65.31,65.31,0,0,0,7.28,7.88s-9.1,4.45-15.56,7.28a81.06,81.06,0,0,1-11.31,4l.2,7.67s22.22,1,32.52-3,17.78-9.09,17.78-15.15S296,216.41,289.12,205.5s-11.92-16.57-18.78-17.58" style="fill: none; stroke: rgb(38, 50, 56); stroke-linecap: round; stroke-linejoin: round; transform-origin: 283.66px 219.976px 0px;" id="elswqvc9l0hw" class="animable"></path><line x1="262.66" y1="243.07" x2="263.47" y2="251.96" style="fill: none; stroke: rgb(38, 50, 56); stroke-linecap: round; stroke-linejoin: round; transform-origin: 263.065px 247.515px 0px;" id="el3zflwzabtp" class="animable"></line><path d="M285.29,233s7.27-4.85,11.92-6.06" style="fill: none; stroke: rgb(38, 50, 56); stroke-linecap: round; stroke-linejoin: round; transform-origin: 291.25px 229.97px 0px;" id="el2aw4gcxzc6m" class="animable"></path><path d="M227.59,142.38a59.72,59.72,0,0,0-2.07,6c-.49,2.06-3.1,5.79-4.63,6.74s-5.1,2.28-3.53,4a17.55,17.55,0,0,0,4.71,3.06s-1.23,7.1-.45,11.19,3.66,4.78,6.27,4.74,12.46-1.21,15.79-5.21,8.69-16.65,6.06-24.87S232.25,134.57,227.59,142.38Z" style="fill: rgb(255, 255, 255); transform-origin: 233.706px 158.327px 0px;" id="eljijct5oi4pj" class="animable"></path><g style="clip-path: url(&quot;#freepik--clip-path-7--inject-160&quot;); transform-origin: 240.396px 161.255px 0px;" id="elxt2gko00b3" class="animable"><path d="M233.81,156.61c1.33,5.34,4,12.67,1.33,16.68s-4.79,4.18-4.79,4.18l.66.36c4-.53,10.17-1.94,12.67-4.94,3.33-4,8.69-16.65,6.06-24.87a10.56,10.56,0,0,0-1.84-3.34l-11.09,2.26S232.47,151.27,233.81,156.61Z" style="fill: #00FF88; transform-origin: 240.396px 161.255px 0px;" id="ely0cm6yjqq4" class="animable"></path><g id="el993ma41cjl"><path d="M233.81,156.61c1.33,5.34,4,12.67,1.33,16.68s-4.79,4.18-4.79,4.18l.66.36c4-.53,10.17-1.94,12.67-4.94,3.33-4,8.69-16.65,6.06-24.87a10.56,10.56,0,0,0-1.84-3.34l-11.09,2.26S232.47,151.27,233.81,156.61Z" style="fill: rgb(255, 255, 255); opacity: 0.5; transform-origin: 240.396px 161.255px 0px;" class="animable" id="elsnyow185ty"></path></g></g><path d="M227.59,142.38a59.72,59.72,0,0,0-2.07,6c-.49,2.06-3.1,5.79-4.63,6.74s-5.1,2.28-3.53,4a17.55,17.55,0,0,0,4.71,3.06s-1.23,7.1-.45,11.19,3.66,4.78,6.27,4.74,12.46-1.21,15.79-5.21,8.69-16.65,6.06-24.87S232.25,134.57,227.59,142.38Z" style="fill: none; stroke: rgb(38, 50, 56); stroke-linecap: round; stroke-linejoin: round; transform-origin: 233.706px 158.327px 0px;" id="elox5iw0513f" class="animable"></path><path d="M241,171.45s-6,5.16-10.6,6c0,0,8,1.14,16.33-5.73Z" style="fill: rgb(38, 50, 56); stroke: rgb(38, 50, 56); stroke-linecap: round; stroke-linejoin: round; transform-origin: 238.565px 174.485px 0px;" id="elf4y54ea9p9e" class="animable"></path><path d="M228.56,149.35s2.19-3.91,4.59,1.08" style="fill: none; stroke: rgb(38, 50, 56); stroke-linecap: round; stroke-linejoin: round; transform-origin: 230.855px 149.161px 0px;" id="el7457n7l55xy" class="animable"></path><path d="M224.06,164.81s3.93,1.79,7.07-.51" style="fill: none; stroke: rgb(38, 50, 56); stroke-linecap: round; stroke-linejoin: round; transform-origin: 227.595px 164.887px 0px;" id="eljpavluk15k" class="animable"></path><path d="M229.36,153.34c-.23,1-.73,1.68-1.13,1.58s-.54-.95-.31-1.92.73-1.67,1.13-1.58S229.59,152.37,229.36,153.34Z" style="fill: rgb(38, 50, 56); transform-origin: 228.64px 153.171px 0px;" id="elzgrwk1n9b3b" class="animable"></path><path d="M223.48,145.22s16.33,4.48,16.68,7.61-2.53,9.73-1,16.38,10.59,8.58,18.15,6,13-16.5,12-28S256.6,129,247.44,127.27,224.37,132.17,223.48,145.22Z" style="fill: #00FF88; transform-origin: 246.454px 151.656px 0px;" id="elf20teum6zcb" class="animable"></path><g style="clip-path: url(&quot;#freepik--clip-path-8--inject-160&quot;); transform-origin: 251.215px 156.27px 0px;" id="el7hdo1q075hg" class="animable"><g id="el6911esc16u"><path d="M254.49,136.6a25,25,0,0,0-4.64-.37,3.45,3.45,0,0,1,1,2.37,4,4,0,0,1-8,0,3.08,3.08,0,0,1,.09-.75c-4.1,2.06-7,5.86-10,10.45,3.7,1.43,7.11,3.12,7.27,4.53.36,3.13-2.53,9.73-1,16.38s10.59,8.58,18.15,6c7.14-2.43,12.39-15,12.12-26.11C268.1,146.09,263.89,138.21,254.49,136.6Z" style="opacity: 0.29; transform-origin: 251.215px 156.27px 0px;" class="animable" id="el1wnex4fief9"></path></g></g><path d="M223.48,145.22s16.33,4.48,16.68,7.61-2.53,9.73-1,16.38,10.59,8.58,18.15,6,13-16.5,12-28S256.6,129,247.44,127.27,224.37,132.17,223.48,145.22Z" style="fill: none; stroke: rgb(38, 50, 56); stroke-linecap: round; stroke-linejoin: round; transform-origin: 246.454px 151.656px 0px;" id="el59jb8gag2vq" class="animable"></path><path d="M243.72,169.68c-4-6.39,1.19-16-1.2-18.76-2-2.27-14.2-6.65-18.7-8.21a20,20,0,0,0-.34,2.51s16.33,4.48,16.68,7.61-2.53,9.73-1,16.38,10.59,8.58,18.15,6l.1,0C252.05,175.47,246.34,173.87,243.72,169.68Z" style="fill: rgb(38, 50, 56); stroke: rgb(38, 50, 56); stroke-linecap: round; stroke-linejoin: round; transform-origin: 240.445px 159.511px 0px;" id="elbx6ku97zbjr" class="animable"></path></g><defs><clipPath id="freepik--clip-path--inject-160"><path d="M274.81,161.53a64.89,64.89,0,0,0-5.54,45.79c6.42,26,24.21,56,24.21,56L315.64,256s-1.75-43.15-11.08-63.57S278,161,274.81,161.53Z" style="fill:#92E3A9;stroke:#263238;stroke-linecap:round;stroke-linejoin:round"></path></clipPath><clipPath id="freepik--clip-path-2--inject-160"><path d="M220.92,234s4.26,1.28,15.69-5.17l3.14,12.35s-8.11,3.5-20.1,1.85Z" style="fill:#fff;stroke:#263238;stroke-linecap:round;stroke-linejoin:round"></path></clipPath><clipPath id="freepik--clip-path-3--inject-160"><path d="M235.79,186.1s-7.48,13.74-6.06,25.26,6.06,23,7.27,28.08-2.63,17-1.82,20.6,17.78,5.46,32.33,6.07,21-3.24,21.82-7.28,1.21-3.43.6-10.91-7.27-47.07-11.31-54.75S255.39,178.83,252.15,178,240,178.43,235.79,186.1Z" style="fill:#fff;stroke:#263238;stroke-linecap:round;stroke-linejoin:round"></path></clipPath><clipPath id="freepik--clip-path-4--inject-160"><path d="M229.84,174.7s7.4,20.31,9.52,19.67,10.58-15,11-17.77-2.54-9.31-2.54-9.31a56.07,56.07,0,0,0-11.64,4.23C229.62,174.7,229.84,174.7,229.84,174.7Z" style="fill:#fff;stroke:#263238;stroke-linecap:round;stroke-linejoin:round"></path></clipPath><clipPath id="freepik--clip-path-5--inject-160"><path d="M259,245.09s-8.89-6.86-11.51-8.68-8.69.6-10.71.6-4.65,2-4.24,3.44a5.13,5.13,0,0,0,2,2.42s-1.42,2.43-.21,4.25a6.07,6.07,0,0,1,1.22,3,9,9,0,0,0,2.22,3.23c1.21.81,3.84,1.21,7.07,1.21s8.89-2.22,8.89-2.22l5.66-.2Z" style="fill:#fff;stroke:#263238;stroke-linecap:round;stroke-linejoin:round"></path></clipPath><clipPath id="freepik--clip-path-6--inject-160"><path d="M264.88,188.33s-7.27,6.66-4.44,15.55S275,221.05,278,225.09a65.31,65.31,0,0,0,7.28,7.88s-9.1,4.45-15.56,7.28a81.06,81.06,0,0,1-11.31,4l.2,7.67s22.22,1,32.52-3,17.78-9.09,17.78-15.15S296,216.41,289.12,205.5s-11.92-16.57-18.78-17.58" style="fill:#fff;stroke:#263238;stroke-linecap:round;stroke-linejoin:round"></path></clipPath><clipPath id="freepik--clip-path-7--inject-160"><path d="M227.59,142.38a59.72,59.72,0,0,0-2.07,6c-.49,2.06-3.1,5.79-4.63,6.74s-5.1,2.28-3.53,4a17.55,17.55,0,0,0,4.71,3.06s-1.23,7.1-.45,11.19,3.66,4.78,6.27,4.74,12.46-1.21,15.79-5.21,8.69-16.65,6.06-24.87S232.25,134.57,227.59,142.38Z" style="fill:#fff;stroke:#263238;stroke-linecap:round;stroke-linejoin:round"></path></clipPath><clipPath id="freepik--clip-path-8--inject-160"><path d="M223.48,145.22s16.33,4.48,16.68,7.61-2.53,9.73-1,16.38,10.59,8.58,18.15,6,13-16.5,12-28S256.6,129,247.44,127.27,224.37,132.17,223.48,145.22Z" style="fill:#92E3A9;stroke:#263238;stroke-linecap:round;stroke-linejoin:round"></path></clipPath></defs><defs>     <filter id="active" height="200%">         <feMorphology in="SourceAlpha" result="DILATED" operator="dilate" radius="2"></feMorphology>                <feFlood flood-color="#32DFEC" flood-opacity="1" result="PINK"></feFlood>        <feComposite in="PINK" in2="DILATED" operator="in" result="OUTLINE"></feComposite>        <feMerge>            <feMergeNode in="OUTLINE"></feMergeNode>            <feMergeNode in="SourceGraphic"></feMergeNode>        </feMerge>    </filter>    <filter id="hover" height="200%">        <feMorphology in="SourceAlpha" result="DILATED" operator="dilate" radius="2"></feMorphology>                <feFlood flood-color="#ff0000" flood-opacity="0.5" result="PINK"></feFlood>        <feComposite in="PINK" in2="DILATED" operator="in" result="OUTLINE"></feComposite>        <feMerge>            <feMergeNode in="OUTLINE"></feMergeNode>            <feMergeNode in="SourceGraphic"></feMergeNode>        </feMerge>            <feColorMatrix type="matrix" values="0   0   0   0   0                0   1   0   0   0                0   0   0   0   0                0   0   0   1   0 "></feColorMatrix>    </filter></defs></svg>